%TF.GenerationSoftware,KiCad,Pcbnew,9.0.5*%
%TF.CreationDate,2025-10-24T12:46:41+03:00*%
%TF.ProjectId,40W SMPS,34305720-534d-4505-932e-6b696361645f,rev?*%
%TF.SameCoordinates,Original*%
%TF.FileFunction,Paste,Top*%
%TF.FilePolarity,Positive*%
%FSLAX46Y46*%
G04 Gerber Fmt 4.6, Leading zero omitted, Abs format (unit mm)*
G04 Created by KiCad (PCBNEW 9.0.5) date 2025-10-24 12:46:41*
%MOMM*%
%LPD*%
G01*
G04 APERTURE LIST*
G04 Aperture macros list*
%AMRoundRect*
0 Rectangle with rounded corners*
0 $1 Rounding radius*
0 $2 $3 $4 $5 $6 $7 $8 $9 X,Y pos of 4 corners*
0 Add a 4 corners polygon primitive as box body*
4,1,4,$2,$3,$4,$5,$6,$7,$8,$9,$2,$3,0*
0 Add four circle primitives for the rounded corners*
1,1,$1+$1,$2,$3*
1,1,$1+$1,$4,$5*
1,1,$1+$1,$6,$7*
1,1,$1+$1,$8,$9*
0 Add four rect primitives between the rounded corners*
20,1,$1+$1,$2,$3,$4,$5,0*
20,1,$1+$1,$4,$5,$6,$7,0*
20,1,$1+$1,$6,$7,$8,$9,0*
20,1,$1+$1,$8,$9,$2,$3,0*%
G04 Aperture macros list end*
%ADD10C,0.010000*%
%ADD11RoundRect,0.200000X-0.200000X-0.275000X0.200000X-0.275000X0.200000X0.275000X-0.200000X0.275000X0*%
%ADD12RoundRect,0.200000X0.275000X-0.200000X0.275000X0.200000X-0.275000X0.200000X-0.275000X-0.200000X0*%
%ADD13RoundRect,0.225000X0.225000X0.250000X-0.225000X0.250000X-0.225000X-0.250000X0.225000X-0.250000X0*%
%ADD14R,0.635000X1.556000*%
%ADD15R,4.443115X0.885250*%
%ADD16R,4.467500X1.753000*%
%ADD17RoundRect,0.250000X-0.425000X0.450000X-0.425000X-0.450000X0.425000X-0.450000X0.425000X0.450000X0*%
%ADD18RoundRect,0.218750X0.218750X0.256250X-0.218750X0.256250X-0.218750X-0.256250X0.218750X-0.256250X0*%
%ADD19RoundRect,0.225000X-0.225000X-0.250000X0.225000X-0.250000X0.225000X0.250000X-0.225000X0.250000X0*%
%ADD20RoundRect,0.073750X-0.221250X0.531250X-0.221250X-0.531250X0.221250X-0.531250X0.221250X0.531250X0*%
%ADD21RoundRect,0.200000X-0.275000X0.200000X-0.275000X-0.200000X0.275000X-0.200000X0.275000X0.200000X0*%
%ADD22R,1.075000X0.500000*%
%ADD23R,1.150000X0.700000*%
%ADD24R,1.150000X0.800000*%
%ADD25R,1.150000X0.900000*%
%ADD26RoundRect,0.218750X0.256250X-0.218750X0.256250X0.218750X-0.256250X0.218750X-0.256250X-0.218750X0*%
%ADD27RoundRect,0.200000X0.200000X0.275000X-0.200000X0.275000X-0.200000X-0.275000X0.200000X-0.275000X0*%
%ADD28R,2.500000X1.520000*%
%ADD29RoundRect,0.225000X0.250000X-0.225000X0.250000X0.225000X-0.250000X0.225000X-0.250000X-0.225000X0*%
%ADD30RoundRect,0.225000X-0.250000X0.225000X-0.250000X-0.225000X0.250000X-0.225000X0.250000X0.225000X0*%
%ADD31R,1.700000X1.450000*%
%ADD32RoundRect,0.150000X-0.587500X-0.150000X0.587500X-0.150000X0.587500X0.150000X-0.587500X0.150000X0*%
%ADD33R,1.800000X1.400000*%
%ADD34RoundRect,0.250000X-0.985000X0.505000X-0.985000X-0.505000X0.985000X-0.505000X0.985000X0.505000X0*%
G04 APERTURE END LIST*
D10*
%TO.C,Q2*%
X228358000Y-44801000D02*
X228360000Y-44801000D01*
X228363000Y-44802000D01*
X228365000Y-44802000D01*
X228368000Y-44803000D01*
X228370000Y-44804000D01*
X228373000Y-44805000D01*
X228375000Y-44807000D01*
X228377000Y-44808000D01*
X228379000Y-44810000D01*
X228381000Y-44811000D01*
X228383000Y-44813000D01*
X228385000Y-44815000D01*
X228387000Y-44817000D01*
X228389000Y-44819000D01*
X228390000Y-44821000D01*
X228392000Y-44823000D01*
X228393000Y-44825000D01*
X228395000Y-44827000D01*
X228396000Y-44830000D01*
X228397000Y-44832000D01*
X228398000Y-44835000D01*
X228398000Y-44837000D01*
X228399000Y-44840000D01*
X228399000Y-44842000D01*
X228400000Y-44845000D01*
X228400000Y-44847000D01*
X228400000Y-44850000D01*
X228400000Y-45350000D01*
X228400000Y-45353000D01*
X228400000Y-45355000D01*
X228399000Y-45358000D01*
X228399000Y-45360000D01*
X228398000Y-45363000D01*
X228398000Y-45365000D01*
X228397000Y-45368000D01*
X228396000Y-45370000D01*
X228395000Y-45373000D01*
X228393000Y-45375000D01*
X228392000Y-45377000D01*
X228390000Y-45379000D01*
X228389000Y-45381000D01*
X228387000Y-45383000D01*
X228385000Y-45385000D01*
X228383000Y-45387000D01*
X228381000Y-45389000D01*
X228379000Y-45390000D01*
X228377000Y-45392000D01*
X228375000Y-45393000D01*
X228373000Y-45395000D01*
X228370000Y-45396000D01*
X228368000Y-45397000D01*
X228365000Y-45398000D01*
X228363000Y-45398000D01*
X228360000Y-45399000D01*
X228358000Y-45399000D01*
X228355000Y-45400000D01*
X228353000Y-45400000D01*
X228350000Y-45400000D01*
X228150000Y-45400000D01*
X228147000Y-45400000D01*
X228145000Y-45400000D01*
X228142000Y-45399000D01*
X228140000Y-45399000D01*
X228137000Y-45398000D01*
X228135000Y-45398000D01*
X228132000Y-45397000D01*
X228130000Y-45396000D01*
X228127000Y-45395000D01*
X228125000Y-45393000D01*
X228123000Y-45392000D01*
X228121000Y-45390000D01*
X228119000Y-45389000D01*
X228117000Y-45387000D01*
X228115000Y-45385000D01*
X228113000Y-45383000D01*
X228111000Y-45381000D01*
X228110000Y-45379000D01*
X228108000Y-45377000D01*
X228107000Y-45375000D01*
X228105000Y-45373000D01*
X228104000Y-45370000D01*
X228103000Y-45368000D01*
X228102000Y-45365000D01*
X228102000Y-45363000D01*
X228101000Y-45360000D01*
X228101000Y-45358000D01*
X228100000Y-45355000D01*
X228100000Y-45353000D01*
X228100000Y-45350000D01*
X228100000Y-44850000D01*
X228100000Y-44847000D01*
X228100000Y-44845000D01*
X228101000Y-44842000D01*
X228101000Y-44840000D01*
X228102000Y-44837000D01*
X228102000Y-44835000D01*
X228103000Y-44832000D01*
X228104000Y-44830000D01*
X228105000Y-44827000D01*
X228107000Y-44825000D01*
X228108000Y-44823000D01*
X228110000Y-44821000D01*
X228111000Y-44819000D01*
X228113000Y-44817000D01*
X228115000Y-44815000D01*
X228117000Y-44813000D01*
X228119000Y-44811000D01*
X228121000Y-44810000D01*
X228123000Y-44808000D01*
X228125000Y-44807000D01*
X228127000Y-44805000D01*
X228130000Y-44804000D01*
X228132000Y-44803000D01*
X228135000Y-44802000D01*
X228137000Y-44802000D01*
X228140000Y-44801000D01*
X228142000Y-44801000D01*
X228145000Y-44800000D01*
X228147000Y-44800000D01*
X228150000Y-44800000D01*
X228350000Y-44800000D01*
X228353000Y-44800000D01*
X228355000Y-44800000D01*
X228358000Y-44801000D01*
G36*
X228358000Y-44801000D02*
G01*
X228360000Y-44801000D01*
X228363000Y-44802000D01*
X228365000Y-44802000D01*
X228368000Y-44803000D01*
X228370000Y-44804000D01*
X228373000Y-44805000D01*
X228375000Y-44807000D01*
X228377000Y-44808000D01*
X228379000Y-44810000D01*
X228381000Y-44811000D01*
X228383000Y-44813000D01*
X228385000Y-44815000D01*
X228387000Y-44817000D01*
X228389000Y-44819000D01*
X228390000Y-44821000D01*
X228392000Y-44823000D01*
X228393000Y-44825000D01*
X228395000Y-44827000D01*
X228396000Y-44830000D01*
X228397000Y-44832000D01*
X228398000Y-44835000D01*
X228398000Y-44837000D01*
X228399000Y-44840000D01*
X228399000Y-44842000D01*
X228400000Y-44845000D01*
X228400000Y-44847000D01*
X228400000Y-44850000D01*
X228400000Y-45350000D01*
X228400000Y-45353000D01*
X228400000Y-45355000D01*
X228399000Y-45358000D01*
X228399000Y-45360000D01*
X228398000Y-45363000D01*
X228398000Y-45365000D01*
X228397000Y-45368000D01*
X228396000Y-45370000D01*
X228395000Y-45373000D01*
X228393000Y-45375000D01*
X228392000Y-45377000D01*
X228390000Y-45379000D01*
X228389000Y-45381000D01*
X228387000Y-45383000D01*
X228385000Y-45385000D01*
X228383000Y-45387000D01*
X228381000Y-45389000D01*
X228379000Y-45390000D01*
X228377000Y-45392000D01*
X228375000Y-45393000D01*
X228373000Y-45395000D01*
X228370000Y-45396000D01*
X228368000Y-45397000D01*
X228365000Y-45398000D01*
X228363000Y-45398000D01*
X228360000Y-45399000D01*
X228358000Y-45399000D01*
X228355000Y-45400000D01*
X228353000Y-45400000D01*
X228350000Y-45400000D01*
X228150000Y-45400000D01*
X228147000Y-45400000D01*
X228145000Y-45400000D01*
X228142000Y-45399000D01*
X228140000Y-45399000D01*
X228137000Y-45398000D01*
X228135000Y-45398000D01*
X228132000Y-45397000D01*
X228130000Y-45396000D01*
X228127000Y-45395000D01*
X228125000Y-45393000D01*
X228123000Y-45392000D01*
X228121000Y-45390000D01*
X228119000Y-45389000D01*
X228117000Y-45387000D01*
X228115000Y-45385000D01*
X228113000Y-45383000D01*
X228111000Y-45381000D01*
X228110000Y-45379000D01*
X228108000Y-45377000D01*
X228107000Y-45375000D01*
X228105000Y-45373000D01*
X228104000Y-45370000D01*
X228103000Y-45368000D01*
X228102000Y-45365000D01*
X228102000Y-45363000D01*
X228101000Y-45360000D01*
X228101000Y-45358000D01*
X228100000Y-45355000D01*
X228100000Y-45353000D01*
X228100000Y-45350000D01*
X228100000Y-44850000D01*
X228100000Y-44847000D01*
X228100000Y-44845000D01*
X228101000Y-44842000D01*
X228101000Y-44840000D01*
X228102000Y-44837000D01*
X228102000Y-44835000D01*
X228103000Y-44832000D01*
X228104000Y-44830000D01*
X228105000Y-44827000D01*
X228107000Y-44825000D01*
X228108000Y-44823000D01*
X228110000Y-44821000D01*
X228111000Y-44819000D01*
X228113000Y-44817000D01*
X228115000Y-44815000D01*
X228117000Y-44813000D01*
X228119000Y-44811000D01*
X228121000Y-44810000D01*
X228123000Y-44808000D01*
X228125000Y-44807000D01*
X228127000Y-44805000D01*
X228130000Y-44804000D01*
X228132000Y-44803000D01*
X228135000Y-44802000D01*
X228137000Y-44802000D01*
X228140000Y-44801000D01*
X228142000Y-44801000D01*
X228145000Y-44800000D01*
X228147000Y-44800000D01*
X228150000Y-44800000D01*
X228350000Y-44800000D01*
X228353000Y-44800000D01*
X228355000Y-44800000D01*
X228358000Y-44801000D01*
G37*
X228358000Y-47901000D02*
X228360000Y-47901000D01*
X228363000Y-47902000D01*
X228365000Y-47902000D01*
X228368000Y-47903000D01*
X228370000Y-47904000D01*
X228373000Y-47905000D01*
X228375000Y-47907000D01*
X228377000Y-47908000D01*
X228379000Y-47910000D01*
X228381000Y-47911000D01*
X228383000Y-47913000D01*
X228385000Y-47915000D01*
X228387000Y-47917000D01*
X228389000Y-47919000D01*
X228390000Y-47921000D01*
X228392000Y-47923000D01*
X228393000Y-47925000D01*
X228395000Y-47927000D01*
X228396000Y-47930000D01*
X228397000Y-47932000D01*
X228398000Y-47935000D01*
X228398000Y-47937000D01*
X228399000Y-47940000D01*
X228399000Y-47942000D01*
X228400000Y-47945000D01*
X228400000Y-47947000D01*
X228400000Y-47950000D01*
X228400000Y-48450000D01*
X228400000Y-48453000D01*
X228400000Y-48455000D01*
X228399000Y-48458000D01*
X228399000Y-48460000D01*
X228398000Y-48463000D01*
X228398000Y-48465000D01*
X228397000Y-48468000D01*
X228396000Y-48470000D01*
X228395000Y-48473000D01*
X228393000Y-48475000D01*
X228392000Y-48477000D01*
X228390000Y-48479000D01*
X228389000Y-48481000D01*
X228387000Y-48483000D01*
X228385000Y-48485000D01*
X228383000Y-48487000D01*
X228381000Y-48489000D01*
X228379000Y-48490000D01*
X228377000Y-48492000D01*
X228375000Y-48493000D01*
X228373000Y-48495000D01*
X228370000Y-48496000D01*
X228368000Y-48497000D01*
X228365000Y-48498000D01*
X228363000Y-48498000D01*
X228360000Y-48499000D01*
X228358000Y-48499000D01*
X228355000Y-48500000D01*
X228353000Y-48500000D01*
X228350000Y-48500000D01*
X228150000Y-48500000D01*
X228147000Y-48500000D01*
X228145000Y-48500000D01*
X228142000Y-48499000D01*
X228140000Y-48499000D01*
X228137000Y-48498000D01*
X228135000Y-48498000D01*
X228132000Y-48497000D01*
X228130000Y-48496000D01*
X228127000Y-48495000D01*
X228125000Y-48493000D01*
X228123000Y-48492000D01*
X228121000Y-48490000D01*
X228119000Y-48489000D01*
X228117000Y-48487000D01*
X228115000Y-48485000D01*
X228113000Y-48483000D01*
X228111000Y-48481000D01*
X228110000Y-48479000D01*
X228108000Y-48477000D01*
X228107000Y-48475000D01*
X228105000Y-48473000D01*
X228104000Y-48470000D01*
X228103000Y-48468000D01*
X228102000Y-48465000D01*
X228102000Y-48463000D01*
X228101000Y-48460000D01*
X228101000Y-48458000D01*
X228100000Y-48455000D01*
X228100000Y-48453000D01*
X228100000Y-48450000D01*
X228100000Y-47950000D01*
X228100000Y-47947000D01*
X228100000Y-47945000D01*
X228101000Y-47942000D01*
X228101000Y-47940000D01*
X228102000Y-47937000D01*
X228102000Y-47935000D01*
X228103000Y-47932000D01*
X228104000Y-47930000D01*
X228105000Y-47927000D01*
X228107000Y-47925000D01*
X228108000Y-47923000D01*
X228110000Y-47921000D01*
X228111000Y-47919000D01*
X228113000Y-47917000D01*
X228115000Y-47915000D01*
X228117000Y-47913000D01*
X228119000Y-47911000D01*
X228121000Y-47910000D01*
X228123000Y-47908000D01*
X228125000Y-47907000D01*
X228127000Y-47905000D01*
X228130000Y-47904000D01*
X228132000Y-47903000D01*
X228135000Y-47902000D01*
X228137000Y-47902000D01*
X228140000Y-47901000D01*
X228142000Y-47901000D01*
X228145000Y-47900000D01*
X228147000Y-47900000D01*
X228150000Y-47900000D01*
X228350000Y-47900000D01*
X228353000Y-47900000D01*
X228355000Y-47900000D01*
X228358000Y-47901000D01*
G36*
X228358000Y-47901000D02*
G01*
X228360000Y-47901000D01*
X228363000Y-47902000D01*
X228365000Y-47902000D01*
X228368000Y-47903000D01*
X228370000Y-47904000D01*
X228373000Y-47905000D01*
X228375000Y-47907000D01*
X228377000Y-47908000D01*
X228379000Y-47910000D01*
X228381000Y-47911000D01*
X228383000Y-47913000D01*
X228385000Y-47915000D01*
X228387000Y-47917000D01*
X228389000Y-47919000D01*
X228390000Y-47921000D01*
X228392000Y-47923000D01*
X228393000Y-47925000D01*
X228395000Y-47927000D01*
X228396000Y-47930000D01*
X228397000Y-47932000D01*
X228398000Y-47935000D01*
X228398000Y-47937000D01*
X228399000Y-47940000D01*
X228399000Y-47942000D01*
X228400000Y-47945000D01*
X228400000Y-47947000D01*
X228400000Y-47950000D01*
X228400000Y-48450000D01*
X228400000Y-48453000D01*
X228400000Y-48455000D01*
X228399000Y-48458000D01*
X228399000Y-48460000D01*
X228398000Y-48463000D01*
X228398000Y-48465000D01*
X228397000Y-48468000D01*
X228396000Y-48470000D01*
X228395000Y-48473000D01*
X228393000Y-48475000D01*
X228392000Y-48477000D01*
X228390000Y-48479000D01*
X228389000Y-48481000D01*
X228387000Y-48483000D01*
X228385000Y-48485000D01*
X228383000Y-48487000D01*
X228381000Y-48489000D01*
X228379000Y-48490000D01*
X228377000Y-48492000D01*
X228375000Y-48493000D01*
X228373000Y-48495000D01*
X228370000Y-48496000D01*
X228368000Y-48497000D01*
X228365000Y-48498000D01*
X228363000Y-48498000D01*
X228360000Y-48499000D01*
X228358000Y-48499000D01*
X228355000Y-48500000D01*
X228353000Y-48500000D01*
X228350000Y-48500000D01*
X228150000Y-48500000D01*
X228147000Y-48500000D01*
X228145000Y-48500000D01*
X228142000Y-48499000D01*
X228140000Y-48499000D01*
X228137000Y-48498000D01*
X228135000Y-48498000D01*
X228132000Y-48497000D01*
X228130000Y-48496000D01*
X228127000Y-48495000D01*
X228125000Y-48493000D01*
X228123000Y-48492000D01*
X228121000Y-48490000D01*
X228119000Y-48489000D01*
X228117000Y-48487000D01*
X228115000Y-48485000D01*
X228113000Y-48483000D01*
X228111000Y-48481000D01*
X228110000Y-48479000D01*
X228108000Y-48477000D01*
X228107000Y-48475000D01*
X228105000Y-48473000D01*
X228104000Y-48470000D01*
X228103000Y-48468000D01*
X228102000Y-48465000D01*
X228102000Y-48463000D01*
X228101000Y-48460000D01*
X228101000Y-48458000D01*
X228100000Y-48455000D01*
X228100000Y-48453000D01*
X228100000Y-48450000D01*
X228100000Y-47950000D01*
X228100000Y-47947000D01*
X228100000Y-47945000D01*
X228101000Y-47942000D01*
X228101000Y-47940000D01*
X228102000Y-47937000D01*
X228102000Y-47935000D01*
X228103000Y-47932000D01*
X228104000Y-47930000D01*
X228105000Y-47927000D01*
X228107000Y-47925000D01*
X228108000Y-47923000D01*
X228110000Y-47921000D01*
X228111000Y-47919000D01*
X228113000Y-47917000D01*
X228115000Y-47915000D01*
X228117000Y-47913000D01*
X228119000Y-47911000D01*
X228121000Y-47910000D01*
X228123000Y-47908000D01*
X228125000Y-47907000D01*
X228127000Y-47905000D01*
X228130000Y-47904000D01*
X228132000Y-47903000D01*
X228135000Y-47902000D01*
X228137000Y-47902000D01*
X228140000Y-47901000D01*
X228142000Y-47901000D01*
X228145000Y-47900000D01*
X228147000Y-47900000D01*
X228150000Y-47900000D01*
X228350000Y-47900000D01*
X228353000Y-47900000D01*
X228355000Y-47900000D01*
X228358000Y-47901000D01*
G37*
X229008000Y-44801000D02*
X229010000Y-44801000D01*
X229013000Y-44802000D01*
X229015000Y-44802000D01*
X229018000Y-44803000D01*
X229020000Y-44804000D01*
X229023000Y-44805000D01*
X229025000Y-44807000D01*
X229027000Y-44808000D01*
X229029000Y-44810000D01*
X229031000Y-44811000D01*
X229033000Y-44813000D01*
X229035000Y-44815000D01*
X229037000Y-44817000D01*
X229039000Y-44819000D01*
X229040000Y-44821000D01*
X229042000Y-44823000D01*
X229043000Y-44825000D01*
X229045000Y-44827000D01*
X229046000Y-44830000D01*
X229047000Y-44832000D01*
X229048000Y-44835000D01*
X229048000Y-44837000D01*
X229049000Y-44840000D01*
X229049000Y-44842000D01*
X229050000Y-44845000D01*
X229050000Y-44847000D01*
X229050000Y-44850000D01*
X229050000Y-45350000D01*
X229050000Y-45353000D01*
X229050000Y-45355000D01*
X229049000Y-45358000D01*
X229049000Y-45360000D01*
X229048000Y-45363000D01*
X229048000Y-45365000D01*
X229047000Y-45368000D01*
X229046000Y-45370000D01*
X229045000Y-45373000D01*
X229043000Y-45375000D01*
X229042000Y-45377000D01*
X229040000Y-45379000D01*
X229039000Y-45381000D01*
X229037000Y-45383000D01*
X229035000Y-45385000D01*
X229033000Y-45387000D01*
X229031000Y-45389000D01*
X229029000Y-45390000D01*
X229027000Y-45392000D01*
X229025000Y-45393000D01*
X229023000Y-45395000D01*
X229020000Y-45396000D01*
X229018000Y-45397000D01*
X229015000Y-45398000D01*
X229013000Y-45398000D01*
X229010000Y-45399000D01*
X229008000Y-45399000D01*
X229005000Y-45400000D01*
X229003000Y-45400000D01*
X229000000Y-45400000D01*
X228800000Y-45400000D01*
X228797000Y-45400000D01*
X228795000Y-45400000D01*
X228792000Y-45399000D01*
X228790000Y-45399000D01*
X228787000Y-45398000D01*
X228785000Y-45398000D01*
X228782000Y-45397000D01*
X228780000Y-45396000D01*
X228777000Y-45395000D01*
X228775000Y-45393000D01*
X228773000Y-45392000D01*
X228771000Y-45390000D01*
X228769000Y-45389000D01*
X228767000Y-45387000D01*
X228765000Y-45385000D01*
X228763000Y-45383000D01*
X228761000Y-45381000D01*
X228760000Y-45379000D01*
X228758000Y-45377000D01*
X228757000Y-45375000D01*
X228755000Y-45373000D01*
X228754000Y-45370000D01*
X228753000Y-45368000D01*
X228752000Y-45365000D01*
X228752000Y-45363000D01*
X228751000Y-45360000D01*
X228751000Y-45358000D01*
X228750000Y-45355000D01*
X228750000Y-45353000D01*
X228750000Y-45350000D01*
X228750000Y-44850000D01*
X228750000Y-44847000D01*
X228750000Y-44845000D01*
X228751000Y-44842000D01*
X228751000Y-44840000D01*
X228752000Y-44837000D01*
X228752000Y-44835000D01*
X228753000Y-44832000D01*
X228754000Y-44830000D01*
X228755000Y-44827000D01*
X228757000Y-44825000D01*
X228758000Y-44823000D01*
X228760000Y-44821000D01*
X228761000Y-44819000D01*
X228763000Y-44817000D01*
X228765000Y-44815000D01*
X228767000Y-44813000D01*
X228769000Y-44811000D01*
X228771000Y-44810000D01*
X228773000Y-44808000D01*
X228775000Y-44807000D01*
X228777000Y-44805000D01*
X228780000Y-44804000D01*
X228782000Y-44803000D01*
X228785000Y-44802000D01*
X228787000Y-44802000D01*
X228790000Y-44801000D01*
X228792000Y-44801000D01*
X228795000Y-44800000D01*
X228797000Y-44800000D01*
X228800000Y-44800000D01*
X229000000Y-44800000D01*
X229003000Y-44800000D01*
X229005000Y-44800000D01*
X229008000Y-44801000D01*
G36*
X229008000Y-44801000D02*
G01*
X229010000Y-44801000D01*
X229013000Y-44802000D01*
X229015000Y-44802000D01*
X229018000Y-44803000D01*
X229020000Y-44804000D01*
X229023000Y-44805000D01*
X229025000Y-44807000D01*
X229027000Y-44808000D01*
X229029000Y-44810000D01*
X229031000Y-44811000D01*
X229033000Y-44813000D01*
X229035000Y-44815000D01*
X229037000Y-44817000D01*
X229039000Y-44819000D01*
X229040000Y-44821000D01*
X229042000Y-44823000D01*
X229043000Y-44825000D01*
X229045000Y-44827000D01*
X229046000Y-44830000D01*
X229047000Y-44832000D01*
X229048000Y-44835000D01*
X229048000Y-44837000D01*
X229049000Y-44840000D01*
X229049000Y-44842000D01*
X229050000Y-44845000D01*
X229050000Y-44847000D01*
X229050000Y-44850000D01*
X229050000Y-45350000D01*
X229050000Y-45353000D01*
X229050000Y-45355000D01*
X229049000Y-45358000D01*
X229049000Y-45360000D01*
X229048000Y-45363000D01*
X229048000Y-45365000D01*
X229047000Y-45368000D01*
X229046000Y-45370000D01*
X229045000Y-45373000D01*
X229043000Y-45375000D01*
X229042000Y-45377000D01*
X229040000Y-45379000D01*
X229039000Y-45381000D01*
X229037000Y-45383000D01*
X229035000Y-45385000D01*
X229033000Y-45387000D01*
X229031000Y-45389000D01*
X229029000Y-45390000D01*
X229027000Y-45392000D01*
X229025000Y-45393000D01*
X229023000Y-45395000D01*
X229020000Y-45396000D01*
X229018000Y-45397000D01*
X229015000Y-45398000D01*
X229013000Y-45398000D01*
X229010000Y-45399000D01*
X229008000Y-45399000D01*
X229005000Y-45400000D01*
X229003000Y-45400000D01*
X229000000Y-45400000D01*
X228800000Y-45400000D01*
X228797000Y-45400000D01*
X228795000Y-45400000D01*
X228792000Y-45399000D01*
X228790000Y-45399000D01*
X228787000Y-45398000D01*
X228785000Y-45398000D01*
X228782000Y-45397000D01*
X228780000Y-45396000D01*
X228777000Y-45395000D01*
X228775000Y-45393000D01*
X228773000Y-45392000D01*
X228771000Y-45390000D01*
X228769000Y-45389000D01*
X228767000Y-45387000D01*
X228765000Y-45385000D01*
X228763000Y-45383000D01*
X228761000Y-45381000D01*
X228760000Y-45379000D01*
X228758000Y-45377000D01*
X228757000Y-45375000D01*
X228755000Y-45373000D01*
X228754000Y-45370000D01*
X228753000Y-45368000D01*
X228752000Y-45365000D01*
X228752000Y-45363000D01*
X228751000Y-45360000D01*
X228751000Y-45358000D01*
X228750000Y-45355000D01*
X228750000Y-45353000D01*
X228750000Y-45350000D01*
X228750000Y-44850000D01*
X228750000Y-44847000D01*
X228750000Y-44845000D01*
X228751000Y-44842000D01*
X228751000Y-44840000D01*
X228752000Y-44837000D01*
X228752000Y-44835000D01*
X228753000Y-44832000D01*
X228754000Y-44830000D01*
X228755000Y-44827000D01*
X228757000Y-44825000D01*
X228758000Y-44823000D01*
X228760000Y-44821000D01*
X228761000Y-44819000D01*
X228763000Y-44817000D01*
X228765000Y-44815000D01*
X228767000Y-44813000D01*
X228769000Y-44811000D01*
X228771000Y-44810000D01*
X228773000Y-44808000D01*
X228775000Y-44807000D01*
X228777000Y-44805000D01*
X228780000Y-44804000D01*
X228782000Y-44803000D01*
X228785000Y-44802000D01*
X228787000Y-44802000D01*
X228790000Y-44801000D01*
X228792000Y-44801000D01*
X228795000Y-44800000D01*
X228797000Y-44800000D01*
X228800000Y-44800000D01*
X229000000Y-44800000D01*
X229003000Y-44800000D01*
X229005000Y-44800000D01*
X229008000Y-44801000D01*
G37*
X229008000Y-47901000D02*
X229010000Y-47901000D01*
X229013000Y-47902000D01*
X229015000Y-47902000D01*
X229018000Y-47903000D01*
X229020000Y-47904000D01*
X229023000Y-47905000D01*
X229025000Y-47907000D01*
X229027000Y-47908000D01*
X229029000Y-47910000D01*
X229031000Y-47911000D01*
X229033000Y-47913000D01*
X229035000Y-47915000D01*
X229037000Y-47917000D01*
X229039000Y-47919000D01*
X229040000Y-47921000D01*
X229042000Y-47923000D01*
X229043000Y-47925000D01*
X229045000Y-47927000D01*
X229046000Y-47930000D01*
X229047000Y-47932000D01*
X229048000Y-47935000D01*
X229048000Y-47937000D01*
X229049000Y-47940000D01*
X229049000Y-47942000D01*
X229050000Y-47945000D01*
X229050000Y-47947000D01*
X229050000Y-47950000D01*
X229050000Y-48450000D01*
X229050000Y-48453000D01*
X229050000Y-48455000D01*
X229049000Y-48458000D01*
X229049000Y-48460000D01*
X229048000Y-48463000D01*
X229048000Y-48465000D01*
X229047000Y-48468000D01*
X229046000Y-48470000D01*
X229045000Y-48473000D01*
X229043000Y-48475000D01*
X229042000Y-48477000D01*
X229040000Y-48479000D01*
X229039000Y-48481000D01*
X229037000Y-48483000D01*
X229035000Y-48485000D01*
X229033000Y-48487000D01*
X229031000Y-48489000D01*
X229029000Y-48490000D01*
X229027000Y-48492000D01*
X229025000Y-48493000D01*
X229023000Y-48495000D01*
X229020000Y-48496000D01*
X229018000Y-48497000D01*
X229015000Y-48498000D01*
X229013000Y-48498000D01*
X229010000Y-48499000D01*
X229008000Y-48499000D01*
X229005000Y-48500000D01*
X229003000Y-48500000D01*
X229000000Y-48500000D01*
X228800000Y-48500000D01*
X228797000Y-48500000D01*
X228795000Y-48500000D01*
X228792000Y-48499000D01*
X228790000Y-48499000D01*
X228787000Y-48498000D01*
X228785000Y-48498000D01*
X228782000Y-48497000D01*
X228780000Y-48496000D01*
X228777000Y-48495000D01*
X228775000Y-48493000D01*
X228773000Y-48492000D01*
X228771000Y-48490000D01*
X228769000Y-48489000D01*
X228767000Y-48487000D01*
X228765000Y-48485000D01*
X228763000Y-48483000D01*
X228761000Y-48481000D01*
X228760000Y-48479000D01*
X228758000Y-48477000D01*
X228757000Y-48475000D01*
X228755000Y-48473000D01*
X228754000Y-48470000D01*
X228753000Y-48468000D01*
X228752000Y-48465000D01*
X228752000Y-48463000D01*
X228751000Y-48460000D01*
X228751000Y-48458000D01*
X228750000Y-48455000D01*
X228750000Y-48453000D01*
X228750000Y-48450000D01*
X228750000Y-47950000D01*
X228750000Y-47947000D01*
X228750000Y-47945000D01*
X228751000Y-47942000D01*
X228751000Y-47940000D01*
X228752000Y-47937000D01*
X228752000Y-47935000D01*
X228753000Y-47932000D01*
X228754000Y-47930000D01*
X228755000Y-47927000D01*
X228757000Y-47925000D01*
X228758000Y-47923000D01*
X228760000Y-47921000D01*
X228761000Y-47919000D01*
X228763000Y-47917000D01*
X228765000Y-47915000D01*
X228767000Y-47913000D01*
X228769000Y-47911000D01*
X228771000Y-47910000D01*
X228773000Y-47908000D01*
X228775000Y-47907000D01*
X228777000Y-47905000D01*
X228780000Y-47904000D01*
X228782000Y-47903000D01*
X228785000Y-47902000D01*
X228787000Y-47902000D01*
X228790000Y-47901000D01*
X228792000Y-47901000D01*
X228795000Y-47900000D01*
X228797000Y-47900000D01*
X228800000Y-47900000D01*
X229000000Y-47900000D01*
X229003000Y-47900000D01*
X229005000Y-47900000D01*
X229008000Y-47901000D01*
G36*
X229008000Y-47901000D02*
G01*
X229010000Y-47901000D01*
X229013000Y-47902000D01*
X229015000Y-47902000D01*
X229018000Y-47903000D01*
X229020000Y-47904000D01*
X229023000Y-47905000D01*
X229025000Y-47907000D01*
X229027000Y-47908000D01*
X229029000Y-47910000D01*
X229031000Y-47911000D01*
X229033000Y-47913000D01*
X229035000Y-47915000D01*
X229037000Y-47917000D01*
X229039000Y-47919000D01*
X229040000Y-47921000D01*
X229042000Y-47923000D01*
X229043000Y-47925000D01*
X229045000Y-47927000D01*
X229046000Y-47930000D01*
X229047000Y-47932000D01*
X229048000Y-47935000D01*
X229048000Y-47937000D01*
X229049000Y-47940000D01*
X229049000Y-47942000D01*
X229050000Y-47945000D01*
X229050000Y-47947000D01*
X229050000Y-47950000D01*
X229050000Y-48450000D01*
X229050000Y-48453000D01*
X229050000Y-48455000D01*
X229049000Y-48458000D01*
X229049000Y-48460000D01*
X229048000Y-48463000D01*
X229048000Y-48465000D01*
X229047000Y-48468000D01*
X229046000Y-48470000D01*
X229045000Y-48473000D01*
X229043000Y-48475000D01*
X229042000Y-48477000D01*
X229040000Y-48479000D01*
X229039000Y-48481000D01*
X229037000Y-48483000D01*
X229035000Y-48485000D01*
X229033000Y-48487000D01*
X229031000Y-48489000D01*
X229029000Y-48490000D01*
X229027000Y-48492000D01*
X229025000Y-48493000D01*
X229023000Y-48495000D01*
X229020000Y-48496000D01*
X229018000Y-48497000D01*
X229015000Y-48498000D01*
X229013000Y-48498000D01*
X229010000Y-48499000D01*
X229008000Y-48499000D01*
X229005000Y-48500000D01*
X229003000Y-48500000D01*
X229000000Y-48500000D01*
X228800000Y-48500000D01*
X228797000Y-48500000D01*
X228795000Y-48500000D01*
X228792000Y-48499000D01*
X228790000Y-48499000D01*
X228787000Y-48498000D01*
X228785000Y-48498000D01*
X228782000Y-48497000D01*
X228780000Y-48496000D01*
X228777000Y-48495000D01*
X228775000Y-48493000D01*
X228773000Y-48492000D01*
X228771000Y-48490000D01*
X228769000Y-48489000D01*
X228767000Y-48487000D01*
X228765000Y-48485000D01*
X228763000Y-48483000D01*
X228761000Y-48481000D01*
X228760000Y-48479000D01*
X228758000Y-48477000D01*
X228757000Y-48475000D01*
X228755000Y-48473000D01*
X228754000Y-48470000D01*
X228753000Y-48468000D01*
X228752000Y-48465000D01*
X228752000Y-48463000D01*
X228751000Y-48460000D01*
X228751000Y-48458000D01*
X228750000Y-48455000D01*
X228750000Y-48453000D01*
X228750000Y-48450000D01*
X228750000Y-47950000D01*
X228750000Y-47947000D01*
X228750000Y-47945000D01*
X228751000Y-47942000D01*
X228751000Y-47940000D01*
X228752000Y-47937000D01*
X228752000Y-47935000D01*
X228753000Y-47932000D01*
X228754000Y-47930000D01*
X228755000Y-47927000D01*
X228757000Y-47925000D01*
X228758000Y-47923000D01*
X228760000Y-47921000D01*
X228761000Y-47919000D01*
X228763000Y-47917000D01*
X228765000Y-47915000D01*
X228767000Y-47913000D01*
X228769000Y-47911000D01*
X228771000Y-47910000D01*
X228773000Y-47908000D01*
X228775000Y-47907000D01*
X228777000Y-47905000D01*
X228780000Y-47904000D01*
X228782000Y-47903000D01*
X228785000Y-47902000D01*
X228787000Y-47902000D01*
X228790000Y-47901000D01*
X228792000Y-47901000D01*
X228795000Y-47900000D01*
X228797000Y-47900000D01*
X228800000Y-47900000D01*
X229000000Y-47900000D01*
X229003000Y-47900000D01*
X229005000Y-47900000D01*
X229008000Y-47901000D01*
G37*
X229658000Y-44801000D02*
X229660000Y-44801000D01*
X229663000Y-44802000D01*
X229665000Y-44802000D01*
X229668000Y-44803000D01*
X229670000Y-44804000D01*
X229673000Y-44805000D01*
X229675000Y-44807000D01*
X229677000Y-44808000D01*
X229679000Y-44810000D01*
X229681000Y-44811000D01*
X229683000Y-44813000D01*
X229685000Y-44815000D01*
X229687000Y-44817000D01*
X229689000Y-44819000D01*
X229690000Y-44821000D01*
X229692000Y-44823000D01*
X229693000Y-44825000D01*
X229695000Y-44827000D01*
X229696000Y-44830000D01*
X229697000Y-44832000D01*
X229698000Y-44835000D01*
X229698000Y-44837000D01*
X229699000Y-44840000D01*
X229699000Y-44842000D01*
X229700000Y-44845000D01*
X229700000Y-44847000D01*
X229700000Y-44850000D01*
X229700000Y-45350000D01*
X229700000Y-45353000D01*
X229700000Y-45355000D01*
X229699000Y-45358000D01*
X229699000Y-45360000D01*
X229698000Y-45363000D01*
X229698000Y-45365000D01*
X229697000Y-45368000D01*
X229696000Y-45370000D01*
X229695000Y-45373000D01*
X229693000Y-45375000D01*
X229692000Y-45377000D01*
X229690000Y-45379000D01*
X229689000Y-45381000D01*
X229687000Y-45383000D01*
X229685000Y-45385000D01*
X229683000Y-45387000D01*
X229681000Y-45389000D01*
X229679000Y-45390000D01*
X229677000Y-45392000D01*
X229675000Y-45393000D01*
X229673000Y-45395000D01*
X229670000Y-45396000D01*
X229668000Y-45397000D01*
X229665000Y-45398000D01*
X229663000Y-45398000D01*
X229660000Y-45399000D01*
X229658000Y-45399000D01*
X229655000Y-45400000D01*
X229653000Y-45400000D01*
X229650000Y-45400000D01*
X229450000Y-45400000D01*
X229447000Y-45400000D01*
X229445000Y-45400000D01*
X229442000Y-45399000D01*
X229440000Y-45399000D01*
X229437000Y-45398000D01*
X229435000Y-45398000D01*
X229432000Y-45397000D01*
X229430000Y-45396000D01*
X229427000Y-45395000D01*
X229425000Y-45393000D01*
X229423000Y-45392000D01*
X229421000Y-45390000D01*
X229419000Y-45389000D01*
X229417000Y-45387000D01*
X229415000Y-45385000D01*
X229413000Y-45383000D01*
X229411000Y-45381000D01*
X229410000Y-45379000D01*
X229408000Y-45377000D01*
X229407000Y-45375000D01*
X229405000Y-45373000D01*
X229404000Y-45370000D01*
X229403000Y-45368000D01*
X229402000Y-45365000D01*
X229402000Y-45363000D01*
X229401000Y-45360000D01*
X229401000Y-45358000D01*
X229400000Y-45355000D01*
X229400000Y-45353000D01*
X229400000Y-45350000D01*
X229400000Y-44850000D01*
X229400000Y-44847000D01*
X229400000Y-44845000D01*
X229401000Y-44842000D01*
X229401000Y-44840000D01*
X229402000Y-44837000D01*
X229402000Y-44835000D01*
X229403000Y-44832000D01*
X229404000Y-44830000D01*
X229405000Y-44827000D01*
X229407000Y-44825000D01*
X229408000Y-44823000D01*
X229410000Y-44821000D01*
X229411000Y-44819000D01*
X229413000Y-44817000D01*
X229415000Y-44815000D01*
X229417000Y-44813000D01*
X229419000Y-44811000D01*
X229421000Y-44810000D01*
X229423000Y-44808000D01*
X229425000Y-44807000D01*
X229427000Y-44805000D01*
X229430000Y-44804000D01*
X229432000Y-44803000D01*
X229435000Y-44802000D01*
X229437000Y-44802000D01*
X229440000Y-44801000D01*
X229442000Y-44801000D01*
X229445000Y-44800000D01*
X229447000Y-44800000D01*
X229450000Y-44800000D01*
X229650000Y-44800000D01*
X229653000Y-44800000D01*
X229655000Y-44800000D01*
X229658000Y-44801000D01*
G36*
X229658000Y-44801000D02*
G01*
X229660000Y-44801000D01*
X229663000Y-44802000D01*
X229665000Y-44802000D01*
X229668000Y-44803000D01*
X229670000Y-44804000D01*
X229673000Y-44805000D01*
X229675000Y-44807000D01*
X229677000Y-44808000D01*
X229679000Y-44810000D01*
X229681000Y-44811000D01*
X229683000Y-44813000D01*
X229685000Y-44815000D01*
X229687000Y-44817000D01*
X229689000Y-44819000D01*
X229690000Y-44821000D01*
X229692000Y-44823000D01*
X229693000Y-44825000D01*
X229695000Y-44827000D01*
X229696000Y-44830000D01*
X229697000Y-44832000D01*
X229698000Y-44835000D01*
X229698000Y-44837000D01*
X229699000Y-44840000D01*
X229699000Y-44842000D01*
X229700000Y-44845000D01*
X229700000Y-44847000D01*
X229700000Y-44850000D01*
X229700000Y-45350000D01*
X229700000Y-45353000D01*
X229700000Y-45355000D01*
X229699000Y-45358000D01*
X229699000Y-45360000D01*
X229698000Y-45363000D01*
X229698000Y-45365000D01*
X229697000Y-45368000D01*
X229696000Y-45370000D01*
X229695000Y-45373000D01*
X229693000Y-45375000D01*
X229692000Y-45377000D01*
X229690000Y-45379000D01*
X229689000Y-45381000D01*
X229687000Y-45383000D01*
X229685000Y-45385000D01*
X229683000Y-45387000D01*
X229681000Y-45389000D01*
X229679000Y-45390000D01*
X229677000Y-45392000D01*
X229675000Y-45393000D01*
X229673000Y-45395000D01*
X229670000Y-45396000D01*
X229668000Y-45397000D01*
X229665000Y-45398000D01*
X229663000Y-45398000D01*
X229660000Y-45399000D01*
X229658000Y-45399000D01*
X229655000Y-45400000D01*
X229653000Y-45400000D01*
X229650000Y-45400000D01*
X229450000Y-45400000D01*
X229447000Y-45400000D01*
X229445000Y-45400000D01*
X229442000Y-45399000D01*
X229440000Y-45399000D01*
X229437000Y-45398000D01*
X229435000Y-45398000D01*
X229432000Y-45397000D01*
X229430000Y-45396000D01*
X229427000Y-45395000D01*
X229425000Y-45393000D01*
X229423000Y-45392000D01*
X229421000Y-45390000D01*
X229419000Y-45389000D01*
X229417000Y-45387000D01*
X229415000Y-45385000D01*
X229413000Y-45383000D01*
X229411000Y-45381000D01*
X229410000Y-45379000D01*
X229408000Y-45377000D01*
X229407000Y-45375000D01*
X229405000Y-45373000D01*
X229404000Y-45370000D01*
X229403000Y-45368000D01*
X229402000Y-45365000D01*
X229402000Y-45363000D01*
X229401000Y-45360000D01*
X229401000Y-45358000D01*
X229400000Y-45355000D01*
X229400000Y-45353000D01*
X229400000Y-45350000D01*
X229400000Y-44850000D01*
X229400000Y-44847000D01*
X229400000Y-44845000D01*
X229401000Y-44842000D01*
X229401000Y-44840000D01*
X229402000Y-44837000D01*
X229402000Y-44835000D01*
X229403000Y-44832000D01*
X229404000Y-44830000D01*
X229405000Y-44827000D01*
X229407000Y-44825000D01*
X229408000Y-44823000D01*
X229410000Y-44821000D01*
X229411000Y-44819000D01*
X229413000Y-44817000D01*
X229415000Y-44815000D01*
X229417000Y-44813000D01*
X229419000Y-44811000D01*
X229421000Y-44810000D01*
X229423000Y-44808000D01*
X229425000Y-44807000D01*
X229427000Y-44805000D01*
X229430000Y-44804000D01*
X229432000Y-44803000D01*
X229435000Y-44802000D01*
X229437000Y-44802000D01*
X229440000Y-44801000D01*
X229442000Y-44801000D01*
X229445000Y-44800000D01*
X229447000Y-44800000D01*
X229450000Y-44800000D01*
X229650000Y-44800000D01*
X229653000Y-44800000D01*
X229655000Y-44800000D01*
X229658000Y-44801000D01*
G37*
X229658000Y-47901000D02*
X229660000Y-47901000D01*
X229663000Y-47902000D01*
X229665000Y-47902000D01*
X229668000Y-47903000D01*
X229670000Y-47904000D01*
X229673000Y-47905000D01*
X229675000Y-47907000D01*
X229677000Y-47908000D01*
X229679000Y-47910000D01*
X229681000Y-47911000D01*
X229683000Y-47913000D01*
X229685000Y-47915000D01*
X229687000Y-47917000D01*
X229689000Y-47919000D01*
X229690000Y-47921000D01*
X229692000Y-47923000D01*
X229693000Y-47925000D01*
X229695000Y-47927000D01*
X229696000Y-47930000D01*
X229697000Y-47932000D01*
X229698000Y-47935000D01*
X229698000Y-47937000D01*
X229699000Y-47940000D01*
X229699000Y-47942000D01*
X229700000Y-47945000D01*
X229700000Y-47947000D01*
X229700000Y-47950000D01*
X229700000Y-48450000D01*
X229700000Y-48453000D01*
X229700000Y-48455000D01*
X229699000Y-48458000D01*
X229699000Y-48460000D01*
X229698000Y-48463000D01*
X229698000Y-48465000D01*
X229697000Y-48468000D01*
X229696000Y-48470000D01*
X229695000Y-48473000D01*
X229693000Y-48475000D01*
X229692000Y-48477000D01*
X229690000Y-48479000D01*
X229689000Y-48481000D01*
X229687000Y-48483000D01*
X229685000Y-48485000D01*
X229683000Y-48487000D01*
X229681000Y-48489000D01*
X229679000Y-48490000D01*
X229677000Y-48492000D01*
X229675000Y-48493000D01*
X229673000Y-48495000D01*
X229670000Y-48496000D01*
X229668000Y-48497000D01*
X229665000Y-48498000D01*
X229663000Y-48498000D01*
X229660000Y-48499000D01*
X229658000Y-48499000D01*
X229655000Y-48500000D01*
X229653000Y-48500000D01*
X229650000Y-48500000D01*
X229450000Y-48500000D01*
X229447000Y-48500000D01*
X229445000Y-48500000D01*
X229442000Y-48499000D01*
X229440000Y-48499000D01*
X229437000Y-48498000D01*
X229435000Y-48498000D01*
X229432000Y-48497000D01*
X229430000Y-48496000D01*
X229427000Y-48495000D01*
X229425000Y-48493000D01*
X229423000Y-48492000D01*
X229421000Y-48490000D01*
X229419000Y-48489000D01*
X229417000Y-48487000D01*
X229415000Y-48485000D01*
X229413000Y-48483000D01*
X229411000Y-48481000D01*
X229410000Y-48479000D01*
X229408000Y-48477000D01*
X229407000Y-48475000D01*
X229405000Y-48473000D01*
X229404000Y-48470000D01*
X229403000Y-48468000D01*
X229402000Y-48465000D01*
X229402000Y-48463000D01*
X229401000Y-48460000D01*
X229401000Y-48458000D01*
X229400000Y-48455000D01*
X229400000Y-48453000D01*
X229400000Y-48450000D01*
X229400000Y-47950000D01*
X229400000Y-47947000D01*
X229400000Y-47945000D01*
X229401000Y-47942000D01*
X229401000Y-47940000D01*
X229402000Y-47937000D01*
X229402000Y-47935000D01*
X229403000Y-47932000D01*
X229404000Y-47930000D01*
X229405000Y-47927000D01*
X229407000Y-47925000D01*
X229408000Y-47923000D01*
X229410000Y-47921000D01*
X229411000Y-47919000D01*
X229413000Y-47917000D01*
X229415000Y-47915000D01*
X229417000Y-47913000D01*
X229419000Y-47911000D01*
X229421000Y-47910000D01*
X229423000Y-47908000D01*
X229425000Y-47907000D01*
X229427000Y-47905000D01*
X229430000Y-47904000D01*
X229432000Y-47903000D01*
X229435000Y-47902000D01*
X229437000Y-47902000D01*
X229440000Y-47901000D01*
X229442000Y-47901000D01*
X229445000Y-47900000D01*
X229447000Y-47900000D01*
X229450000Y-47900000D01*
X229650000Y-47900000D01*
X229653000Y-47900000D01*
X229655000Y-47900000D01*
X229658000Y-47901000D01*
G36*
X229658000Y-47901000D02*
G01*
X229660000Y-47901000D01*
X229663000Y-47902000D01*
X229665000Y-47902000D01*
X229668000Y-47903000D01*
X229670000Y-47904000D01*
X229673000Y-47905000D01*
X229675000Y-47907000D01*
X229677000Y-47908000D01*
X229679000Y-47910000D01*
X229681000Y-47911000D01*
X229683000Y-47913000D01*
X229685000Y-47915000D01*
X229687000Y-47917000D01*
X229689000Y-47919000D01*
X229690000Y-47921000D01*
X229692000Y-47923000D01*
X229693000Y-47925000D01*
X229695000Y-47927000D01*
X229696000Y-47930000D01*
X229697000Y-47932000D01*
X229698000Y-47935000D01*
X229698000Y-47937000D01*
X229699000Y-47940000D01*
X229699000Y-47942000D01*
X229700000Y-47945000D01*
X229700000Y-47947000D01*
X229700000Y-47950000D01*
X229700000Y-48450000D01*
X229700000Y-48453000D01*
X229700000Y-48455000D01*
X229699000Y-48458000D01*
X229699000Y-48460000D01*
X229698000Y-48463000D01*
X229698000Y-48465000D01*
X229697000Y-48468000D01*
X229696000Y-48470000D01*
X229695000Y-48473000D01*
X229693000Y-48475000D01*
X229692000Y-48477000D01*
X229690000Y-48479000D01*
X229689000Y-48481000D01*
X229687000Y-48483000D01*
X229685000Y-48485000D01*
X229683000Y-48487000D01*
X229681000Y-48489000D01*
X229679000Y-48490000D01*
X229677000Y-48492000D01*
X229675000Y-48493000D01*
X229673000Y-48495000D01*
X229670000Y-48496000D01*
X229668000Y-48497000D01*
X229665000Y-48498000D01*
X229663000Y-48498000D01*
X229660000Y-48499000D01*
X229658000Y-48499000D01*
X229655000Y-48500000D01*
X229653000Y-48500000D01*
X229650000Y-48500000D01*
X229450000Y-48500000D01*
X229447000Y-48500000D01*
X229445000Y-48500000D01*
X229442000Y-48499000D01*
X229440000Y-48499000D01*
X229437000Y-48498000D01*
X229435000Y-48498000D01*
X229432000Y-48497000D01*
X229430000Y-48496000D01*
X229427000Y-48495000D01*
X229425000Y-48493000D01*
X229423000Y-48492000D01*
X229421000Y-48490000D01*
X229419000Y-48489000D01*
X229417000Y-48487000D01*
X229415000Y-48485000D01*
X229413000Y-48483000D01*
X229411000Y-48481000D01*
X229410000Y-48479000D01*
X229408000Y-48477000D01*
X229407000Y-48475000D01*
X229405000Y-48473000D01*
X229404000Y-48470000D01*
X229403000Y-48468000D01*
X229402000Y-48465000D01*
X229402000Y-48463000D01*
X229401000Y-48460000D01*
X229401000Y-48458000D01*
X229400000Y-48455000D01*
X229400000Y-48453000D01*
X229400000Y-48450000D01*
X229400000Y-47950000D01*
X229400000Y-47947000D01*
X229400000Y-47945000D01*
X229401000Y-47942000D01*
X229401000Y-47940000D01*
X229402000Y-47937000D01*
X229402000Y-47935000D01*
X229403000Y-47932000D01*
X229404000Y-47930000D01*
X229405000Y-47927000D01*
X229407000Y-47925000D01*
X229408000Y-47923000D01*
X229410000Y-47921000D01*
X229411000Y-47919000D01*
X229413000Y-47917000D01*
X229415000Y-47915000D01*
X229417000Y-47913000D01*
X229419000Y-47911000D01*
X229421000Y-47910000D01*
X229423000Y-47908000D01*
X229425000Y-47907000D01*
X229427000Y-47905000D01*
X229430000Y-47904000D01*
X229432000Y-47903000D01*
X229435000Y-47902000D01*
X229437000Y-47902000D01*
X229440000Y-47901000D01*
X229442000Y-47901000D01*
X229445000Y-47900000D01*
X229447000Y-47900000D01*
X229450000Y-47900000D01*
X229650000Y-47900000D01*
X229653000Y-47900000D01*
X229655000Y-47900000D01*
X229658000Y-47901000D01*
G37*
X230308000Y-44801000D02*
X230310000Y-44801000D01*
X230313000Y-44802000D01*
X230315000Y-44802000D01*
X230318000Y-44803000D01*
X230320000Y-44804000D01*
X230323000Y-44805000D01*
X230325000Y-44807000D01*
X230327000Y-44808000D01*
X230329000Y-44810000D01*
X230331000Y-44811000D01*
X230333000Y-44813000D01*
X230335000Y-44815000D01*
X230337000Y-44817000D01*
X230339000Y-44819000D01*
X230340000Y-44821000D01*
X230342000Y-44823000D01*
X230343000Y-44825000D01*
X230345000Y-44827000D01*
X230346000Y-44830000D01*
X230347000Y-44832000D01*
X230348000Y-44835000D01*
X230348000Y-44837000D01*
X230349000Y-44840000D01*
X230349000Y-44842000D01*
X230350000Y-44845000D01*
X230350000Y-44847000D01*
X230350000Y-44850000D01*
X230350000Y-45350000D01*
X230350000Y-45353000D01*
X230350000Y-45355000D01*
X230349000Y-45358000D01*
X230349000Y-45360000D01*
X230348000Y-45363000D01*
X230348000Y-45365000D01*
X230347000Y-45368000D01*
X230346000Y-45370000D01*
X230345000Y-45373000D01*
X230343000Y-45375000D01*
X230342000Y-45377000D01*
X230340000Y-45379000D01*
X230339000Y-45381000D01*
X230337000Y-45383000D01*
X230335000Y-45385000D01*
X230333000Y-45387000D01*
X230331000Y-45389000D01*
X230329000Y-45390000D01*
X230327000Y-45392000D01*
X230325000Y-45393000D01*
X230323000Y-45395000D01*
X230320000Y-45396000D01*
X230318000Y-45397000D01*
X230315000Y-45398000D01*
X230313000Y-45398000D01*
X230310000Y-45399000D01*
X230308000Y-45399000D01*
X230305000Y-45400000D01*
X230303000Y-45400000D01*
X230300000Y-45400000D01*
X230100000Y-45400000D01*
X230097000Y-45400000D01*
X230095000Y-45400000D01*
X230092000Y-45399000D01*
X230090000Y-45399000D01*
X230087000Y-45398000D01*
X230085000Y-45398000D01*
X230082000Y-45397000D01*
X230080000Y-45396000D01*
X230077000Y-45395000D01*
X230075000Y-45393000D01*
X230073000Y-45392000D01*
X230071000Y-45390000D01*
X230069000Y-45389000D01*
X230067000Y-45387000D01*
X230065000Y-45385000D01*
X230063000Y-45383000D01*
X230061000Y-45381000D01*
X230060000Y-45379000D01*
X230058000Y-45377000D01*
X230057000Y-45375000D01*
X230055000Y-45373000D01*
X230054000Y-45370000D01*
X230053000Y-45368000D01*
X230052000Y-45365000D01*
X230052000Y-45363000D01*
X230051000Y-45360000D01*
X230051000Y-45358000D01*
X230050000Y-45355000D01*
X230050000Y-45353000D01*
X230050000Y-45350000D01*
X230050000Y-44850000D01*
X230050000Y-44847000D01*
X230050000Y-44845000D01*
X230051000Y-44842000D01*
X230051000Y-44840000D01*
X230052000Y-44837000D01*
X230052000Y-44835000D01*
X230053000Y-44832000D01*
X230054000Y-44830000D01*
X230055000Y-44827000D01*
X230057000Y-44825000D01*
X230058000Y-44823000D01*
X230060000Y-44821000D01*
X230061000Y-44819000D01*
X230063000Y-44817000D01*
X230065000Y-44815000D01*
X230067000Y-44813000D01*
X230069000Y-44811000D01*
X230071000Y-44810000D01*
X230073000Y-44808000D01*
X230075000Y-44807000D01*
X230077000Y-44805000D01*
X230080000Y-44804000D01*
X230082000Y-44803000D01*
X230085000Y-44802000D01*
X230087000Y-44802000D01*
X230090000Y-44801000D01*
X230092000Y-44801000D01*
X230095000Y-44800000D01*
X230097000Y-44800000D01*
X230100000Y-44800000D01*
X230300000Y-44800000D01*
X230303000Y-44800000D01*
X230305000Y-44800000D01*
X230308000Y-44801000D01*
G36*
X230308000Y-44801000D02*
G01*
X230310000Y-44801000D01*
X230313000Y-44802000D01*
X230315000Y-44802000D01*
X230318000Y-44803000D01*
X230320000Y-44804000D01*
X230323000Y-44805000D01*
X230325000Y-44807000D01*
X230327000Y-44808000D01*
X230329000Y-44810000D01*
X230331000Y-44811000D01*
X230333000Y-44813000D01*
X230335000Y-44815000D01*
X230337000Y-44817000D01*
X230339000Y-44819000D01*
X230340000Y-44821000D01*
X230342000Y-44823000D01*
X230343000Y-44825000D01*
X230345000Y-44827000D01*
X230346000Y-44830000D01*
X230347000Y-44832000D01*
X230348000Y-44835000D01*
X230348000Y-44837000D01*
X230349000Y-44840000D01*
X230349000Y-44842000D01*
X230350000Y-44845000D01*
X230350000Y-44847000D01*
X230350000Y-44850000D01*
X230350000Y-45350000D01*
X230350000Y-45353000D01*
X230350000Y-45355000D01*
X230349000Y-45358000D01*
X230349000Y-45360000D01*
X230348000Y-45363000D01*
X230348000Y-45365000D01*
X230347000Y-45368000D01*
X230346000Y-45370000D01*
X230345000Y-45373000D01*
X230343000Y-45375000D01*
X230342000Y-45377000D01*
X230340000Y-45379000D01*
X230339000Y-45381000D01*
X230337000Y-45383000D01*
X230335000Y-45385000D01*
X230333000Y-45387000D01*
X230331000Y-45389000D01*
X230329000Y-45390000D01*
X230327000Y-45392000D01*
X230325000Y-45393000D01*
X230323000Y-45395000D01*
X230320000Y-45396000D01*
X230318000Y-45397000D01*
X230315000Y-45398000D01*
X230313000Y-45398000D01*
X230310000Y-45399000D01*
X230308000Y-45399000D01*
X230305000Y-45400000D01*
X230303000Y-45400000D01*
X230300000Y-45400000D01*
X230100000Y-45400000D01*
X230097000Y-45400000D01*
X230095000Y-45400000D01*
X230092000Y-45399000D01*
X230090000Y-45399000D01*
X230087000Y-45398000D01*
X230085000Y-45398000D01*
X230082000Y-45397000D01*
X230080000Y-45396000D01*
X230077000Y-45395000D01*
X230075000Y-45393000D01*
X230073000Y-45392000D01*
X230071000Y-45390000D01*
X230069000Y-45389000D01*
X230067000Y-45387000D01*
X230065000Y-45385000D01*
X230063000Y-45383000D01*
X230061000Y-45381000D01*
X230060000Y-45379000D01*
X230058000Y-45377000D01*
X230057000Y-45375000D01*
X230055000Y-45373000D01*
X230054000Y-45370000D01*
X230053000Y-45368000D01*
X230052000Y-45365000D01*
X230052000Y-45363000D01*
X230051000Y-45360000D01*
X230051000Y-45358000D01*
X230050000Y-45355000D01*
X230050000Y-45353000D01*
X230050000Y-45350000D01*
X230050000Y-44850000D01*
X230050000Y-44847000D01*
X230050000Y-44845000D01*
X230051000Y-44842000D01*
X230051000Y-44840000D01*
X230052000Y-44837000D01*
X230052000Y-44835000D01*
X230053000Y-44832000D01*
X230054000Y-44830000D01*
X230055000Y-44827000D01*
X230057000Y-44825000D01*
X230058000Y-44823000D01*
X230060000Y-44821000D01*
X230061000Y-44819000D01*
X230063000Y-44817000D01*
X230065000Y-44815000D01*
X230067000Y-44813000D01*
X230069000Y-44811000D01*
X230071000Y-44810000D01*
X230073000Y-44808000D01*
X230075000Y-44807000D01*
X230077000Y-44805000D01*
X230080000Y-44804000D01*
X230082000Y-44803000D01*
X230085000Y-44802000D01*
X230087000Y-44802000D01*
X230090000Y-44801000D01*
X230092000Y-44801000D01*
X230095000Y-44800000D01*
X230097000Y-44800000D01*
X230100000Y-44800000D01*
X230300000Y-44800000D01*
X230303000Y-44800000D01*
X230305000Y-44800000D01*
X230308000Y-44801000D01*
G37*
X230308000Y-47901000D02*
X230310000Y-47901000D01*
X230313000Y-47902000D01*
X230315000Y-47902000D01*
X230318000Y-47903000D01*
X230320000Y-47904000D01*
X230323000Y-47905000D01*
X230325000Y-47907000D01*
X230327000Y-47908000D01*
X230329000Y-47910000D01*
X230331000Y-47911000D01*
X230333000Y-47913000D01*
X230335000Y-47915000D01*
X230337000Y-47917000D01*
X230339000Y-47919000D01*
X230340000Y-47921000D01*
X230342000Y-47923000D01*
X230343000Y-47925000D01*
X230345000Y-47927000D01*
X230346000Y-47930000D01*
X230347000Y-47932000D01*
X230348000Y-47935000D01*
X230348000Y-47937000D01*
X230349000Y-47940000D01*
X230349000Y-47942000D01*
X230350000Y-47945000D01*
X230350000Y-47947000D01*
X230350000Y-47950000D01*
X230350000Y-48450000D01*
X230350000Y-48453000D01*
X230350000Y-48455000D01*
X230349000Y-48458000D01*
X230349000Y-48460000D01*
X230348000Y-48463000D01*
X230348000Y-48465000D01*
X230347000Y-48468000D01*
X230346000Y-48470000D01*
X230345000Y-48473000D01*
X230343000Y-48475000D01*
X230342000Y-48477000D01*
X230340000Y-48479000D01*
X230339000Y-48481000D01*
X230337000Y-48483000D01*
X230335000Y-48485000D01*
X230333000Y-48487000D01*
X230331000Y-48489000D01*
X230329000Y-48490000D01*
X230327000Y-48492000D01*
X230325000Y-48493000D01*
X230323000Y-48495000D01*
X230320000Y-48496000D01*
X230318000Y-48497000D01*
X230315000Y-48498000D01*
X230313000Y-48498000D01*
X230310000Y-48499000D01*
X230308000Y-48499000D01*
X230305000Y-48500000D01*
X230303000Y-48500000D01*
X230300000Y-48500000D01*
X230100000Y-48500000D01*
X230097000Y-48500000D01*
X230095000Y-48500000D01*
X230092000Y-48499000D01*
X230090000Y-48499000D01*
X230087000Y-48498000D01*
X230085000Y-48498000D01*
X230082000Y-48497000D01*
X230080000Y-48496000D01*
X230077000Y-48495000D01*
X230075000Y-48493000D01*
X230073000Y-48492000D01*
X230071000Y-48490000D01*
X230069000Y-48489000D01*
X230067000Y-48487000D01*
X230065000Y-48485000D01*
X230063000Y-48483000D01*
X230061000Y-48481000D01*
X230060000Y-48479000D01*
X230058000Y-48477000D01*
X230057000Y-48475000D01*
X230055000Y-48473000D01*
X230054000Y-48470000D01*
X230053000Y-48468000D01*
X230052000Y-48465000D01*
X230052000Y-48463000D01*
X230051000Y-48460000D01*
X230051000Y-48458000D01*
X230050000Y-48455000D01*
X230050000Y-48453000D01*
X230050000Y-48450000D01*
X230050000Y-47950000D01*
X230050000Y-47947000D01*
X230050000Y-47945000D01*
X230051000Y-47942000D01*
X230051000Y-47940000D01*
X230052000Y-47937000D01*
X230052000Y-47935000D01*
X230053000Y-47932000D01*
X230054000Y-47930000D01*
X230055000Y-47927000D01*
X230057000Y-47925000D01*
X230058000Y-47923000D01*
X230060000Y-47921000D01*
X230061000Y-47919000D01*
X230063000Y-47917000D01*
X230065000Y-47915000D01*
X230067000Y-47913000D01*
X230069000Y-47911000D01*
X230071000Y-47910000D01*
X230073000Y-47908000D01*
X230075000Y-47907000D01*
X230077000Y-47905000D01*
X230080000Y-47904000D01*
X230082000Y-47903000D01*
X230085000Y-47902000D01*
X230087000Y-47902000D01*
X230090000Y-47901000D01*
X230092000Y-47901000D01*
X230095000Y-47900000D01*
X230097000Y-47900000D01*
X230100000Y-47900000D01*
X230300000Y-47900000D01*
X230303000Y-47900000D01*
X230305000Y-47900000D01*
X230308000Y-47901000D01*
G36*
X230308000Y-47901000D02*
G01*
X230310000Y-47901000D01*
X230313000Y-47902000D01*
X230315000Y-47902000D01*
X230318000Y-47903000D01*
X230320000Y-47904000D01*
X230323000Y-47905000D01*
X230325000Y-47907000D01*
X230327000Y-47908000D01*
X230329000Y-47910000D01*
X230331000Y-47911000D01*
X230333000Y-47913000D01*
X230335000Y-47915000D01*
X230337000Y-47917000D01*
X230339000Y-47919000D01*
X230340000Y-47921000D01*
X230342000Y-47923000D01*
X230343000Y-47925000D01*
X230345000Y-47927000D01*
X230346000Y-47930000D01*
X230347000Y-47932000D01*
X230348000Y-47935000D01*
X230348000Y-47937000D01*
X230349000Y-47940000D01*
X230349000Y-47942000D01*
X230350000Y-47945000D01*
X230350000Y-47947000D01*
X230350000Y-47950000D01*
X230350000Y-48450000D01*
X230350000Y-48453000D01*
X230350000Y-48455000D01*
X230349000Y-48458000D01*
X230349000Y-48460000D01*
X230348000Y-48463000D01*
X230348000Y-48465000D01*
X230347000Y-48468000D01*
X230346000Y-48470000D01*
X230345000Y-48473000D01*
X230343000Y-48475000D01*
X230342000Y-48477000D01*
X230340000Y-48479000D01*
X230339000Y-48481000D01*
X230337000Y-48483000D01*
X230335000Y-48485000D01*
X230333000Y-48487000D01*
X230331000Y-48489000D01*
X230329000Y-48490000D01*
X230327000Y-48492000D01*
X230325000Y-48493000D01*
X230323000Y-48495000D01*
X230320000Y-48496000D01*
X230318000Y-48497000D01*
X230315000Y-48498000D01*
X230313000Y-48498000D01*
X230310000Y-48499000D01*
X230308000Y-48499000D01*
X230305000Y-48500000D01*
X230303000Y-48500000D01*
X230300000Y-48500000D01*
X230100000Y-48500000D01*
X230097000Y-48500000D01*
X230095000Y-48500000D01*
X230092000Y-48499000D01*
X230090000Y-48499000D01*
X230087000Y-48498000D01*
X230085000Y-48498000D01*
X230082000Y-48497000D01*
X230080000Y-48496000D01*
X230077000Y-48495000D01*
X230075000Y-48493000D01*
X230073000Y-48492000D01*
X230071000Y-48490000D01*
X230069000Y-48489000D01*
X230067000Y-48487000D01*
X230065000Y-48485000D01*
X230063000Y-48483000D01*
X230061000Y-48481000D01*
X230060000Y-48479000D01*
X230058000Y-48477000D01*
X230057000Y-48475000D01*
X230055000Y-48473000D01*
X230054000Y-48470000D01*
X230053000Y-48468000D01*
X230052000Y-48465000D01*
X230052000Y-48463000D01*
X230051000Y-48460000D01*
X230051000Y-48458000D01*
X230050000Y-48455000D01*
X230050000Y-48453000D01*
X230050000Y-48450000D01*
X230050000Y-47950000D01*
X230050000Y-47947000D01*
X230050000Y-47945000D01*
X230051000Y-47942000D01*
X230051000Y-47940000D01*
X230052000Y-47937000D01*
X230052000Y-47935000D01*
X230053000Y-47932000D01*
X230054000Y-47930000D01*
X230055000Y-47927000D01*
X230057000Y-47925000D01*
X230058000Y-47923000D01*
X230060000Y-47921000D01*
X230061000Y-47919000D01*
X230063000Y-47917000D01*
X230065000Y-47915000D01*
X230067000Y-47913000D01*
X230069000Y-47911000D01*
X230071000Y-47910000D01*
X230073000Y-47908000D01*
X230075000Y-47907000D01*
X230077000Y-47905000D01*
X230080000Y-47904000D01*
X230082000Y-47903000D01*
X230085000Y-47902000D01*
X230087000Y-47902000D01*
X230090000Y-47901000D01*
X230092000Y-47901000D01*
X230095000Y-47900000D01*
X230097000Y-47900000D01*
X230100000Y-47900000D01*
X230300000Y-47900000D01*
X230303000Y-47900000D01*
X230305000Y-47900000D01*
X230308000Y-47901000D01*
G37*
X229078000Y-45601000D02*
X229080000Y-45601000D01*
X229083000Y-45601000D01*
X229085000Y-45602000D01*
X229088000Y-45602000D01*
X229090000Y-45603000D01*
X229093000Y-45604000D01*
X229095000Y-45605000D01*
X229098000Y-45606000D01*
X229100000Y-45607000D01*
X229102000Y-45609000D01*
X229104000Y-45610000D01*
X229106000Y-45612000D01*
X229108000Y-45613000D01*
X229110000Y-45615000D01*
X229112000Y-45617000D01*
X229114000Y-45619000D01*
X229115000Y-45621000D01*
X229117000Y-45623000D01*
X229118000Y-45625000D01*
X229120000Y-45628000D01*
X229121000Y-45630000D01*
X229122000Y-45633000D01*
X229123000Y-45635000D01*
X229123000Y-45638000D01*
X229124000Y-45640000D01*
X229124000Y-45643000D01*
X229125000Y-45645000D01*
X229125000Y-45648000D01*
X229125000Y-45650000D01*
X229125000Y-45650500D01*
X229125000Y-46255000D01*
X229125000Y-46258000D01*
X229125000Y-46261000D01*
X229124000Y-46263000D01*
X229124000Y-46266000D01*
X229123000Y-46268000D01*
X229123000Y-46271000D01*
X229122000Y-46273000D01*
X229121000Y-46276000D01*
X229120000Y-46278000D01*
X229118000Y-46281000D01*
X229117000Y-46283000D01*
X229115000Y-46285000D01*
X229114000Y-46287000D01*
X229112000Y-46289000D01*
X229110000Y-46291000D01*
X229108000Y-46293000D01*
X229106000Y-46294000D01*
X229104000Y-46296000D01*
X229102000Y-46297000D01*
X229100000Y-46299000D01*
X229098000Y-46300000D01*
X229095000Y-46301000D01*
X229093000Y-46302000D01*
X229090000Y-46303000D01*
X229088000Y-46304000D01*
X229085000Y-46304000D01*
X229083000Y-46305000D01*
X229080000Y-46305000D01*
X229078000Y-46305000D01*
X229075000Y-46306000D01*
X228050000Y-46306000D01*
X228047000Y-46305000D01*
X228045000Y-46305000D01*
X228042000Y-46305000D01*
X228040000Y-46304000D01*
X228037000Y-46304000D01*
X228035000Y-46303000D01*
X228032000Y-46302000D01*
X228030000Y-46301000D01*
X228027000Y-46300000D01*
X228025000Y-46299000D01*
X228023000Y-46297000D01*
X228021000Y-46296000D01*
X228019000Y-46294000D01*
X228017000Y-46293000D01*
X228015000Y-46291000D01*
X228013000Y-46289000D01*
X228011000Y-46287000D01*
X228010000Y-46285000D01*
X228008000Y-46283000D01*
X228007000Y-46281000D01*
X228005000Y-46278000D01*
X228004000Y-46276000D01*
X228003000Y-46273000D01*
X228002000Y-46271000D01*
X228002000Y-46268000D01*
X228001000Y-46266000D01*
X228001000Y-46263000D01*
X228000000Y-46261000D01*
X228000000Y-46258000D01*
X228000000Y-46255000D01*
X228000000Y-45650000D01*
X228000000Y-45648000D01*
X228000000Y-45645000D01*
X228001000Y-45643000D01*
X228001000Y-45640000D01*
X228002000Y-45638000D01*
X228002000Y-45635000D01*
X228003000Y-45633000D01*
X228004000Y-45630000D01*
X228005000Y-45628000D01*
X228007000Y-45625000D01*
X228008000Y-45623000D01*
X228010000Y-45621000D01*
X228011000Y-45619000D01*
X228013000Y-45617000D01*
X228015000Y-45615000D01*
X228017000Y-45613000D01*
X228019000Y-45612000D01*
X228021000Y-45610000D01*
X228023000Y-45609000D01*
X228025000Y-45607000D01*
X228027000Y-45606000D01*
X228030000Y-45605000D01*
X228032000Y-45604000D01*
X228035000Y-45603000D01*
X228037000Y-45602000D01*
X228040000Y-45602000D01*
X228042000Y-45601000D01*
X228045000Y-45601000D01*
X228047000Y-45601000D01*
X228050000Y-45600000D01*
X229075000Y-45600000D01*
X229078000Y-45601000D01*
G36*
X229078000Y-45601000D02*
G01*
X229080000Y-45601000D01*
X229083000Y-45601000D01*
X229085000Y-45602000D01*
X229088000Y-45602000D01*
X229090000Y-45603000D01*
X229093000Y-45604000D01*
X229095000Y-45605000D01*
X229098000Y-45606000D01*
X229100000Y-45607000D01*
X229102000Y-45609000D01*
X229104000Y-45610000D01*
X229106000Y-45612000D01*
X229108000Y-45613000D01*
X229110000Y-45615000D01*
X229112000Y-45617000D01*
X229114000Y-45619000D01*
X229115000Y-45621000D01*
X229117000Y-45623000D01*
X229118000Y-45625000D01*
X229120000Y-45628000D01*
X229121000Y-45630000D01*
X229122000Y-45633000D01*
X229123000Y-45635000D01*
X229123000Y-45638000D01*
X229124000Y-45640000D01*
X229124000Y-45643000D01*
X229125000Y-45645000D01*
X229125000Y-45648000D01*
X229125000Y-45650000D01*
X229125000Y-45650500D01*
X229125000Y-46255000D01*
X229125000Y-46258000D01*
X229125000Y-46261000D01*
X229124000Y-46263000D01*
X229124000Y-46266000D01*
X229123000Y-46268000D01*
X229123000Y-46271000D01*
X229122000Y-46273000D01*
X229121000Y-46276000D01*
X229120000Y-46278000D01*
X229118000Y-46281000D01*
X229117000Y-46283000D01*
X229115000Y-46285000D01*
X229114000Y-46287000D01*
X229112000Y-46289000D01*
X229110000Y-46291000D01*
X229108000Y-46293000D01*
X229106000Y-46294000D01*
X229104000Y-46296000D01*
X229102000Y-46297000D01*
X229100000Y-46299000D01*
X229098000Y-46300000D01*
X229095000Y-46301000D01*
X229093000Y-46302000D01*
X229090000Y-46303000D01*
X229088000Y-46304000D01*
X229085000Y-46304000D01*
X229083000Y-46305000D01*
X229080000Y-46305000D01*
X229078000Y-46305000D01*
X229075000Y-46306000D01*
X228050000Y-46306000D01*
X228047000Y-46305000D01*
X228045000Y-46305000D01*
X228042000Y-46305000D01*
X228040000Y-46304000D01*
X228037000Y-46304000D01*
X228035000Y-46303000D01*
X228032000Y-46302000D01*
X228030000Y-46301000D01*
X228027000Y-46300000D01*
X228025000Y-46299000D01*
X228023000Y-46297000D01*
X228021000Y-46296000D01*
X228019000Y-46294000D01*
X228017000Y-46293000D01*
X228015000Y-46291000D01*
X228013000Y-46289000D01*
X228011000Y-46287000D01*
X228010000Y-46285000D01*
X228008000Y-46283000D01*
X228007000Y-46281000D01*
X228005000Y-46278000D01*
X228004000Y-46276000D01*
X228003000Y-46273000D01*
X228002000Y-46271000D01*
X228002000Y-46268000D01*
X228001000Y-46266000D01*
X228001000Y-46263000D01*
X228000000Y-46261000D01*
X228000000Y-46258000D01*
X228000000Y-46255000D01*
X228000000Y-45650000D01*
X228000000Y-45648000D01*
X228000000Y-45645000D01*
X228001000Y-45643000D01*
X228001000Y-45640000D01*
X228002000Y-45638000D01*
X228002000Y-45635000D01*
X228003000Y-45633000D01*
X228004000Y-45630000D01*
X228005000Y-45628000D01*
X228007000Y-45625000D01*
X228008000Y-45623000D01*
X228010000Y-45621000D01*
X228011000Y-45619000D01*
X228013000Y-45617000D01*
X228015000Y-45615000D01*
X228017000Y-45613000D01*
X228019000Y-45612000D01*
X228021000Y-45610000D01*
X228023000Y-45609000D01*
X228025000Y-45607000D01*
X228027000Y-45606000D01*
X228030000Y-45605000D01*
X228032000Y-45604000D01*
X228035000Y-45603000D01*
X228037000Y-45602000D01*
X228040000Y-45602000D01*
X228042000Y-45601000D01*
X228045000Y-45601000D01*
X228047000Y-45601000D01*
X228050000Y-45600000D01*
X229075000Y-45600000D01*
X229078000Y-45601000D01*
G37*
X229085000Y-46507000D02*
X229088000Y-46507000D01*
X229090000Y-46508000D01*
X229093000Y-46509000D01*
X229095000Y-46510000D01*
X229098000Y-46511000D01*
X229100000Y-46512000D01*
X229102000Y-46514000D01*
X229104000Y-46515000D01*
X229106000Y-46517000D01*
X229108000Y-46518000D01*
X229110000Y-46520000D01*
X229112000Y-46522000D01*
X229114000Y-46524000D01*
X229115000Y-46526000D01*
X229117000Y-46528000D01*
X229118000Y-46530000D01*
X229120000Y-46533000D01*
X229121000Y-46535000D01*
X229122000Y-46538000D01*
X229123000Y-46540000D01*
X229123000Y-46543000D01*
X229124000Y-46545000D01*
X229124000Y-46548000D01*
X229125000Y-46550000D01*
X229125000Y-46553000D01*
X229125000Y-46555000D01*
X229125000Y-46555500D01*
X229125000Y-47160000D01*
X229125000Y-47163000D01*
X229125000Y-47166000D01*
X229124000Y-47168000D01*
X229124000Y-47171000D01*
X229123000Y-47173000D01*
X229123000Y-47176000D01*
X229122000Y-47178000D01*
X229121000Y-47181000D01*
X229120000Y-47183000D01*
X229118000Y-47185000D01*
X229117000Y-47188000D01*
X229115000Y-47190000D01*
X229114000Y-47192000D01*
X229112000Y-47194000D01*
X229110000Y-47196000D01*
X229108000Y-47198000D01*
X229106000Y-47199000D01*
X229104000Y-47201000D01*
X229102000Y-47202000D01*
X229100000Y-47204000D01*
X229098000Y-47205000D01*
X229095000Y-47206000D01*
X229093000Y-47207000D01*
X229090000Y-47208000D01*
X229088000Y-47209000D01*
X229085000Y-47209000D01*
X229083000Y-47210000D01*
X229080000Y-47210000D01*
X229078000Y-47210000D01*
X229075000Y-47210000D01*
X228050000Y-47210000D01*
X228047000Y-47210000D01*
X228045000Y-47210000D01*
X228042000Y-47210000D01*
X228040000Y-47209000D01*
X228037000Y-47209000D01*
X228035000Y-47208000D01*
X228032000Y-47207000D01*
X228030000Y-47206000D01*
X228027000Y-47205000D01*
X228025000Y-47204000D01*
X228023000Y-47202000D01*
X228021000Y-47201000D01*
X228019000Y-47199000D01*
X228017000Y-47198000D01*
X228015000Y-47196000D01*
X228013000Y-47194000D01*
X228011000Y-47192000D01*
X228010000Y-47190000D01*
X228008000Y-47188000D01*
X228007000Y-47185000D01*
X228005000Y-47183000D01*
X228004000Y-47181000D01*
X228003000Y-47178000D01*
X228002000Y-47176000D01*
X228002000Y-47173000D01*
X228001000Y-47171000D01*
X228001000Y-47168000D01*
X228000000Y-47166000D01*
X228000000Y-47163000D01*
X228000000Y-47160000D01*
X228000000Y-46555000D01*
X228000000Y-46553000D01*
X228000000Y-46550000D01*
X228001000Y-46548000D01*
X228001000Y-46545000D01*
X228002000Y-46543000D01*
X228002000Y-46540000D01*
X228003000Y-46538000D01*
X228004000Y-46535000D01*
X228005000Y-46533000D01*
X228007000Y-46531000D01*
X228008000Y-46528000D01*
X228010000Y-46526000D01*
X228011000Y-46524000D01*
X228013000Y-46522000D01*
X228015000Y-46520000D01*
X228017000Y-46518000D01*
X228019000Y-46517000D01*
X228021000Y-46515000D01*
X228023000Y-46514000D01*
X228025000Y-46512000D01*
X228027000Y-46511000D01*
X228030000Y-46510000D01*
X228032000Y-46509000D01*
X228035000Y-46508000D01*
X228037000Y-46507000D01*
X228040000Y-46507000D01*
X228042000Y-46506000D01*
X228045000Y-46506000D01*
X228047000Y-46506000D01*
X228050000Y-46506000D01*
X229075000Y-46506000D01*
X229078000Y-46506000D01*
X229080000Y-46506000D01*
X229083000Y-46506000D01*
X229085000Y-46507000D01*
G36*
X229085000Y-46507000D02*
G01*
X229088000Y-46507000D01*
X229090000Y-46508000D01*
X229093000Y-46509000D01*
X229095000Y-46510000D01*
X229098000Y-46511000D01*
X229100000Y-46512000D01*
X229102000Y-46514000D01*
X229104000Y-46515000D01*
X229106000Y-46517000D01*
X229108000Y-46518000D01*
X229110000Y-46520000D01*
X229112000Y-46522000D01*
X229114000Y-46524000D01*
X229115000Y-46526000D01*
X229117000Y-46528000D01*
X229118000Y-46530000D01*
X229120000Y-46533000D01*
X229121000Y-46535000D01*
X229122000Y-46538000D01*
X229123000Y-46540000D01*
X229123000Y-46543000D01*
X229124000Y-46545000D01*
X229124000Y-46548000D01*
X229125000Y-46550000D01*
X229125000Y-46553000D01*
X229125000Y-46555000D01*
X229125000Y-46555500D01*
X229125000Y-47160000D01*
X229125000Y-47163000D01*
X229125000Y-47166000D01*
X229124000Y-47168000D01*
X229124000Y-47171000D01*
X229123000Y-47173000D01*
X229123000Y-47176000D01*
X229122000Y-47178000D01*
X229121000Y-47181000D01*
X229120000Y-47183000D01*
X229118000Y-47185000D01*
X229117000Y-47188000D01*
X229115000Y-47190000D01*
X229114000Y-47192000D01*
X229112000Y-47194000D01*
X229110000Y-47196000D01*
X229108000Y-47198000D01*
X229106000Y-47199000D01*
X229104000Y-47201000D01*
X229102000Y-47202000D01*
X229100000Y-47204000D01*
X229098000Y-47205000D01*
X229095000Y-47206000D01*
X229093000Y-47207000D01*
X229090000Y-47208000D01*
X229088000Y-47209000D01*
X229085000Y-47209000D01*
X229083000Y-47210000D01*
X229080000Y-47210000D01*
X229078000Y-47210000D01*
X229075000Y-47210000D01*
X228050000Y-47210000D01*
X228047000Y-47210000D01*
X228045000Y-47210000D01*
X228042000Y-47210000D01*
X228040000Y-47209000D01*
X228037000Y-47209000D01*
X228035000Y-47208000D01*
X228032000Y-47207000D01*
X228030000Y-47206000D01*
X228027000Y-47205000D01*
X228025000Y-47204000D01*
X228023000Y-47202000D01*
X228021000Y-47201000D01*
X228019000Y-47199000D01*
X228017000Y-47198000D01*
X228015000Y-47196000D01*
X228013000Y-47194000D01*
X228011000Y-47192000D01*
X228010000Y-47190000D01*
X228008000Y-47188000D01*
X228007000Y-47185000D01*
X228005000Y-47183000D01*
X228004000Y-47181000D01*
X228003000Y-47178000D01*
X228002000Y-47176000D01*
X228002000Y-47173000D01*
X228001000Y-47171000D01*
X228001000Y-47168000D01*
X228000000Y-47166000D01*
X228000000Y-47163000D01*
X228000000Y-47160000D01*
X228000000Y-46555000D01*
X228000000Y-46553000D01*
X228000000Y-46550000D01*
X228001000Y-46548000D01*
X228001000Y-46545000D01*
X228002000Y-46543000D01*
X228002000Y-46540000D01*
X228003000Y-46538000D01*
X228004000Y-46535000D01*
X228005000Y-46533000D01*
X228007000Y-46531000D01*
X228008000Y-46528000D01*
X228010000Y-46526000D01*
X228011000Y-46524000D01*
X228013000Y-46522000D01*
X228015000Y-46520000D01*
X228017000Y-46518000D01*
X228019000Y-46517000D01*
X228021000Y-46515000D01*
X228023000Y-46514000D01*
X228025000Y-46512000D01*
X228027000Y-46511000D01*
X228030000Y-46510000D01*
X228032000Y-46509000D01*
X228035000Y-46508000D01*
X228037000Y-46507000D01*
X228040000Y-46507000D01*
X228042000Y-46506000D01*
X228045000Y-46506000D01*
X228047000Y-46506000D01*
X228050000Y-46506000D01*
X229075000Y-46506000D01*
X229078000Y-46506000D01*
X229080000Y-46506000D01*
X229083000Y-46506000D01*
X229085000Y-46507000D01*
G37*
X230403000Y-45601000D02*
X230405000Y-45601000D01*
X230408000Y-45601000D01*
X230410000Y-45602000D01*
X230413000Y-45602000D01*
X230415000Y-45603000D01*
X230418000Y-45604000D01*
X230420000Y-45605000D01*
X230423000Y-45606000D01*
X230425000Y-45607000D01*
X230427000Y-45609000D01*
X230429000Y-45610000D01*
X230431000Y-45612000D01*
X230433000Y-45613000D01*
X230435000Y-45615000D01*
X230437000Y-45617000D01*
X230439000Y-45619000D01*
X230440000Y-45621000D01*
X230442000Y-45623000D01*
X230443000Y-45625000D01*
X230445000Y-45628000D01*
X230446000Y-45630000D01*
X230447000Y-45633000D01*
X230448000Y-45635000D01*
X230448000Y-45638000D01*
X230449000Y-45640000D01*
X230449000Y-45643000D01*
X230450000Y-45645000D01*
X230450000Y-45648000D01*
X230450000Y-45650000D01*
X230450000Y-45650500D01*
X230450000Y-46255000D01*
X230450000Y-46258000D01*
X230450000Y-46261000D01*
X230449000Y-46263000D01*
X230449000Y-46266000D01*
X230448000Y-46268000D01*
X230448000Y-46271000D01*
X230447000Y-46273000D01*
X230446000Y-46276000D01*
X230445000Y-46278000D01*
X230443000Y-46281000D01*
X230442000Y-46283000D01*
X230440000Y-46285000D01*
X230439000Y-46287000D01*
X230437000Y-46289000D01*
X230435000Y-46291000D01*
X230433000Y-46293000D01*
X230431000Y-46294000D01*
X230429000Y-46296000D01*
X230427000Y-46297000D01*
X230425000Y-46299000D01*
X230423000Y-46300000D01*
X230420000Y-46301000D01*
X230418000Y-46302000D01*
X230415000Y-46303000D01*
X230413000Y-46304000D01*
X230410000Y-46304000D01*
X230408000Y-46305000D01*
X230405000Y-46305000D01*
X230403000Y-46305000D01*
X230400000Y-46306000D01*
X229375000Y-46306000D01*
X229372000Y-46305000D01*
X229370000Y-46305000D01*
X229367000Y-46305000D01*
X229365000Y-46304000D01*
X229362000Y-46304000D01*
X229360000Y-46303000D01*
X229357000Y-46302000D01*
X229355000Y-46301000D01*
X229352000Y-46300000D01*
X229350000Y-46299000D01*
X229348000Y-46297000D01*
X229346000Y-46296000D01*
X229344000Y-46294000D01*
X229342000Y-46293000D01*
X229340000Y-46291000D01*
X229338000Y-46289000D01*
X229336000Y-46287000D01*
X229335000Y-46285000D01*
X229333000Y-46283000D01*
X229332000Y-46281000D01*
X229330000Y-46278000D01*
X229329000Y-46276000D01*
X229328000Y-46273000D01*
X229327000Y-46271000D01*
X229327000Y-46268000D01*
X229326000Y-46266000D01*
X229326000Y-46263000D01*
X229325000Y-46261000D01*
X229325000Y-46258000D01*
X229325000Y-46255000D01*
X229325000Y-45650000D01*
X229325000Y-45648000D01*
X229325000Y-45645000D01*
X229326000Y-45643000D01*
X229326000Y-45640000D01*
X229327000Y-45638000D01*
X229327000Y-45635000D01*
X229328000Y-45633000D01*
X229329000Y-45630000D01*
X229330000Y-45628000D01*
X229332000Y-45625000D01*
X229333000Y-45623000D01*
X229335000Y-45621000D01*
X229336000Y-45619000D01*
X229338000Y-45617000D01*
X229340000Y-45615000D01*
X229342000Y-45613000D01*
X229344000Y-45612000D01*
X229346000Y-45610000D01*
X229348000Y-45609000D01*
X229350000Y-45607000D01*
X229352000Y-45606000D01*
X229355000Y-45605000D01*
X229357000Y-45604000D01*
X229360000Y-45603000D01*
X229362000Y-45602000D01*
X229365000Y-45602000D01*
X229367000Y-45601000D01*
X229370000Y-45601000D01*
X229372000Y-45601000D01*
X229375000Y-45600000D01*
X230400000Y-45600000D01*
X230403000Y-45601000D01*
G36*
X230403000Y-45601000D02*
G01*
X230405000Y-45601000D01*
X230408000Y-45601000D01*
X230410000Y-45602000D01*
X230413000Y-45602000D01*
X230415000Y-45603000D01*
X230418000Y-45604000D01*
X230420000Y-45605000D01*
X230423000Y-45606000D01*
X230425000Y-45607000D01*
X230427000Y-45609000D01*
X230429000Y-45610000D01*
X230431000Y-45612000D01*
X230433000Y-45613000D01*
X230435000Y-45615000D01*
X230437000Y-45617000D01*
X230439000Y-45619000D01*
X230440000Y-45621000D01*
X230442000Y-45623000D01*
X230443000Y-45625000D01*
X230445000Y-45628000D01*
X230446000Y-45630000D01*
X230447000Y-45633000D01*
X230448000Y-45635000D01*
X230448000Y-45638000D01*
X230449000Y-45640000D01*
X230449000Y-45643000D01*
X230450000Y-45645000D01*
X230450000Y-45648000D01*
X230450000Y-45650000D01*
X230450000Y-45650500D01*
X230450000Y-46255000D01*
X230450000Y-46258000D01*
X230450000Y-46261000D01*
X230449000Y-46263000D01*
X230449000Y-46266000D01*
X230448000Y-46268000D01*
X230448000Y-46271000D01*
X230447000Y-46273000D01*
X230446000Y-46276000D01*
X230445000Y-46278000D01*
X230443000Y-46281000D01*
X230442000Y-46283000D01*
X230440000Y-46285000D01*
X230439000Y-46287000D01*
X230437000Y-46289000D01*
X230435000Y-46291000D01*
X230433000Y-46293000D01*
X230431000Y-46294000D01*
X230429000Y-46296000D01*
X230427000Y-46297000D01*
X230425000Y-46299000D01*
X230423000Y-46300000D01*
X230420000Y-46301000D01*
X230418000Y-46302000D01*
X230415000Y-46303000D01*
X230413000Y-46304000D01*
X230410000Y-46304000D01*
X230408000Y-46305000D01*
X230405000Y-46305000D01*
X230403000Y-46305000D01*
X230400000Y-46306000D01*
X229375000Y-46306000D01*
X229372000Y-46305000D01*
X229370000Y-46305000D01*
X229367000Y-46305000D01*
X229365000Y-46304000D01*
X229362000Y-46304000D01*
X229360000Y-46303000D01*
X229357000Y-46302000D01*
X229355000Y-46301000D01*
X229352000Y-46300000D01*
X229350000Y-46299000D01*
X229348000Y-46297000D01*
X229346000Y-46296000D01*
X229344000Y-46294000D01*
X229342000Y-46293000D01*
X229340000Y-46291000D01*
X229338000Y-46289000D01*
X229336000Y-46287000D01*
X229335000Y-46285000D01*
X229333000Y-46283000D01*
X229332000Y-46281000D01*
X229330000Y-46278000D01*
X229329000Y-46276000D01*
X229328000Y-46273000D01*
X229327000Y-46271000D01*
X229327000Y-46268000D01*
X229326000Y-46266000D01*
X229326000Y-46263000D01*
X229325000Y-46261000D01*
X229325000Y-46258000D01*
X229325000Y-46255000D01*
X229325000Y-45650000D01*
X229325000Y-45648000D01*
X229325000Y-45645000D01*
X229326000Y-45643000D01*
X229326000Y-45640000D01*
X229327000Y-45638000D01*
X229327000Y-45635000D01*
X229328000Y-45633000D01*
X229329000Y-45630000D01*
X229330000Y-45628000D01*
X229332000Y-45625000D01*
X229333000Y-45623000D01*
X229335000Y-45621000D01*
X229336000Y-45619000D01*
X229338000Y-45617000D01*
X229340000Y-45615000D01*
X229342000Y-45613000D01*
X229344000Y-45612000D01*
X229346000Y-45610000D01*
X229348000Y-45609000D01*
X229350000Y-45607000D01*
X229352000Y-45606000D01*
X229355000Y-45605000D01*
X229357000Y-45604000D01*
X229360000Y-45603000D01*
X229362000Y-45602000D01*
X229365000Y-45602000D01*
X229367000Y-45601000D01*
X229370000Y-45601000D01*
X229372000Y-45601000D01*
X229375000Y-45600000D01*
X230400000Y-45600000D01*
X230403000Y-45601000D01*
G37*
X230410000Y-46507000D02*
X230413000Y-46507000D01*
X230415000Y-46508000D01*
X230418000Y-46509000D01*
X230420000Y-46510000D01*
X230423000Y-46511000D01*
X230425000Y-46512000D01*
X230427000Y-46514000D01*
X230429000Y-46515000D01*
X230431000Y-46517000D01*
X230433000Y-46518000D01*
X230435000Y-46520000D01*
X230437000Y-46522000D01*
X230439000Y-46524000D01*
X230440000Y-46526000D01*
X230442000Y-46528000D01*
X230443000Y-46531000D01*
X230445000Y-46533000D01*
X230446000Y-46535000D01*
X230447000Y-46538000D01*
X230448000Y-46540000D01*
X230448000Y-46543000D01*
X230449000Y-46545000D01*
X230449000Y-46548000D01*
X230450000Y-46550000D01*
X230450000Y-46553000D01*
X230450000Y-46555000D01*
X230450000Y-46555500D01*
X230450000Y-47160000D01*
X230450000Y-47163000D01*
X230450000Y-47166000D01*
X230449000Y-47168000D01*
X230449000Y-47171000D01*
X230448000Y-47173000D01*
X230448000Y-47176000D01*
X230447000Y-47178000D01*
X230446000Y-47181000D01*
X230445000Y-47183000D01*
X230443000Y-47185000D01*
X230442000Y-47188000D01*
X230440000Y-47190000D01*
X230439000Y-47192000D01*
X230437000Y-47194000D01*
X230435000Y-47196000D01*
X230433000Y-47198000D01*
X230431000Y-47199000D01*
X230429000Y-47201000D01*
X230427000Y-47202000D01*
X230425000Y-47204000D01*
X230423000Y-47205000D01*
X230420000Y-47206000D01*
X230418000Y-47207000D01*
X230415000Y-47208000D01*
X230413000Y-47209000D01*
X230410000Y-47209000D01*
X230408000Y-47210000D01*
X230405000Y-47210000D01*
X230403000Y-47210000D01*
X230400000Y-47210000D01*
X229375000Y-47210000D01*
X229372000Y-47210000D01*
X229370000Y-47210000D01*
X229367000Y-47210000D01*
X229365000Y-47209000D01*
X229362000Y-47209000D01*
X229360000Y-47208000D01*
X229357000Y-47207000D01*
X229355000Y-47206000D01*
X229352000Y-47205000D01*
X229350000Y-47204000D01*
X229348000Y-47202000D01*
X229346000Y-47201000D01*
X229344000Y-47199000D01*
X229342000Y-47198000D01*
X229340000Y-47196000D01*
X229338000Y-47194000D01*
X229336000Y-47192000D01*
X229335000Y-47190000D01*
X229333000Y-47188000D01*
X229332000Y-47185000D01*
X229330000Y-47183000D01*
X229329000Y-47181000D01*
X229328000Y-47178000D01*
X229327000Y-47176000D01*
X229327000Y-47173000D01*
X229326000Y-47171000D01*
X229326000Y-47168000D01*
X229325000Y-47166000D01*
X229325000Y-47163000D01*
X229325000Y-47160000D01*
X229325000Y-46555000D01*
X229325000Y-46553000D01*
X229325000Y-46550000D01*
X229326000Y-46548000D01*
X229326000Y-46545000D01*
X229327000Y-46543000D01*
X229327000Y-46540000D01*
X229328000Y-46538000D01*
X229329000Y-46535000D01*
X229330000Y-46533000D01*
X229332000Y-46530000D01*
X229333000Y-46528000D01*
X229335000Y-46526000D01*
X229336000Y-46524000D01*
X229338000Y-46522000D01*
X229340000Y-46520000D01*
X229342000Y-46518000D01*
X229344000Y-46517000D01*
X229346000Y-46515000D01*
X229348000Y-46514000D01*
X229350000Y-46512000D01*
X229352000Y-46511000D01*
X229355000Y-46510000D01*
X229357000Y-46509000D01*
X229360000Y-46508000D01*
X229362000Y-46507000D01*
X229365000Y-46507000D01*
X229367000Y-46506000D01*
X229370000Y-46506000D01*
X229372000Y-46506000D01*
X229375000Y-46506000D01*
X230400000Y-46506000D01*
X230403000Y-46506000D01*
X230405000Y-46506000D01*
X230408000Y-46506000D01*
X230410000Y-46507000D01*
G36*
X230410000Y-46507000D02*
G01*
X230413000Y-46507000D01*
X230415000Y-46508000D01*
X230418000Y-46509000D01*
X230420000Y-46510000D01*
X230423000Y-46511000D01*
X230425000Y-46512000D01*
X230427000Y-46514000D01*
X230429000Y-46515000D01*
X230431000Y-46517000D01*
X230433000Y-46518000D01*
X230435000Y-46520000D01*
X230437000Y-46522000D01*
X230439000Y-46524000D01*
X230440000Y-46526000D01*
X230442000Y-46528000D01*
X230443000Y-46531000D01*
X230445000Y-46533000D01*
X230446000Y-46535000D01*
X230447000Y-46538000D01*
X230448000Y-46540000D01*
X230448000Y-46543000D01*
X230449000Y-46545000D01*
X230449000Y-46548000D01*
X230450000Y-46550000D01*
X230450000Y-46553000D01*
X230450000Y-46555000D01*
X230450000Y-46555500D01*
X230450000Y-47160000D01*
X230450000Y-47163000D01*
X230450000Y-47166000D01*
X230449000Y-47168000D01*
X230449000Y-47171000D01*
X230448000Y-47173000D01*
X230448000Y-47176000D01*
X230447000Y-47178000D01*
X230446000Y-47181000D01*
X230445000Y-47183000D01*
X230443000Y-47185000D01*
X230442000Y-47188000D01*
X230440000Y-47190000D01*
X230439000Y-47192000D01*
X230437000Y-47194000D01*
X230435000Y-47196000D01*
X230433000Y-47198000D01*
X230431000Y-47199000D01*
X230429000Y-47201000D01*
X230427000Y-47202000D01*
X230425000Y-47204000D01*
X230423000Y-47205000D01*
X230420000Y-47206000D01*
X230418000Y-47207000D01*
X230415000Y-47208000D01*
X230413000Y-47209000D01*
X230410000Y-47209000D01*
X230408000Y-47210000D01*
X230405000Y-47210000D01*
X230403000Y-47210000D01*
X230400000Y-47210000D01*
X229375000Y-47210000D01*
X229372000Y-47210000D01*
X229370000Y-47210000D01*
X229367000Y-47210000D01*
X229365000Y-47209000D01*
X229362000Y-47209000D01*
X229360000Y-47208000D01*
X229357000Y-47207000D01*
X229355000Y-47206000D01*
X229352000Y-47205000D01*
X229350000Y-47204000D01*
X229348000Y-47202000D01*
X229346000Y-47201000D01*
X229344000Y-47199000D01*
X229342000Y-47198000D01*
X229340000Y-47196000D01*
X229338000Y-47194000D01*
X229336000Y-47192000D01*
X229335000Y-47190000D01*
X229333000Y-47188000D01*
X229332000Y-47185000D01*
X229330000Y-47183000D01*
X229329000Y-47181000D01*
X229328000Y-47178000D01*
X229327000Y-47176000D01*
X229327000Y-47173000D01*
X229326000Y-47171000D01*
X229326000Y-47168000D01*
X229325000Y-47166000D01*
X229325000Y-47163000D01*
X229325000Y-47160000D01*
X229325000Y-46555000D01*
X229325000Y-46553000D01*
X229325000Y-46550000D01*
X229326000Y-46548000D01*
X229326000Y-46545000D01*
X229327000Y-46543000D01*
X229327000Y-46540000D01*
X229328000Y-46538000D01*
X229329000Y-46535000D01*
X229330000Y-46533000D01*
X229332000Y-46530000D01*
X229333000Y-46528000D01*
X229335000Y-46526000D01*
X229336000Y-46524000D01*
X229338000Y-46522000D01*
X229340000Y-46520000D01*
X229342000Y-46518000D01*
X229344000Y-46517000D01*
X229346000Y-46515000D01*
X229348000Y-46514000D01*
X229350000Y-46512000D01*
X229352000Y-46511000D01*
X229355000Y-46510000D01*
X229357000Y-46509000D01*
X229360000Y-46508000D01*
X229362000Y-46507000D01*
X229365000Y-46507000D01*
X229367000Y-46506000D01*
X229370000Y-46506000D01*
X229372000Y-46506000D01*
X229375000Y-46506000D01*
X230400000Y-46506000D01*
X230403000Y-46506000D01*
X230405000Y-46506000D01*
X230408000Y-46506000D01*
X230410000Y-46507000D01*
G37*
%TO.C,D3*%
X176440000Y-81210000D02*
X175000000Y-81210000D01*
X175000000Y-79810000D01*
X176440000Y-79810000D01*
X176440000Y-81210000D01*
G36*
X176440000Y-81210000D02*
G01*
X175000000Y-81210000D01*
X175000000Y-79810000D01*
X176440000Y-79810000D01*
X176440000Y-81210000D01*
G37*
X176440000Y-83200000D02*
X175000000Y-83200000D01*
X175000000Y-81800000D01*
X176440000Y-81800000D01*
X176440000Y-83200000D01*
G36*
X176440000Y-83200000D02*
G01*
X175000000Y-83200000D01*
X175000000Y-81800000D01*
X176440000Y-81800000D01*
X176440000Y-83200000D01*
G37*
X176440000Y-85190000D02*
X175000000Y-85190000D01*
X175000000Y-83790000D01*
X176440000Y-83790000D01*
X176440000Y-85190000D01*
G36*
X176440000Y-85190000D02*
G01*
X175000000Y-85190000D01*
X175000000Y-83790000D01*
X176440000Y-83790000D01*
X176440000Y-85190000D01*
G37*
X178470000Y-81210000D02*
X177030000Y-81210000D01*
X177030000Y-79810000D01*
X178470000Y-79810000D01*
X178470000Y-81210000D01*
G36*
X178470000Y-81210000D02*
G01*
X177030000Y-81210000D01*
X177030000Y-79810000D01*
X178470000Y-79810000D01*
X178470000Y-81210000D01*
G37*
X178470000Y-83200000D02*
X177030000Y-83200000D01*
X177030000Y-81800000D01*
X178470000Y-81800000D01*
X178470000Y-83200000D01*
G36*
X178470000Y-83200000D02*
G01*
X177030000Y-83200000D01*
X177030000Y-81800000D01*
X178470000Y-81800000D01*
X178470000Y-83200000D01*
G37*
X178470000Y-85190000D02*
X177030000Y-85190000D01*
X177030000Y-83790000D01*
X178470000Y-83790000D01*
X178470000Y-85190000D01*
G36*
X178470000Y-85190000D02*
G01*
X177030000Y-85190000D01*
X177030000Y-83790000D01*
X178470000Y-83790000D01*
X178470000Y-85190000D01*
G37*
X180500000Y-81210000D02*
X179060000Y-81210000D01*
X179060000Y-79810000D01*
X180500000Y-79810000D01*
X180500000Y-81210000D01*
G36*
X180500000Y-81210000D02*
G01*
X179060000Y-81210000D01*
X179060000Y-79810000D01*
X180500000Y-79810000D01*
X180500000Y-81210000D01*
G37*
X180500000Y-83200000D02*
X179060000Y-83200000D01*
X179060000Y-81800000D01*
X180500000Y-81800000D01*
X180500000Y-83200000D01*
G36*
X180500000Y-83200000D02*
G01*
X179060000Y-83200000D01*
X179060000Y-81800000D01*
X180500000Y-81800000D01*
X180500000Y-83200000D01*
G37*
X180500000Y-85190000D02*
X179060000Y-85190000D01*
X179060000Y-83790000D01*
X180500000Y-83790000D01*
X180500000Y-85190000D01*
G36*
X180500000Y-85190000D02*
G01*
X179060000Y-85190000D01*
X179060000Y-83790000D01*
X180500000Y-83790000D01*
X180500000Y-85190000D01*
G37*
%TD*%
D11*
%TO.C,R34*%
X224675000Y-74750000D03*
X226325000Y-74750000D03*
%TD*%
D12*
%TO.C,R20*%
X229250000Y-52500000D03*
X229250000Y-50850000D03*
%TD*%
%TO.C,R23*%
X195250000Y-76825000D03*
X195250000Y-75175000D03*
%TD*%
D13*
%TO.C,C34*%
X220055000Y-82250000D03*
X218495000Y-82250000D03*
%TD*%
D14*
%TO.C,U3*%
X182474760Y-75997000D03*
X183749760Y-75997000D03*
X184999760Y-75997000D03*
X186279750Y-76000000D03*
X182474760Y-70747000D03*
X183749760Y-70747000D03*
X184999760Y-70747000D03*
D15*
X184375692Y-71192625D03*
D14*
X186279750Y-70750000D03*
D16*
X184416010Y-73273500D03*
%TD*%
D17*
%TO.C,C21*%
X223500000Y-63900000D03*
X223500000Y-66600000D03*
%TD*%
D18*
%TO.C,D5*%
X187787500Y-79000000D03*
X186212500Y-79000000D03*
%TD*%
D11*
%TO.C,R24*%
X199987500Y-75250000D03*
X201637500Y-75250000D03*
%TD*%
D12*
%TO.C,R17*%
X225000000Y-47112500D03*
X225000000Y-45462500D03*
%TD*%
D19*
%TO.C,C27*%
X208690000Y-70750000D03*
X210250000Y-70750000D03*
%TD*%
D20*
%TO.C,U4*%
X236450000Y-52995000D03*
X235500000Y-52995000D03*
X234550000Y-52995000D03*
X234550000Y-55505000D03*
X236450000Y-55505000D03*
%TD*%
D13*
%TO.C,C20*%
X234280000Y-50500000D03*
X232720000Y-50500000D03*
%TD*%
D21*
%TO.C,R16*%
X186250000Y-83925000D03*
X186250000Y-85575000D03*
%TD*%
D11*
%TO.C,R33*%
X222850000Y-83000000D03*
X224500000Y-83000000D03*
%TD*%
D22*
%TO.C,D7*%
X186088000Y-81500000D03*
X188412000Y-81500000D03*
%TD*%
D11*
%TO.C,R35*%
X221350000Y-76750000D03*
X223000000Y-76750000D03*
%TD*%
%TO.C,R8*%
X178675000Y-56750000D03*
X180325000Y-56750000D03*
%TD*%
D19*
%TO.C,C28*%
X198282500Y-73000000D03*
X199842500Y-73000000D03*
%TD*%
D22*
%TO.C,D6*%
X193662000Y-81500000D03*
X191338000Y-81500000D03*
%TD*%
D11*
%TO.C,R36*%
X224850000Y-76750000D03*
X226500000Y-76750000D03*
%TD*%
D23*
%TO.C,J3*%
X232750000Y-66250000D03*
D24*
X232750000Y-64230000D03*
D25*
X232750000Y-63000000D03*
D23*
X232750000Y-65250000D03*
D24*
X232750000Y-67270000D03*
D25*
X232750000Y-68500000D03*
%TD*%
D26*
%TO.C,D8*%
X225000000Y-50325000D03*
X225000000Y-48750000D03*
%TD*%
D27*
%TO.C,R18*%
X228225000Y-43150000D03*
X226575000Y-43150000D03*
%TD*%
D11*
%TO.C,R15*%
X191175000Y-78750000D03*
X192825000Y-78750000D03*
%TD*%
D27*
%TO.C,R30*%
X219925000Y-80500000D03*
X218275000Y-80500000D03*
%TD*%
D14*
%TO.C,U2*%
X188695010Y-75997000D03*
X189970010Y-75997000D03*
X191220010Y-75997000D03*
X192500000Y-76000000D03*
X188695010Y-70747000D03*
X189970010Y-70747000D03*
X191220010Y-70747000D03*
D15*
X190595942Y-71192625D03*
D14*
X192500000Y-70750000D03*
D16*
X190636260Y-73273500D03*
%TD*%
D12*
%TO.C,R19*%
X227250000Y-52500000D03*
X227250000Y-50850000D03*
%TD*%
D21*
%TO.C,R31*%
X226925000Y-78675000D03*
X226925000Y-80325000D03*
%TD*%
D19*
%TO.C,C19*%
X229945000Y-43150000D03*
X231505000Y-43150000D03*
%TD*%
D11*
%TO.C,R38*%
X223350000Y-85500000D03*
X225000000Y-85500000D03*
%TD*%
D28*
%TO.C,T1*%
X190560000Y-45600000D03*
X190560000Y-49360000D03*
X190560000Y-53120000D03*
X190560000Y-56880000D03*
X190560000Y-60640000D03*
X190560000Y-64400000D03*
X220940000Y-64400000D03*
X220940000Y-60640000D03*
X220940000Y-56880000D03*
X220940000Y-53120000D03*
X220940000Y-49360000D03*
X220940000Y-45600000D03*
%TD*%
D29*
%TO.C,C18*%
X232250000Y-55530000D03*
X232250000Y-53970000D03*
%TD*%
D19*
%TO.C,C24*%
X205190000Y-70750000D03*
X206750000Y-70750000D03*
%TD*%
D30*
%TO.C,C33*%
X216675000Y-80690000D03*
X216675000Y-82250000D03*
%TD*%
D19*
%TO.C,C32*%
X222895000Y-78500000D03*
X224455000Y-78500000D03*
%TD*%
D11*
%TO.C,R29*%
X222850000Y-80750000D03*
X224500000Y-80750000D03*
%TD*%
%TO.C,R22*%
X196737500Y-75250000D03*
X198387500Y-75250000D03*
%TD*%
D17*
%TO.C,C22*%
X225750000Y-63900000D03*
X225750000Y-66600000D03*
%TD*%
D31*
%TO.C,U5*%
X213170000Y-82020000D03*
X213170000Y-79480000D03*
X201830000Y-79480000D03*
X201830000Y-82020000D03*
%TD*%
D32*
%TO.C,Q3*%
X197125000Y-77800000D03*
X197125000Y-79700000D03*
X199000000Y-78750000D03*
%TD*%
D11*
%TO.C,R39*%
X223350000Y-87250000D03*
X225000000Y-87250000D03*
%TD*%
D33*
%TO.C,D3*%
X171830000Y-80215000D03*
X171830000Y-84785000D03*
%TD*%
D34*
%TO.C,DB1*%
X181910000Y-65550000D03*
X181910000Y-60450000D03*
X173090000Y-60450000D03*
X173090000Y-65550000D03*
%TD*%
M02*
