%TF.GenerationSoftware,KiCad,Pcbnew,9.0.5*%
%TF.CreationDate,2025-10-24T12:46:41+03:00*%
%TF.ProjectId,40W SMPS,34305720-534d-4505-932e-6b696361645f,rev?*%
%TF.SameCoordinates,Original*%
%TF.FileFunction,Soldermask,Top*%
%TF.FilePolarity,Negative*%
%FSLAX46Y46*%
G04 Gerber Fmt 4.6, Leading zero omitted, Abs format (unit mm)*
G04 Created by KiCad (PCBNEW 9.0.5) date 2025-10-24 12:46:41*
%MOMM*%
%LPD*%
G01*
G04 APERTURE LIST*
G04 Aperture macros list*
%AMRoundRect*
0 Rectangle with rounded corners*
0 $1 Rounding radius*
0 $2 $3 $4 $5 $6 $7 $8 $9 X,Y pos of 4 corners*
0 Add a 4 corners polygon primitive as box body*
4,1,4,$2,$3,$4,$5,$6,$7,$8,$9,$2,$3,0*
0 Add four circle primitives for the rounded corners*
1,1,$1+$1,$2,$3*
1,1,$1+$1,$4,$5*
1,1,$1+$1,$6,$7*
1,1,$1+$1,$8,$9*
0 Add four rect primitives between the rounded corners*
20,1,$1+$1,$2,$3,$4,$5,0*
20,1,$1+$1,$4,$5,$6,$7,0*
20,1,$1+$1,$6,$7,$8,$9,0*
20,1,$1+$1,$8,$9,$2,$3,0*%
%AMFreePoly0*
4,1,23,0.500000,-0.750000,0.000000,-0.750000,0.000000,-0.745722,-0.065263,-0.745722,-0.191342,-0.711940,-0.304381,-0.646677,-0.396677,-0.554381,-0.461940,-0.441342,-0.495722,-0.315263,-0.495722,-0.250000,-0.500000,-0.250000,-0.500000,0.250000,-0.495722,0.250000,-0.495722,0.315263,-0.461940,0.441342,-0.396677,0.554381,-0.304381,0.646677,-0.191342,0.711940,-0.065263,0.745722,0.000000,0.745722,
0.000000,0.750000,0.500000,0.750000,0.500000,-0.750000,0.500000,-0.750000,$1*%
%AMFreePoly1*
4,1,23,0.000000,0.745722,0.065263,0.745722,0.191342,0.711940,0.304381,0.646677,0.396677,0.554381,0.461940,0.441342,0.495722,0.315263,0.495722,0.250000,0.500000,0.250000,0.500000,-0.250000,0.495722,-0.250000,0.495722,-0.315263,0.461940,-0.441342,0.396677,-0.554381,0.304381,-0.646677,0.191342,-0.711940,0.065263,-0.745722,0.000000,-0.745722,0.000000,-0.750000,-0.500000,-0.750000,
-0.500000,0.750000,0.000000,0.750000,0.000000,0.745722,0.000000,0.745722,$1*%
G04 Aperture macros list end*
%ADD10C,0.010000*%
%ADD11RoundRect,0.200000X-0.200000X-0.275000X0.200000X-0.275000X0.200000X0.275000X-0.200000X0.275000X0*%
%ADD12RoundRect,0.200000X0.275000X-0.200000X0.275000X0.200000X-0.275000X0.200000X-0.275000X-0.200000X0*%
%ADD13C,1.000000*%
%ADD14RoundRect,0.244000X0.244000X0.269000X-0.244000X0.269000X-0.244000X-0.269000X0.244000X-0.269000X0*%
%ADD15RoundRect,0.102000X0.317500X-0.778000X0.317500X0.778000X-0.317500X0.778000X-0.317500X-0.778000X0*%
%ADD16RoundRect,0.102000X2.221557X-0.442625X2.221557X0.442625X-2.221557X0.442625X-2.221557X-0.442625X0*%
%ADD17RoundRect,0.102000X2.233750X-0.876500X2.233750X0.876500X-2.233750X0.876500X-2.233750X-0.876500X0*%
%ADD18RoundRect,0.264074X-0.448926X0.473926X-0.448926X-0.473926X0.448926X-0.473926X0.448926X0.473926X0*%
%ADD19C,1.612000*%
%ADD20RoundRect,0.218750X0.218750X0.256250X-0.218750X0.256250X-0.218750X-0.256250X0.218750X-0.256250X0*%
%ADD21R,1.700000X1.700000*%
%ADD22RoundRect,0.244000X-0.244000X-0.269000X0.244000X-0.269000X0.244000X0.269000X-0.244000X0.269000X0*%
%ADD23O,1.700000X1.700000*%
%ADD24RoundRect,0.099250X-0.297750X0.607750X-0.297750X-0.607750X0.297750X-0.607750X0.297750X0.607750X0*%
%ADD25RoundRect,0.200000X-0.275000X0.200000X-0.275000X-0.200000X0.275000X-0.200000X0.275000X0.200000X0*%
%ADD26RoundRect,0.102000X-0.537500X-0.250000X0.537500X-0.250000X0.537500X0.250000X-0.537500X0.250000X0*%
%ADD27R,1.600000X1.600000*%
%ADD28C,1.600000*%
%ADD29RoundRect,0.102000X0.537500X0.250000X-0.537500X0.250000X-0.537500X-0.250000X0.537500X-0.250000X0*%
%ADD30FreePoly0,0.000000*%
%ADD31FreePoly1,0.000000*%
%ADD32RoundRect,0.102000X0.575000X-0.350000X0.575000X0.350000X-0.575000X0.350000X-0.575000X-0.350000X0*%
%ADD33RoundRect,0.102000X0.575000X-0.400000X0.575000X0.400000X-0.575000X0.400000X-0.575000X-0.400000X0*%
%ADD34RoundRect,0.102000X0.575000X-0.450000X0.575000X0.450000X-0.575000X0.450000X-0.575000X-0.450000X0*%
%ADD35O,2.204000X1.204000*%
%ADD36RoundRect,0.218750X0.256250X-0.218750X0.256250X0.218750X-0.256250X0.218750X-0.256250X-0.218750X0*%
%ADD37RoundRect,0.200000X0.200000X0.275000X-0.200000X0.275000X-0.200000X-0.275000X0.200000X-0.275000X0*%
%ADD38R,2.500000X1.520000*%
%ADD39C,0.504000*%
%ADD40RoundRect,0.244000X0.269000X-0.244000X0.269000X0.244000X-0.269000X0.244000X-0.269000X-0.244000X0*%
%ADD41RoundRect,0.244000X-0.269000X0.244000X-0.269000X-0.244000X0.269000X-0.244000X0.269000X0.244000X0*%
%ADD42RoundRect,0.102000X0.850000X0.725000X-0.850000X0.725000X-0.850000X-0.725000X0.850000X-0.725000X0*%
%ADD43RoundRect,0.150000X-0.587500X-0.150000X0.587500X-0.150000X0.587500X0.150000X-0.587500X0.150000X0*%
%ADD44RoundRect,0.102000X-0.900000X-0.700000X0.900000X-0.700000X0.900000X0.700000X-0.900000X0.700000X0*%
%ADD45RoundRect,0.102000X-2.985000X-3.050000X2.985000X-3.050000X2.985000X3.050000X-2.985000X3.050000X0*%
%ADD46RoundRect,0.250000X-0.985000X0.505000X-0.985000X-0.505000X0.985000X-0.505000X0.985000X0.505000X0*%
G04 APERTURE END LIST*
%TO.C,JP3*%
G36*
X228350000Y-63750000D02*
G01*
X228650000Y-63750000D01*
X228650000Y-65250000D01*
X228350000Y-65250000D01*
X228350000Y-63750000D01*
G37*
%TO.C,JP2*%
G36*
X178850000Y-49750000D02*
G01*
X179150000Y-49750000D01*
X179150000Y-51250000D01*
X178850000Y-51250000D01*
X178850000Y-49750000D01*
G37*
D10*
%TO.C,Q2*%
X228358000Y-47901000D02*
X228360000Y-47901000D01*
X228363000Y-47902000D01*
X228365000Y-47902000D01*
X228368000Y-47903000D01*
X228370000Y-47904000D01*
X228373000Y-47905000D01*
X228375000Y-47907000D01*
X228377000Y-47908000D01*
X228379000Y-47910000D01*
X228381000Y-47911000D01*
X228383000Y-47913000D01*
X228385000Y-47915000D01*
X228387000Y-47917000D01*
X228389000Y-47919000D01*
X228390000Y-47921000D01*
X228392000Y-47923000D01*
X228393000Y-47925000D01*
X228395000Y-47927000D01*
X228396000Y-47930000D01*
X228397000Y-47932000D01*
X228398000Y-47935000D01*
X228398000Y-47937000D01*
X228399000Y-47940000D01*
X228399000Y-47942000D01*
X228400000Y-47945000D01*
X228400000Y-47947000D01*
X228400000Y-47950000D01*
X228400000Y-48450000D01*
X228400000Y-48453000D01*
X228400000Y-48455000D01*
X228399000Y-48458000D01*
X228399000Y-48460000D01*
X228398000Y-48463000D01*
X228398000Y-48465000D01*
X228397000Y-48468000D01*
X228396000Y-48470000D01*
X228395000Y-48473000D01*
X228393000Y-48475000D01*
X228392000Y-48477000D01*
X228390000Y-48479000D01*
X228389000Y-48481000D01*
X228387000Y-48483000D01*
X228385000Y-48485000D01*
X228383000Y-48487000D01*
X228381000Y-48489000D01*
X228379000Y-48490000D01*
X228377000Y-48492000D01*
X228375000Y-48493000D01*
X228373000Y-48495000D01*
X228370000Y-48496000D01*
X228368000Y-48497000D01*
X228365000Y-48498000D01*
X228363000Y-48498000D01*
X228360000Y-48499000D01*
X228358000Y-48499000D01*
X228355000Y-48500000D01*
X228353000Y-48500000D01*
X228350000Y-48500000D01*
X228150000Y-48500000D01*
X228147000Y-48500000D01*
X228145000Y-48500000D01*
X228142000Y-48499000D01*
X228140000Y-48499000D01*
X228137000Y-48498000D01*
X228135000Y-48498000D01*
X228132000Y-48497000D01*
X228130000Y-48496000D01*
X228127000Y-48495000D01*
X228125000Y-48493000D01*
X228123000Y-48492000D01*
X228121000Y-48490000D01*
X228119000Y-48489000D01*
X228117000Y-48487000D01*
X228115000Y-48485000D01*
X228113000Y-48483000D01*
X228111000Y-48481000D01*
X228110000Y-48479000D01*
X228108000Y-48477000D01*
X228107000Y-48475000D01*
X228105000Y-48473000D01*
X228104000Y-48470000D01*
X228103000Y-48468000D01*
X228102000Y-48465000D01*
X228102000Y-48463000D01*
X228101000Y-48460000D01*
X228101000Y-48458000D01*
X228100000Y-48455000D01*
X228100000Y-48453000D01*
X228100000Y-48450000D01*
X228100000Y-47950000D01*
X228100000Y-47947000D01*
X228100000Y-47945000D01*
X228101000Y-47942000D01*
X228101000Y-47940000D01*
X228102000Y-47937000D01*
X228102000Y-47935000D01*
X228103000Y-47932000D01*
X228104000Y-47930000D01*
X228105000Y-47927000D01*
X228107000Y-47925000D01*
X228108000Y-47923000D01*
X228110000Y-47921000D01*
X228111000Y-47919000D01*
X228113000Y-47917000D01*
X228115000Y-47915000D01*
X228117000Y-47913000D01*
X228119000Y-47911000D01*
X228121000Y-47910000D01*
X228123000Y-47908000D01*
X228125000Y-47907000D01*
X228127000Y-47905000D01*
X228130000Y-47904000D01*
X228132000Y-47903000D01*
X228135000Y-47902000D01*
X228137000Y-47902000D01*
X228140000Y-47901000D01*
X228142000Y-47901000D01*
X228145000Y-47900000D01*
X228147000Y-47900000D01*
X228150000Y-47900000D01*
X228350000Y-47900000D01*
X228353000Y-47900000D01*
X228355000Y-47900000D01*
X228358000Y-47901000D01*
G36*
X228358000Y-47901000D02*
G01*
X228360000Y-47901000D01*
X228363000Y-47902000D01*
X228365000Y-47902000D01*
X228368000Y-47903000D01*
X228370000Y-47904000D01*
X228373000Y-47905000D01*
X228375000Y-47907000D01*
X228377000Y-47908000D01*
X228379000Y-47910000D01*
X228381000Y-47911000D01*
X228383000Y-47913000D01*
X228385000Y-47915000D01*
X228387000Y-47917000D01*
X228389000Y-47919000D01*
X228390000Y-47921000D01*
X228392000Y-47923000D01*
X228393000Y-47925000D01*
X228395000Y-47927000D01*
X228396000Y-47930000D01*
X228397000Y-47932000D01*
X228398000Y-47935000D01*
X228398000Y-47937000D01*
X228399000Y-47940000D01*
X228399000Y-47942000D01*
X228400000Y-47945000D01*
X228400000Y-47947000D01*
X228400000Y-47950000D01*
X228400000Y-48450000D01*
X228400000Y-48453000D01*
X228400000Y-48455000D01*
X228399000Y-48458000D01*
X228399000Y-48460000D01*
X228398000Y-48463000D01*
X228398000Y-48465000D01*
X228397000Y-48468000D01*
X228396000Y-48470000D01*
X228395000Y-48473000D01*
X228393000Y-48475000D01*
X228392000Y-48477000D01*
X228390000Y-48479000D01*
X228389000Y-48481000D01*
X228387000Y-48483000D01*
X228385000Y-48485000D01*
X228383000Y-48487000D01*
X228381000Y-48489000D01*
X228379000Y-48490000D01*
X228377000Y-48492000D01*
X228375000Y-48493000D01*
X228373000Y-48495000D01*
X228370000Y-48496000D01*
X228368000Y-48497000D01*
X228365000Y-48498000D01*
X228363000Y-48498000D01*
X228360000Y-48499000D01*
X228358000Y-48499000D01*
X228355000Y-48500000D01*
X228353000Y-48500000D01*
X228350000Y-48500000D01*
X228150000Y-48500000D01*
X228147000Y-48500000D01*
X228145000Y-48500000D01*
X228142000Y-48499000D01*
X228140000Y-48499000D01*
X228137000Y-48498000D01*
X228135000Y-48498000D01*
X228132000Y-48497000D01*
X228130000Y-48496000D01*
X228127000Y-48495000D01*
X228125000Y-48493000D01*
X228123000Y-48492000D01*
X228121000Y-48490000D01*
X228119000Y-48489000D01*
X228117000Y-48487000D01*
X228115000Y-48485000D01*
X228113000Y-48483000D01*
X228111000Y-48481000D01*
X228110000Y-48479000D01*
X228108000Y-48477000D01*
X228107000Y-48475000D01*
X228105000Y-48473000D01*
X228104000Y-48470000D01*
X228103000Y-48468000D01*
X228102000Y-48465000D01*
X228102000Y-48463000D01*
X228101000Y-48460000D01*
X228101000Y-48458000D01*
X228100000Y-48455000D01*
X228100000Y-48453000D01*
X228100000Y-48450000D01*
X228100000Y-47950000D01*
X228100000Y-47947000D01*
X228100000Y-47945000D01*
X228101000Y-47942000D01*
X228101000Y-47940000D01*
X228102000Y-47937000D01*
X228102000Y-47935000D01*
X228103000Y-47932000D01*
X228104000Y-47930000D01*
X228105000Y-47927000D01*
X228107000Y-47925000D01*
X228108000Y-47923000D01*
X228110000Y-47921000D01*
X228111000Y-47919000D01*
X228113000Y-47917000D01*
X228115000Y-47915000D01*
X228117000Y-47913000D01*
X228119000Y-47911000D01*
X228121000Y-47910000D01*
X228123000Y-47908000D01*
X228125000Y-47907000D01*
X228127000Y-47905000D01*
X228130000Y-47904000D01*
X228132000Y-47903000D01*
X228135000Y-47902000D01*
X228137000Y-47902000D01*
X228140000Y-47901000D01*
X228142000Y-47901000D01*
X228145000Y-47900000D01*
X228147000Y-47900000D01*
X228150000Y-47900000D01*
X228350000Y-47900000D01*
X228353000Y-47900000D01*
X228355000Y-47900000D01*
X228358000Y-47901000D01*
G37*
X229008000Y-47901000D02*
X229010000Y-47901000D01*
X229013000Y-47902000D01*
X229015000Y-47902000D01*
X229018000Y-47903000D01*
X229020000Y-47904000D01*
X229023000Y-47905000D01*
X229025000Y-47907000D01*
X229027000Y-47908000D01*
X229029000Y-47910000D01*
X229031000Y-47911000D01*
X229033000Y-47913000D01*
X229035000Y-47915000D01*
X229037000Y-47917000D01*
X229039000Y-47919000D01*
X229040000Y-47921000D01*
X229042000Y-47923000D01*
X229043000Y-47925000D01*
X229045000Y-47927000D01*
X229046000Y-47930000D01*
X229047000Y-47932000D01*
X229048000Y-47935000D01*
X229048000Y-47937000D01*
X229049000Y-47940000D01*
X229049000Y-47942000D01*
X229050000Y-47945000D01*
X229050000Y-47947000D01*
X229050000Y-47950000D01*
X229050000Y-48450000D01*
X229050000Y-48453000D01*
X229050000Y-48455000D01*
X229049000Y-48458000D01*
X229049000Y-48460000D01*
X229048000Y-48463000D01*
X229048000Y-48465000D01*
X229047000Y-48468000D01*
X229046000Y-48470000D01*
X229045000Y-48473000D01*
X229043000Y-48475000D01*
X229042000Y-48477000D01*
X229040000Y-48479000D01*
X229039000Y-48481000D01*
X229037000Y-48483000D01*
X229035000Y-48485000D01*
X229033000Y-48487000D01*
X229031000Y-48489000D01*
X229029000Y-48490000D01*
X229027000Y-48492000D01*
X229025000Y-48493000D01*
X229023000Y-48495000D01*
X229020000Y-48496000D01*
X229018000Y-48497000D01*
X229015000Y-48498000D01*
X229013000Y-48498000D01*
X229010000Y-48499000D01*
X229008000Y-48499000D01*
X229005000Y-48500000D01*
X229003000Y-48500000D01*
X229000000Y-48500000D01*
X228800000Y-48500000D01*
X228797000Y-48500000D01*
X228795000Y-48500000D01*
X228792000Y-48499000D01*
X228790000Y-48499000D01*
X228787000Y-48498000D01*
X228785000Y-48498000D01*
X228782000Y-48497000D01*
X228780000Y-48496000D01*
X228777000Y-48495000D01*
X228775000Y-48493000D01*
X228773000Y-48492000D01*
X228771000Y-48490000D01*
X228769000Y-48489000D01*
X228767000Y-48487000D01*
X228765000Y-48485000D01*
X228763000Y-48483000D01*
X228761000Y-48481000D01*
X228760000Y-48479000D01*
X228758000Y-48477000D01*
X228757000Y-48475000D01*
X228755000Y-48473000D01*
X228754000Y-48470000D01*
X228753000Y-48468000D01*
X228752000Y-48465000D01*
X228752000Y-48463000D01*
X228751000Y-48460000D01*
X228751000Y-48458000D01*
X228750000Y-48455000D01*
X228750000Y-48453000D01*
X228750000Y-48450000D01*
X228750000Y-47950000D01*
X228750000Y-47947000D01*
X228750000Y-47945000D01*
X228751000Y-47942000D01*
X228751000Y-47940000D01*
X228752000Y-47937000D01*
X228752000Y-47935000D01*
X228753000Y-47932000D01*
X228754000Y-47930000D01*
X228755000Y-47927000D01*
X228757000Y-47925000D01*
X228758000Y-47923000D01*
X228760000Y-47921000D01*
X228761000Y-47919000D01*
X228763000Y-47917000D01*
X228765000Y-47915000D01*
X228767000Y-47913000D01*
X228769000Y-47911000D01*
X228771000Y-47910000D01*
X228773000Y-47908000D01*
X228775000Y-47907000D01*
X228777000Y-47905000D01*
X228780000Y-47904000D01*
X228782000Y-47903000D01*
X228785000Y-47902000D01*
X228787000Y-47902000D01*
X228790000Y-47901000D01*
X228792000Y-47901000D01*
X228795000Y-47900000D01*
X228797000Y-47900000D01*
X228800000Y-47900000D01*
X229000000Y-47900000D01*
X229003000Y-47900000D01*
X229005000Y-47900000D01*
X229008000Y-47901000D01*
G36*
X229008000Y-47901000D02*
G01*
X229010000Y-47901000D01*
X229013000Y-47902000D01*
X229015000Y-47902000D01*
X229018000Y-47903000D01*
X229020000Y-47904000D01*
X229023000Y-47905000D01*
X229025000Y-47907000D01*
X229027000Y-47908000D01*
X229029000Y-47910000D01*
X229031000Y-47911000D01*
X229033000Y-47913000D01*
X229035000Y-47915000D01*
X229037000Y-47917000D01*
X229039000Y-47919000D01*
X229040000Y-47921000D01*
X229042000Y-47923000D01*
X229043000Y-47925000D01*
X229045000Y-47927000D01*
X229046000Y-47930000D01*
X229047000Y-47932000D01*
X229048000Y-47935000D01*
X229048000Y-47937000D01*
X229049000Y-47940000D01*
X229049000Y-47942000D01*
X229050000Y-47945000D01*
X229050000Y-47947000D01*
X229050000Y-47950000D01*
X229050000Y-48450000D01*
X229050000Y-48453000D01*
X229050000Y-48455000D01*
X229049000Y-48458000D01*
X229049000Y-48460000D01*
X229048000Y-48463000D01*
X229048000Y-48465000D01*
X229047000Y-48468000D01*
X229046000Y-48470000D01*
X229045000Y-48473000D01*
X229043000Y-48475000D01*
X229042000Y-48477000D01*
X229040000Y-48479000D01*
X229039000Y-48481000D01*
X229037000Y-48483000D01*
X229035000Y-48485000D01*
X229033000Y-48487000D01*
X229031000Y-48489000D01*
X229029000Y-48490000D01*
X229027000Y-48492000D01*
X229025000Y-48493000D01*
X229023000Y-48495000D01*
X229020000Y-48496000D01*
X229018000Y-48497000D01*
X229015000Y-48498000D01*
X229013000Y-48498000D01*
X229010000Y-48499000D01*
X229008000Y-48499000D01*
X229005000Y-48500000D01*
X229003000Y-48500000D01*
X229000000Y-48500000D01*
X228800000Y-48500000D01*
X228797000Y-48500000D01*
X228795000Y-48500000D01*
X228792000Y-48499000D01*
X228790000Y-48499000D01*
X228787000Y-48498000D01*
X228785000Y-48498000D01*
X228782000Y-48497000D01*
X228780000Y-48496000D01*
X228777000Y-48495000D01*
X228775000Y-48493000D01*
X228773000Y-48492000D01*
X228771000Y-48490000D01*
X228769000Y-48489000D01*
X228767000Y-48487000D01*
X228765000Y-48485000D01*
X228763000Y-48483000D01*
X228761000Y-48481000D01*
X228760000Y-48479000D01*
X228758000Y-48477000D01*
X228757000Y-48475000D01*
X228755000Y-48473000D01*
X228754000Y-48470000D01*
X228753000Y-48468000D01*
X228752000Y-48465000D01*
X228752000Y-48463000D01*
X228751000Y-48460000D01*
X228751000Y-48458000D01*
X228750000Y-48455000D01*
X228750000Y-48453000D01*
X228750000Y-48450000D01*
X228750000Y-47950000D01*
X228750000Y-47947000D01*
X228750000Y-47945000D01*
X228751000Y-47942000D01*
X228751000Y-47940000D01*
X228752000Y-47937000D01*
X228752000Y-47935000D01*
X228753000Y-47932000D01*
X228754000Y-47930000D01*
X228755000Y-47927000D01*
X228757000Y-47925000D01*
X228758000Y-47923000D01*
X228760000Y-47921000D01*
X228761000Y-47919000D01*
X228763000Y-47917000D01*
X228765000Y-47915000D01*
X228767000Y-47913000D01*
X228769000Y-47911000D01*
X228771000Y-47910000D01*
X228773000Y-47908000D01*
X228775000Y-47907000D01*
X228777000Y-47905000D01*
X228780000Y-47904000D01*
X228782000Y-47903000D01*
X228785000Y-47902000D01*
X228787000Y-47902000D01*
X228790000Y-47901000D01*
X228792000Y-47901000D01*
X228795000Y-47900000D01*
X228797000Y-47900000D01*
X228800000Y-47900000D01*
X229000000Y-47900000D01*
X229003000Y-47900000D01*
X229005000Y-47900000D01*
X229008000Y-47901000D01*
G37*
X229658000Y-47901000D02*
X229660000Y-47901000D01*
X229663000Y-47902000D01*
X229665000Y-47902000D01*
X229668000Y-47903000D01*
X229670000Y-47904000D01*
X229673000Y-47905000D01*
X229675000Y-47907000D01*
X229677000Y-47908000D01*
X229679000Y-47910000D01*
X229681000Y-47911000D01*
X229683000Y-47913000D01*
X229685000Y-47915000D01*
X229687000Y-47917000D01*
X229689000Y-47919000D01*
X229690000Y-47921000D01*
X229692000Y-47923000D01*
X229693000Y-47925000D01*
X229695000Y-47927000D01*
X229696000Y-47930000D01*
X229697000Y-47932000D01*
X229698000Y-47935000D01*
X229698000Y-47937000D01*
X229699000Y-47940000D01*
X229699000Y-47942000D01*
X229700000Y-47945000D01*
X229700000Y-47947000D01*
X229700000Y-47950000D01*
X229700000Y-48450000D01*
X229700000Y-48453000D01*
X229700000Y-48455000D01*
X229699000Y-48458000D01*
X229699000Y-48460000D01*
X229698000Y-48463000D01*
X229698000Y-48465000D01*
X229697000Y-48468000D01*
X229696000Y-48470000D01*
X229695000Y-48473000D01*
X229693000Y-48475000D01*
X229692000Y-48477000D01*
X229690000Y-48479000D01*
X229689000Y-48481000D01*
X229687000Y-48483000D01*
X229685000Y-48485000D01*
X229683000Y-48487000D01*
X229681000Y-48489000D01*
X229679000Y-48490000D01*
X229677000Y-48492000D01*
X229675000Y-48493000D01*
X229673000Y-48495000D01*
X229670000Y-48496000D01*
X229668000Y-48497000D01*
X229665000Y-48498000D01*
X229663000Y-48498000D01*
X229660000Y-48499000D01*
X229658000Y-48499000D01*
X229655000Y-48500000D01*
X229653000Y-48500000D01*
X229650000Y-48500000D01*
X229450000Y-48500000D01*
X229447000Y-48500000D01*
X229445000Y-48500000D01*
X229442000Y-48499000D01*
X229440000Y-48499000D01*
X229437000Y-48498000D01*
X229435000Y-48498000D01*
X229432000Y-48497000D01*
X229430000Y-48496000D01*
X229427000Y-48495000D01*
X229425000Y-48493000D01*
X229423000Y-48492000D01*
X229421000Y-48490000D01*
X229419000Y-48489000D01*
X229417000Y-48487000D01*
X229415000Y-48485000D01*
X229413000Y-48483000D01*
X229411000Y-48481000D01*
X229410000Y-48479000D01*
X229408000Y-48477000D01*
X229407000Y-48475000D01*
X229405000Y-48473000D01*
X229404000Y-48470000D01*
X229403000Y-48468000D01*
X229402000Y-48465000D01*
X229402000Y-48463000D01*
X229401000Y-48460000D01*
X229401000Y-48458000D01*
X229400000Y-48455000D01*
X229400000Y-48453000D01*
X229400000Y-48450000D01*
X229400000Y-47950000D01*
X229400000Y-47947000D01*
X229400000Y-47945000D01*
X229401000Y-47942000D01*
X229401000Y-47940000D01*
X229402000Y-47937000D01*
X229402000Y-47935000D01*
X229403000Y-47932000D01*
X229404000Y-47930000D01*
X229405000Y-47927000D01*
X229407000Y-47925000D01*
X229408000Y-47923000D01*
X229410000Y-47921000D01*
X229411000Y-47919000D01*
X229413000Y-47917000D01*
X229415000Y-47915000D01*
X229417000Y-47913000D01*
X229419000Y-47911000D01*
X229421000Y-47910000D01*
X229423000Y-47908000D01*
X229425000Y-47907000D01*
X229427000Y-47905000D01*
X229430000Y-47904000D01*
X229432000Y-47903000D01*
X229435000Y-47902000D01*
X229437000Y-47902000D01*
X229440000Y-47901000D01*
X229442000Y-47901000D01*
X229445000Y-47900000D01*
X229447000Y-47900000D01*
X229450000Y-47900000D01*
X229650000Y-47900000D01*
X229653000Y-47900000D01*
X229655000Y-47900000D01*
X229658000Y-47901000D01*
G36*
X229658000Y-47901000D02*
G01*
X229660000Y-47901000D01*
X229663000Y-47902000D01*
X229665000Y-47902000D01*
X229668000Y-47903000D01*
X229670000Y-47904000D01*
X229673000Y-47905000D01*
X229675000Y-47907000D01*
X229677000Y-47908000D01*
X229679000Y-47910000D01*
X229681000Y-47911000D01*
X229683000Y-47913000D01*
X229685000Y-47915000D01*
X229687000Y-47917000D01*
X229689000Y-47919000D01*
X229690000Y-47921000D01*
X229692000Y-47923000D01*
X229693000Y-47925000D01*
X229695000Y-47927000D01*
X229696000Y-47930000D01*
X229697000Y-47932000D01*
X229698000Y-47935000D01*
X229698000Y-47937000D01*
X229699000Y-47940000D01*
X229699000Y-47942000D01*
X229700000Y-47945000D01*
X229700000Y-47947000D01*
X229700000Y-47950000D01*
X229700000Y-48450000D01*
X229700000Y-48453000D01*
X229700000Y-48455000D01*
X229699000Y-48458000D01*
X229699000Y-48460000D01*
X229698000Y-48463000D01*
X229698000Y-48465000D01*
X229697000Y-48468000D01*
X229696000Y-48470000D01*
X229695000Y-48473000D01*
X229693000Y-48475000D01*
X229692000Y-48477000D01*
X229690000Y-48479000D01*
X229689000Y-48481000D01*
X229687000Y-48483000D01*
X229685000Y-48485000D01*
X229683000Y-48487000D01*
X229681000Y-48489000D01*
X229679000Y-48490000D01*
X229677000Y-48492000D01*
X229675000Y-48493000D01*
X229673000Y-48495000D01*
X229670000Y-48496000D01*
X229668000Y-48497000D01*
X229665000Y-48498000D01*
X229663000Y-48498000D01*
X229660000Y-48499000D01*
X229658000Y-48499000D01*
X229655000Y-48500000D01*
X229653000Y-48500000D01*
X229650000Y-48500000D01*
X229450000Y-48500000D01*
X229447000Y-48500000D01*
X229445000Y-48500000D01*
X229442000Y-48499000D01*
X229440000Y-48499000D01*
X229437000Y-48498000D01*
X229435000Y-48498000D01*
X229432000Y-48497000D01*
X229430000Y-48496000D01*
X229427000Y-48495000D01*
X229425000Y-48493000D01*
X229423000Y-48492000D01*
X229421000Y-48490000D01*
X229419000Y-48489000D01*
X229417000Y-48487000D01*
X229415000Y-48485000D01*
X229413000Y-48483000D01*
X229411000Y-48481000D01*
X229410000Y-48479000D01*
X229408000Y-48477000D01*
X229407000Y-48475000D01*
X229405000Y-48473000D01*
X229404000Y-48470000D01*
X229403000Y-48468000D01*
X229402000Y-48465000D01*
X229402000Y-48463000D01*
X229401000Y-48460000D01*
X229401000Y-48458000D01*
X229400000Y-48455000D01*
X229400000Y-48453000D01*
X229400000Y-48450000D01*
X229400000Y-47950000D01*
X229400000Y-47947000D01*
X229400000Y-47945000D01*
X229401000Y-47942000D01*
X229401000Y-47940000D01*
X229402000Y-47937000D01*
X229402000Y-47935000D01*
X229403000Y-47932000D01*
X229404000Y-47930000D01*
X229405000Y-47927000D01*
X229407000Y-47925000D01*
X229408000Y-47923000D01*
X229410000Y-47921000D01*
X229411000Y-47919000D01*
X229413000Y-47917000D01*
X229415000Y-47915000D01*
X229417000Y-47913000D01*
X229419000Y-47911000D01*
X229421000Y-47910000D01*
X229423000Y-47908000D01*
X229425000Y-47907000D01*
X229427000Y-47905000D01*
X229430000Y-47904000D01*
X229432000Y-47903000D01*
X229435000Y-47902000D01*
X229437000Y-47902000D01*
X229440000Y-47901000D01*
X229442000Y-47901000D01*
X229445000Y-47900000D01*
X229447000Y-47900000D01*
X229450000Y-47900000D01*
X229650000Y-47900000D01*
X229653000Y-47900000D01*
X229655000Y-47900000D01*
X229658000Y-47901000D01*
G37*
X230308000Y-47901000D02*
X230310000Y-47901000D01*
X230313000Y-47902000D01*
X230315000Y-47902000D01*
X230318000Y-47903000D01*
X230320000Y-47904000D01*
X230323000Y-47905000D01*
X230325000Y-47907000D01*
X230327000Y-47908000D01*
X230329000Y-47910000D01*
X230331000Y-47911000D01*
X230333000Y-47913000D01*
X230335000Y-47915000D01*
X230337000Y-47917000D01*
X230339000Y-47919000D01*
X230340000Y-47921000D01*
X230342000Y-47923000D01*
X230343000Y-47925000D01*
X230345000Y-47927000D01*
X230346000Y-47930000D01*
X230347000Y-47932000D01*
X230348000Y-47935000D01*
X230348000Y-47937000D01*
X230349000Y-47940000D01*
X230349000Y-47942000D01*
X230350000Y-47945000D01*
X230350000Y-47947000D01*
X230350000Y-47950000D01*
X230350000Y-48450000D01*
X230350000Y-48453000D01*
X230350000Y-48455000D01*
X230349000Y-48458000D01*
X230349000Y-48460000D01*
X230348000Y-48463000D01*
X230348000Y-48465000D01*
X230347000Y-48468000D01*
X230346000Y-48470000D01*
X230345000Y-48473000D01*
X230343000Y-48475000D01*
X230342000Y-48477000D01*
X230340000Y-48479000D01*
X230339000Y-48481000D01*
X230337000Y-48483000D01*
X230335000Y-48485000D01*
X230333000Y-48487000D01*
X230331000Y-48489000D01*
X230329000Y-48490000D01*
X230327000Y-48492000D01*
X230325000Y-48493000D01*
X230323000Y-48495000D01*
X230320000Y-48496000D01*
X230318000Y-48497000D01*
X230315000Y-48498000D01*
X230313000Y-48498000D01*
X230310000Y-48499000D01*
X230308000Y-48499000D01*
X230305000Y-48500000D01*
X230303000Y-48500000D01*
X230300000Y-48500000D01*
X230100000Y-48500000D01*
X230097000Y-48500000D01*
X230095000Y-48500000D01*
X230092000Y-48499000D01*
X230090000Y-48499000D01*
X230087000Y-48498000D01*
X230085000Y-48498000D01*
X230082000Y-48497000D01*
X230080000Y-48496000D01*
X230077000Y-48495000D01*
X230075000Y-48493000D01*
X230073000Y-48492000D01*
X230071000Y-48490000D01*
X230069000Y-48489000D01*
X230067000Y-48487000D01*
X230065000Y-48485000D01*
X230063000Y-48483000D01*
X230061000Y-48481000D01*
X230060000Y-48479000D01*
X230058000Y-48477000D01*
X230057000Y-48475000D01*
X230055000Y-48473000D01*
X230054000Y-48470000D01*
X230053000Y-48468000D01*
X230052000Y-48465000D01*
X230052000Y-48463000D01*
X230051000Y-48460000D01*
X230051000Y-48458000D01*
X230050000Y-48455000D01*
X230050000Y-48453000D01*
X230050000Y-48450000D01*
X230050000Y-47950000D01*
X230050000Y-47947000D01*
X230050000Y-47945000D01*
X230051000Y-47942000D01*
X230051000Y-47940000D01*
X230052000Y-47937000D01*
X230052000Y-47935000D01*
X230053000Y-47932000D01*
X230054000Y-47930000D01*
X230055000Y-47927000D01*
X230057000Y-47925000D01*
X230058000Y-47923000D01*
X230060000Y-47921000D01*
X230061000Y-47919000D01*
X230063000Y-47917000D01*
X230065000Y-47915000D01*
X230067000Y-47913000D01*
X230069000Y-47911000D01*
X230071000Y-47910000D01*
X230073000Y-47908000D01*
X230075000Y-47907000D01*
X230077000Y-47905000D01*
X230080000Y-47904000D01*
X230082000Y-47903000D01*
X230085000Y-47902000D01*
X230087000Y-47902000D01*
X230090000Y-47901000D01*
X230092000Y-47901000D01*
X230095000Y-47900000D01*
X230097000Y-47900000D01*
X230100000Y-47900000D01*
X230300000Y-47900000D01*
X230303000Y-47900000D01*
X230305000Y-47900000D01*
X230308000Y-47901000D01*
G36*
X230308000Y-47901000D02*
G01*
X230310000Y-47901000D01*
X230313000Y-47902000D01*
X230315000Y-47902000D01*
X230318000Y-47903000D01*
X230320000Y-47904000D01*
X230323000Y-47905000D01*
X230325000Y-47907000D01*
X230327000Y-47908000D01*
X230329000Y-47910000D01*
X230331000Y-47911000D01*
X230333000Y-47913000D01*
X230335000Y-47915000D01*
X230337000Y-47917000D01*
X230339000Y-47919000D01*
X230340000Y-47921000D01*
X230342000Y-47923000D01*
X230343000Y-47925000D01*
X230345000Y-47927000D01*
X230346000Y-47930000D01*
X230347000Y-47932000D01*
X230348000Y-47935000D01*
X230348000Y-47937000D01*
X230349000Y-47940000D01*
X230349000Y-47942000D01*
X230350000Y-47945000D01*
X230350000Y-47947000D01*
X230350000Y-47950000D01*
X230350000Y-48450000D01*
X230350000Y-48453000D01*
X230350000Y-48455000D01*
X230349000Y-48458000D01*
X230349000Y-48460000D01*
X230348000Y-48463000D01*
X230348000Y-48465000D01*
X230347000Y-48468000D01*
X230346000Y-48470000D01*
X230345000Y-48473000D01*
X230343000Y-48475000D01*
X230342000Y-48477000D01*
X230340000Y-48479000D01*
X230339000Y-48481000D01*
X230337000Y-48483000D01*
X230335000Y-48485000D01*
X230333000Y-48487000D01*
X230331000Y-48489000D01*
X230329000Y-48490000D01*
X230327000Y-48492000D01*
X230325000Y-48493000D01*
X230323000Y-48495000D01*
X230320000Y-48496000D01*
X230318000Y-48497000D01*
X230315000Y-48498000D01*
X230313000Y-48498000D01*
X230310000Y-48499000D01*
X230308000Y-48499000D01*
X230305000Y-48500000D01*
X230303000Y-48500000D01*
X230300000Y-48500000D01*
X230100000Y-48500000D01*
X230097000Y-48500000D01*
X230095000Y-48500000D01*
X230092000Y-48499000D01*
X230090000Y-48499000D01*
X230087000Y-48498000D01*
X230085000Y-48498000D01*
X230082000Y-48497000D01*
X230080000Y-48496000D01*
X230077000Y-48495000D01*
X230075000Y-48493000D01*
X230073000Y-48492000D01*
X230071000Y-48490000D01*
X230069000Y-48489000D01*
X230067000Y-48487000D01*
X230065000Y-48485000D01*
X230063000Y-48483000D01*
X230061000Y-48481000D01*
X230060000Y-48479000D01*
X230058000Y-48477000D01*
X230057000Y-48475000D01*
X230055000Y-48473000D01*
X230054000Y-48470000D01*
X230053000Y-48468000D01*
X230052000Y-48465000D01*
X230052000Y-48463000D01*
X230051000Y-48460000D01*
X230051000Y-48458000D01*
X230050000Y-48455000D01*
X230050000Y-48453000D01*
X230050000Y-48450000D01*
X230050000Y-47950000D01*
X230050000Y-47947000D01*
X230050000Y-47945000D01*
X230051000Y-47942000D01*
X230051000Y-47940000D01*
X230052000Y-47937000D01*
X230052000Y-47935000D01*
X230053000Y-47932000D01*
X230054000Y-47930000D01*
X230055000Y-47927000D01*
X230057000Y-47925000D01*
X230058000Y-47923000D01*
X230060000Y-47921000D01*
X230061000Y-47919000D01*
X230063000Y-47917000D01*
X230065000Y-47915000D01*
X230067000Y-47913000D01*
X230069000Y-47911000D01*
X230071000Y-47910000D01*
X230073000Y-47908000D01*
X230075000Y-47907000D01*
X230077000Y-47905000D01*
X230080000Y-47904000D01*
X230082000Y-47903000D01*
X230085000Y-47902000D01*
X230087000Y-47902000D01*
X230090000Y-47901000D01*
X230092000Y-47901000D01*
X230095000Y-47900000D01*
X230097000Y-47900000D01*
X230100000Y-47900000D01*
X230300000Y-47900000D01*
X230303000Y-47900000D01*
X230305000Y-47900000D01*
X230308000Y-47901000D01*
G37*
X228358000Y-44801000D02*
X228360000Y-44801000D01*
X228363000Y-44802000D01*
X228365000Y-44802000D01*
X228368000Y-44803000D01*
X228370000Y-44804000D01*
X228373000Y-44805000D01*
X228375000Y-44807000D01*
X228377000Y-44808000D01*
X228379000Y-44810000D01*
X228381000Y-44811000D01*
X228383000Y-44813000D01*
X228385000Y-44815000D01*
X228387000Y-44817000D01*
X228389000Y-44819000D01*
X228390000Y-44821000D01*
X228392000Y-44823000D01*
X228393000Y-44825000D01*
X228395000Y-44827000D01*
X228396000Y-44830000D01*
X228397000Y-44832000D01*
X228398000Y-44835000D01*
X228398000Y-44837000D01*
X228399000Y-44840000D01*
X228399000Y-44842000D01*
X228400000Y-44845000D01*
X228400000Y-44847000D01*
X228400000Y-44850000D01*
X228400000Y-45435000D01*
X228750000Y-45435000D01*
X228750000Y-44850000D01*
X228750000Y-44847000D01*
X228750000Y-44845000D01*
X228751000Y-44842000D01*
X228751000Y-44840000D01*
X228752000Y-44837000D01*
X228752000Y-44835000D01*
X228753000Y-44832000D01*
X228754000Y-44830000D01*
X228755000Y-44827000D01*
X228757000Y-44825000D01*
X228758000Y-44823000D01*
X228760000Y-44821000D01*
X228761000Y-44819000D01*
X228763000Y-44817000D01*
X228765000Y-44815000D01*
X228767000Y-44813000D01*
X228769000Y-44811000D01*
X228771000Y-44810000D01*
X228773000Y-44808000D01*
X228775000Y-44807000D01*
X228777000Y-44805000D01*
X228780000Y-44804000D01*
X228782000Y-44803000D01*
X228785000Y-44802000D01*
X228787000Y-44802000D01*
X228790000Y-44801000D01*
X228792000Y-44801000D01*
X228795000Y-44800000D01*
X228797000Y-44800000D01*
X228800000Y-44800000D01*
X229000000Y-44800000D01*
X229003000Y-44800000D01*
X229005000Y-44800000D01*
X229008000Y-44801000D01*
X229010000Y-44801000D01*
X229013000Y-44802000D01*
X229015000Y-44802000D01*
X229018000Y-44803000D01*
X229020000Y-44804000D01*
X229023000Y-44805000D01*
X229025000Y-44807000D01*
X229027000Y-44808000D01*
X229029000Y-44810000D01*
X229031000Y-44811000D01*
X229033000Y-44813000D01*
X229035000Y-44815000D01*
X229037000Y-44817000D01*
X229039000Y-44819000D01*
X229040000Y-44821000D01*
X229042000Y-44823000D01*
X229043000Y-44825000D01*
X229045000Y-44827000D01*
X229046000Y-44830000D01*
X229047000Y-44832000D01*
X229048000Y-44835000D01*
X229048000Y-44837000D01*
X229049000Y-44840000D01*
X229049000Y-44842000D01*
X229050000Y-44845000D01*
X229050000Y-44847000D01*
X229050000Y-44850000D01*
X229050000Y-45435000D01*
X229400000Y-45435000D01*
X229400000Y-44850000D01*
X229400000Y-44847000D01*
X229400000Y-44845000D01*
X229401000Y-44842000D01*
X229401000Y-44840000D01*
X229402000Y-44837000D01*
X229402000Y-44835000D01*
X229403000Y-44832000D01*
X229404000Y-44830000D01*
X229405000Y-44827000D01*
X229407000Y-44825000D01*
X229408000Y-44823000D01*
X229410000Y-44821000D01*
X229411000Y-44819000D01*
X229413000Y-44817000D01*
X229415000Y-44815000D01*
X229417000Y-44813000D01*
X229419000Y-44811000D01*
X229421000Y-44810000D01*
X229423000Y-44808000D01*
X229425000Y-44807000D01*
X229427000Y-44805000D01*
X229430000Y-44804000D01*
X229432000Y-44803000D01*
X229435000Y-44802000D01*
X229437000Y-44802000D01*
X229440000Y-44801000D01*
X229442000Y-44801000D01*
X229445000Y-44800000D01*
X229447000Y-44800000D01*
X229450000Y-44800000D01*
X229650000Y-44800000D01*
X229653000Y-44800000D01*
X229655000Y-44800000D01*
X229658000Y-44801000D01*
X229660000Y-44801000D01*
X229663000Y-44802000D01*
X229665000Y-44802000D01*
X229668000Y-44803000D01*
X229670000Y-44804000D01*
X229673000Y-44805000D01*
X229675000Y-44807000D01*
X229677000Y-44808000D01*
X229679000Y-44810000D01*
X229681000Y-44811000D01*
X229683000Y-44813000D01*
X229685000Y-44815000D01*
X229687000Y-44817000D01*
X229689000Y-44819000D01*
X229690000Y-44821000D01*
X229692000Y-44823000D01*
X229693000Y-44825000D01*
X229695000Y-44827000D01*
X229696000Y-44830000D01*
X229697000Y-44832000D01*
X229698000Y-44835000D01*
X229698000Y-44837000D01*
X229699000Y-44840000D01*
X229699000Y-44842000D01*
X229700000Y-44845000D01*
X229700000Y-44847000D01*
X229700000Y-44850000D01*
X229700000Y-45435000D01*
X230050000Y-45435000D01*
X230050000Y-44850000D01*
X230050000Y-44847000D01*
X230050000Y-44845000D01*
X230051000Y-44842000D01*
X230051000Y-44840000D01*
X230052000Y-44837000D01*
X230052000Y-44835000D01*
X230053000Y-44832000D01*
X230054000Y-44830000D01*
X230055000Y-44827000D01*
X230057000Y-44825000D01*
X230058000Y-44823000D01*
X230060000Y-44821000D01*
X230061000Y-44819000D01*
X230063000Y-44817000D01*
X230065000Y-44815000D01*
X230067000Y-44813000D01*
X230069000Y-44811000D01*
X230071000Y-44810000D01*
X230073000Y-44808000D01*
X230075000Y-44807000D01*
X230077000Y-44805000D01*
X230080000Y-44804000D01*
X230082000Y-44803000D01*
X230085000Y-44802000D01*
X230087000Y-44802000D01*
X230090000Y-44801000D01*
X230092000Y-44801000D01*
X230095000Y-44800000D01*
X230097000Y-44800000D01*
X230100000Y-44800000D01*
X230300000Y-44800000D01*
X230303000Y-44800000D01*
X230305000Y-44800000D01*
X230308000Y-44801000D01*
X230310000Y-44801000D01*
X230313000Y-44802000D01*
X230315000Y-44802000D01*
X230318000Y-44803000D01*
X230320000Y-44804000D01*
X230323000Y-44805000D01*
X230325000Y-44807000D01*
X230327000Y-44808000D01*
X230329000Y-44810000D01*
X230331000Y-44811000D01*
X230333000Y-44813000D01*
X230335000Y-44815000D01*
X230337000Y-44817000D01*
X230339000Y-44819000D01*
X230340000Y-44821000D01*
X230342000Y-44823000D01*
X230343000Y-44825000D01*
X230345000Y-44827000D01*
X230346000Y-44830000D01*
X230347000Y-44832000D01*
X230348000Y-44835000D01*
X230348000Y-44837000D01*
X230349000Y-44840000D01*
X230349000Y-44842000D01*
X230350000Y-44845000D01*
X230350000Y-44847000D01*
X230350000Y-44850000D01*
X230350000Y-45435000D01*
X230400000Y-45435000D01*
X230403000Y-45435000D01*
X230405000Y-45435000D01*
X230408000Y-45436000D01*
X230410000Y-45436000D01*
X230413000Y-45437000D01*
X230415000Y-45437000D01*
X230418000Y-45438000D01*
X230420000Y-45439000D01*
X230423000Y-45440000D01*
X230425000Y-45442000D01*
X230427000Y-45443000D01*
X230429000Y-45445000D01*
X230431000Y-45446000D01*
X230433000Y-45448000D01*
X230435000Y-45450000D01*
X230437000Y-45452000D01*
X230439000Y-45454000D01*
X230440000Y-45456000D01*
X230442000Y-45458000D01*
X230443000Y-45460000D01*
X230445000Y-45462000D01*
X230446000Y-45465000D01*
X230447000Y-45467000D01*
X230448000Y-45470000D01*
X230448000Y-45472000D01*
X230449000Y-45475000D01*
X230449000Y-45477000D01*
X230450000Y-45480000D01*
X230450000Y-45482000D01*
X230450000Y-45485000D01*
X230450000Y-47160000D01*
X230450000Y-47163000D01*
X230450000Y-47165000D01*
X230449000Y-47168000D01*
X230449000Y-47170000D01*
X230448000Y-47173000D01*
X230448000Y-47175000D01*
X230447000Y-47178000D01*
X230446000Y-47180000D01*
X230445000Y-47183000D01*
X230443000Y-47185000D01*
X230442000Y-47187000D01*
X230440000Y-47189000D01*
X230439000Y-47191000D01*
X230437000Y-47193000D01*
X230435000Y-47195000D01*
X230433000Y-47197000D01*
X230431000Y-47199000D01*
X230429000Y-47200000D01*
X230427000Y-47202000D01*
X230425000Y-47203000D01*
X230423000Y-47205000D01*
X230420000Y-47206000D01*
X230418000Y-47207000D01*
X230415000Y-47208000D01*
X230413000Y-47208000D01*
X230410000Y-47209000D01*
X230408000Y-47209000D01*
X230405000Y-47210000D01*
X230403000Y-47210000D01*
X230400000Y-47210000D01*
X228050000Y-47210000D01*
X228047000Y-47210000D01*
X228045000Y-47210000D01*
X228042000Y-47209000D01*
X228040000Y-47209000D01*
X228037000Y-47208000D01*
X228035000Y-47208000D01*
X228032000Y-47207000D01*
X228030000Y-47206000D01*
X228027000Y-47205000D01*
X228025000Y-47203000D01*
X228023000Y-47202000D01*
X228021000Y-47200000D01*
X228019000Y-47199000D01*
X228017000Y-47197000D01*
X228015000Y-47195000D01*
X228013000Y-47193000D01*
X228011000Y-47191000D01*
X228010000Y-47189000D01*
X228008000Y-47187000D01*
X228007000Y-47185000D01*
X228005000Y-47183000D01*
X228004000Y-47180000D01*
X228003000Y-47178000D01*
X228002000Y-47175000D01*
X228002000Y-47173000D01*
X228001000Y-47170000D01*
X228001000Y-47168000D01*
X228000000Y-47165000D01*
X228000000Y-47163000D01*
X228000000Y-47160000D01*
X228000000Y-45485000D01*
X228000000Y-45482000D01*
X228000000Y-45480000D01*
X228001000Y-45477000D01*
X228001000Y-45475000D01*
X228002000Y-45472000D01*
X228002000Y-45470000D01*
X228003000Y-45467000D01*
X228004000Y-45465000D01*
X228005000Y-45462000D01*
X228007000Y-45460000D01*
X228008000Y-45458000D01*
X228010000Y-45456000D01*
X228011000Y-45454000D01*
X228013000Y-45452000D01*
X228015000Y-45450000D01*
X228017000Y-45448000D01*
X228019000Y-45446000D01*
X228021000Y-45445000D01*
X228023000Y-45443000D01*
X228025000Y-45442000D01*
X228027000Y-45440000D01*
X228030000Y-45439000D01*
X228032000Y-45438000D01*
X228035000Y-45437000D01*
X228037000Y-45437000D01*
X228040000Y-45436000D01*
X228042000Y-45436000D01*
X228045000Y-45435000D01*
X228047000Y-45435000D01*
X228050000Y-45435000D01*
X228100000Y-45435000D01*
X228100000Y-44850000D01*
X228100000Y-44847000D01*
X228100000Y-44845000D01*
X228101000Y-44842000D01*
X228101000Y-44840000D01*
X228102000Y-44837000D01*
X228102000Y-44835000D01*
X228103000Y-44832000D01*
X228104000Y-44830000D01*
X228105000Y-44827000D01*
X228107000Y-44825000D01*
X228108000Y-44823000D01*
X228110000Y-44821000D01*
X228111000Y-44819000D01*
X228113000Y-44817000D01*
X228115000Y-44815000D01*
X228117000Y-44813000D01*
X228119000Y-44811000D01*
X228121000Y-44810000D01*
X228123000Y-44808000D01*
X228125000Y-44807000D01*
X228127000Y-44805000D01*
X228130000Y-44804000D01*
X228132000Y-44803000D01*
X228135000Y-44802000D01*
X228137000Y-44802000D01*
X228140000Y-44801000D01*
X228142000Y-44801000D01*
X228145000Y-44800000D01*
X228147000Y-44800000D01*
X228150000Y-44800000D01*
X228350000Y-44800000D01*
X228353000Y-44800000D01*
X228355000Y-44800000D01*
X228358000Y-44801000D01*
G36*
X228358000Y-44801000D02*
G01*
X228360000Y-44801000D01*
X228363000Y-44802000D01*
X228365000Y-44802000D01*
X228368000Y-44803000D01*
X228370000Y-44804000D01*
X228373000Y-44805000D01*
X228375000Y-44807000D01*
X228377000Y-44808000D01*
X228379000Y-44810000D01*
X228381000Y-44811000D01*
X228383000Y-44813000D01*
X228385000Y-44815000D01*
X228387000Y-44817000D01*
X228389000Y-44819000D01*
X228390000Y-44821000D01*
X228392000Y-44823000D01*
X228393000Y-44825000D01*
X228395000Y-44827000D01*
X228396000Y-44830000D01*
X228397000Y-44832000D01*
X228398000Y-44835000D01*
X228398000Y-44837000D01*
X228399000Y-44840000D01*
X228399000Y-44842000D01*
X228400000Y-44845000D01*
X228400000Y-44847000D01*
X228400000Y-44850000D01*
X228400000Y-45435000D01*
X228750000Y-45435000D01*
X228750000Y-44850000D01*
X228750000Y-44847000D01*
X228750000Y-44845000D01*
X228751000Y-44842000D01*
X228751000Y-44840000D01*
X228752000Y-44837000D01*
X228752000Y-44835000D01*
X228753000Y-44832000D01*
X228754000Y-44830000D01*
X228755000Y-44827000D01*
X228757000Y-44825000D01*
X228758000Y-44823000D01*
X228760000Y-44821000D01*
X228761000Y-44819000D01*
X228763000Y-44817000D01*
X228765000Y-44815000D01*
X228767000Y-44813000D01*
X228769000Y-44811000D01*
X228771000Y-44810000D01*
X228773000Y-44808000D01*
X228775000Y-44807000D01*
X228777000Y-44805000D01*
X228780000Y-44804000D01*
X228782000Y-44803000D01*
X228785000Y-44802000D01*
X228787000Y-44802000D01*
X228790000Y-44801000D01*
X228792000Y-44801000D01*
X228795000Y-44800000D01*
X228797000Y-44800000D01*
X228800000Y-44800000D01*
X229000000Y-44800000D01*
X229003000Y-44800000D01*
X229005000Y-44800000D01*
X229008000Y-44801000D01*
X229010000Y-44801000D01*
X229013000Y-44802000D01*
X229015000Y-44802000D01*
X229018000Y-44803000D01*
X229020000Y-44804000D01*
X229023000Y-44805000D01*
X229025000Y-44807000D01*
X229027000Y-44808000D01*
X229029000Y-44810000D01*
X229031000Y-44811000D01*
X229033000Y-44813000D01*
X229035000Y-44815000D01*
X229037000Y-44817000D01*
X229039000Y-44819000D01*
X229040000Y-44821000D01*
X229042000Y-44823000D01*
X229043000Y-44825000D01*
X229045000Y-44827000D01*
X229046000Y-44830000D01*
X229047000Y-44832000D01*
X229048000Y-44835000D01*
X229048000Y-44837000D01*
X229049000Y-44840000D01*
X229049000Y-44842000D01*
X229050000Y-44845000D01*
X229050000Y-44847000D01*
X229050000Y-44850000D01*
X229050000Y-45435000D01*
X229400000Y-45435000D01*
X229400000Y-44850000D01*
X229400000Y-44847000D01*
X229400000Y-44845000D01*
X229401000Y-44842000D01*
X229401000Y-44840000D01*
X229402000Y-44837000D01*
X229402000Y-44835000D01*
X229403000Y-44832000D01*
X229404000Y-44830000D01*
X229405000Y-44827000D01*
X229407000Y-44825000D01*
X229408000Y-44823000D01*
X229410000Y-44821000D01*
X229411000Y-44819000D01*
X229413000Y-44817000D01*
X229415000Y-44815000D01*
X229417000Y-44813000D01*
X229419000Y-44811000D01*
X229421000Y-44810000D01*
X229423000Y-44808000D01*
X229425000Y-44807000D01*
X229427000Y-44805000D01*
X229430000Y-44804000D01*
X229432000Y-44803000D01*
X229435000Y-44802000D01*
X229437000Y-44802000D01*
X229440000Y-44801000D01*
X229442000Y-44801000D01*
X229445000Y-44800000D01*
X229447000Y-44800000D01*
X229450000Y-44800000D01*
X229650000Y-44800000D01*
X229653000Y-44800000D01*
X229655000Y-44800000D01*
X229658000Y-44801000D01*
X229660000Y-44801000D01*
X229663000Y-44802000D01*
X229665000Y-44802000D01*
X229668000Y-44803000D01*
X229670000Y-44804000D01*
X229673000Y-44805000D01*
X229675000Y-44807000D01*
X229677000Y-44808000D01*
X229679000Y-44810000D01*
X229681000Y-44811000D01*
X229683000Y-44813000D01*
X229685000Y-44815000D01*
X229687000Y-44817000D01*
X229689000Y-44819000D01*
X229690000Y-44821000D01*
X229692000Y-44823000D01*
X229693000Y-44825000D01*
X229695000Y-44827000D01*
X229696000Y-44830000D01*
X229697000Y-44832000D01*
X229698000Y-44835000D01*
X229698000Y-44837000D01*
X229699000Y-44840000D01*
X229699000Y-44842000D01*
X229700000Y-44845000D01*
X229700000Y-44847000D01*
X229700000Y-44850000D01*
X229700000Y-45435000D01*
X230050000Y-45435000D01*
X230050000Y-44850000D01*
X230050000Y-44847000D01*
X230050000Y-44845000D01*
X230051000Y-44842000D01*
X230051000Y-44840000D01*
X230052000Y-44837000D01*
X230052000Y-44835000D01*
X230053000Y-44832000D01*
X230054000Y-44830000D01*
X230055000Y-44827000D01*
X230057000Y-44825000D01*
X230058000Y-44823000D01*
X230060000Y-44821000D01*
X230061000Y-44819000D01*
X230063000Y-44817000D01*
X230065000Y-44815000D01*
X230067000Y-44813000D01*
X230069000Y-44811000D01*
X230071000Y-44810000D01*
X230073000Y-44808000D01*
X230075000Y-44807000D01*
X230077000Y-44805000D01*
X230080000Y-44804000D01*
X230082000Y-44803000D01*
X230085000Y-44802000D01*
X230087000Y-44802000D01*
X230090000Y-44801000D01*
X230092000Y-44801000D01*
X230095000Y-44800000D01*
X230097000Y-44800000D01*
X230100000Y-44800000D01*
X230300000Y-44800000D01*
X230303000Y-44800000D01*
X230305000Y-44800000D01*
X230308000Y-44801000D01*
X230310000Y-44801000D01*
X230313000Y-44802000D01*
X230315000Y-44802000D01*
X230318000Y-44803000D01*
X230320000Y-44804000D01*
X230323000Y-44805000D01*
X230325000Y-44807000D01*
X230327000Y-44808000D01*
X230329000Y-44810000D01*
X230331000Y-44811000D01*
X230333000Y-44813000D01*
X230335000Y-44815000D01*
X230337000Y-44817000D01*
X230339000Y-44819000D01*
X230340000Y-44821000D01*
X230342000Y-44823000D01*
X230343000Y-44825000D01*
X230345000Y-44827000D01*
X230346000Y-44830000D01*
X230347000Y-44832000D01*
X230348000Y-44835000D01*
X230348000Y-44837000D01*
X230349000Y-44840000D01*
X230349000Y-44842000D01*
X230350000Y-44845000D01*
X230350000Y-44847000D01*
X230350000Y-44850000D01*
X230350000Y-45435000D01*
X230400000Y-45435000D01*
X230403000Y-45435000D01*
X230405000Y-45435000D01*
X230408000Y-45436000D01*
X230410000Y-45436000D01*
X230413000Y-45437000D01*
X230415000Y-45437000D01*
X230418000Y-45438000D01*
X230420000Y-45439000D01*
X230423000Y-45440000D01*
X230425000Y-45442000D01*
X230427000Y-45443000D01*
X230429000Y-45445000D01*
X230431000Y-45446000D01*
X230433000Y-45448000D01*
X230435000Y-45450000D01*
X230437000Y-45452000D01*
X230439000Y-45454000D01*
X230440000Y-45456000D01*
X230442000Y-45458000D01*
X230443000Y-45460000D01*
X230445000Y-45462000D01*
X230446000Y-45465000D01*
X230447000Y-45467000D01*
X230448000Y-45470000D01*
X230448000Y-45472000D01*
X230449000Y-45475000D01*
X230449000Y-45477000D01*
X230450000Y-45480000D01*
X230450000Y-45482000D01*
X230450000Y-45485000D01*
X230450000Y-47160000D01*
X230450000Y-47163000D01*
X230450000Y-47165000D01*
X230449000Y-47168000D01*
X230449000Y-47170000D01*
X230448000Y-47173000D01*
X230448000Y-47175000D01*
X230447000Y-47178000D01*
X230446000Y-47180000D01*
X230445000Y-47183000D01*
X230443000Y-47185000D01*
X230442000Y-47187000D01*
X230440000Y-47189000D01*
X230439000Y-47191000D01*
X230437000Y-47193000D01*
X230435000Y-47195000D01*
X230433000Y-47197000D01*
X230431000Y-47199000D01*
X230429000Y-47200000D01*
X230427000Y-47202000D01*
X230425000Y-47203000D01*
X230423000Y-47205000D01*
X230420000Y-47206000D01*
X230418000Y-47207000D01*
X230415000Y-47208000D01*
X230413000Y-47208000D01*
X230410000Y-47209000D01*
X230408000Y-47209000D01*
X230405000Y-47210000D01*
X230403000Y-47210000D01*
X230400000Y-47210000D01*
X228050000Y-47210000D01*
X228047000Y-47210000D01*
X228045000Y-47210000D01*
X228042000Y-47209000D01*
X228040000Y-47209000D01*
X228037000Y-47208000D01*
X228035000Y-47208000D01*
X228032000Y-47207000D01*
X228030000Y-47206000D01*
X228027000Y-47205000D01*
X228025000Y-47203000D01*
X228023000Y-47202000D01*
X228021000Y-47200000D01*
X228019000Y-47199000D01*
X228017000Y-47197000D01*
X228015000Y-47195000D01*
X228013000Y-47193000D01*
X228011000Y-47191000D01*
X228010000Y-47189000D01*
X228008000Y-47187000D01*
X228007000Y-47185000D01*
X228005000Y-47183000D01*
X228004000Y-47180000D01*
X228003000Y-47178000D01*
X228002000Y-47175000D01*
X228002000Y-47173000D01*
X228001000Y-47170000D01*
X228001000Y-47168000D01*
X228000000Y-47165000D01*
X228000000Y-47163000D01*
X228000000Y-47160000D01*
X228000000Y-45485000D01*
X228000000Y-45482000D01*
X228000000Y-45480000D01*
X228001000Y-45477000D01*
X228001000Y-45475000D01*
X228002000Y-45472000D01*
X228002000Y-45470000D01*
X228003000Y-45467000D01*
X228004000Y-45465000D01*
X228005000Y-45462000D01*
X228007000Y-45460000D01*
X228008000Y-45458000D01*
X228010000Y-45456000D01*
X228011000Y-45454000D01*
X228013000Y-45452000D01*
X228015000Y-45450000D01*
X228017000Y-45448000D01*
X228019000Y-45446000D01*
X228021000Y-45445000D01*
X228023000Y-45443000D01*
X228025000Y-45442000D01*
X228027000Y-45440000D01*
X228030000Y-45439000D01*
X228032000Y-45438000D01*
X228035000Y-45437000D01*
X228037000Y-45437000D01*
X228040000Y-45436000D01*
X228042000Y-45436000D01*
X228045000Y-45435000D01*
X228047000Y-45435000D01*
X228050000Y-45435000D01*
X228100000Y-45435000D01*
X228100000Y-44850000D01*
X228100000Y-44847000D01*
X228100000Y-44845000D01*
X228101000Y-44842000D01*
X228101000Y-44840000D01*
X228102000Y-44837000D01*
X228102000Y-44835000D01*
X228103000Y-44832000D01*
X228104000Y-44830000D01*
X228105000Y-44827000D01*
X228107000Y-44825000D01*
X228108000Y-44823000D01*
X228110000Y-44821000D01*
X228111000Y-44819000D01*
X228113000Y-44817000D01*
X228115000Y-44815000D01*
X228117000Y-44813000D01*
X228119000Y-44811000D01*
X228121000Y-44810000D01*
X228123000Y-44808000D01*
X228125000Y-44807000D01*
X228127000Y-44805000D01*
X228130000Y-44804000D01*
X228132000Y-44803000D01*
X228135000Y-44802000D01*
X228137000Y-44802000D01*
X228140000Y-44801000D01*
X228142000Y-44801000D01*
X228145000Y-44800000D01*
X228147000Y-44800000D01*
X228150000Y-44800000D01*
X228350000Y-44800000D01*
X228353000Y-44800000D01*
X228355000Y-44800000D01*
X228358000Y-44801000D01*
G37*
%TD*%
D11*
%TO.C,R34*%
X224675000Y-74750000D03*
X226325000Y-74750000D03*
%TD*%
D12*
%TO.C,R20*%
X229250000Y-52500000D03*
X229250000Y-50850000D03*
%TD*%
%TO.C,R23*%
X195250000Y-76825000D03*
X195250000Y-75175000D03*
%TD*%
D13*
%TO.C,TP8*%
X187500000Y-42000000D03*
%TD*%
D14*
%TO.C,C34*%
X220055000Y-82250000D03*
X218495000Y-82250000D03*
%TD*%
D13*
%TO.C,TP13*%
X194500000Y-72500000D03*
%TD*%
D15*
%TO.C,U3*%
X182474760Y-75997000D03*
X183749760Y-75997000D03*
X184999760Y-75997000D03*
X186279750Y-76000000D03*
X182474760Y-70747000D03*
X183749760Y-70747000D03*
X184999760Y-70747000D03*
D16*
X184375692Y-71192625D03*
D15*
X186279750Y-70750000D03*
D17*
X184416010Y-73273500D03*
%TD*%
D18*
%TO.C,C21*%
X223500000Y-63900000D03*
X223500000Y-66600000D03*
%TD*%
D19*
%TO.C,F1*%
X172710000Y-70000000D03*
X177790000Y-70000000D03*
%TD*%
D20*
%TO.C,D5*%
X187787500Y-79000000D03*
X186212500Y-79000000D03*
%TD*%
D11*
%TO.C,R24*%
X199987500Y-75250000D03*
X201637500Y-75250000D03*
%TD*%
D21*
%TO.C,J2*%
X171750000Y-56000000D03*
%TD*%
D12*
%TO.C,R17*%
X225000000Y-47112500D03*
X225000000Y-45462500D03*
%TD*%
D22*
%TO.C,C27*%
X208690000Y-70750000D03*
X210250000Y-70750000D03*
%TD*%
D21*
%TO.C,L2*%
X226725000Y-69500000D03*
D23*
X229265000Y-69500000D03*
%TD*%
D24*
%TO.C,U4*%
X236450000Y-52995000D03*
X235500000Y-52995000D03*
X234550000Y-52995000D03*
X234550000Y-55505000D03*
X236450000Y-55505000D03*
%TD*%
D14*
%TO.C,C20*%
X234280000Y-50500000D03*
X232720000Y-50500000D03*
%TD*%
D25*
%TO.C,R16*%
X186250000Y-83925000D03*
X186250000Y-85575000D03*
%TD*%
D11*
%TO.C,R33*%
X222850000Y-83000000D03*
X224500000Y-83000000D03*
%TD*%
D21*
%TO.C,L1*%
X177725000Y-54000000D03*
D23*
X180265000Y-54000000D03*
%TD*%
D26*
%TO.C,D7*%
X186088000Y-81500000D03*
X188412000Y-81500000D03*
%TD*%
D27*
%TO.C,C23*%
X229552651Y-58750000D03*
D28*
X225752651Y-58750000D03*
%TD*%
D11*
%TO.C,R35*%
X221350000Y-76750000D03*
X223000000Y-76750000D03*
%TD*%
%TO.C,R8*%
X178675000Y-56750000D03*
X180325000Y-56750000D03*
%TD*%
D22*
%TO.C,C28*%
X198282500Y-73000000D03*
X199842500Y-73000000D03*
%TD*%
D29*
%TO.C,D6*%
X193662000Y-81500000D03*
X191338000Y-81500000D03*
%TD*%
D13*
%TO.C,TP3*%
X173500000Y-87500000D03*
%TD*%
D30*
%TO.C,JP3*%
X227850000Y-64500000D03*
D31*
X229150000Y-64500000D03*
%TD*%
D11*
%TO.C,R36*%
X224850000Y-76750000D03*
X226500000Y-76750000D03*
%TD*%
D27*
%TO.C,C3*%
X174500000Y-47550000D03*
D28*
X174500000Y-43750000D03*
%TD*%
D30*
%TO.C,JP2*%
X178350000Y-50500000D03*
D31*
X179650000Y-50500000D03*
%TD*%
D13*
%TO.C,TP10*%
X224750000Y-43750000D03*
%TD*%
D32*
%TO.C,J3*%
X232750000Y-66250000D03*
D33*
X232750000Y-64230000D03*
D34*
X232750000Y-63000000D03*
D32*
X232750000Y-65250000D03*
D33*
X232750000Y-67270000D03*
D34*
X232750000Y-68500000D03*
D35*
X232755000Y-70070000D03*
X232755000Y-61430000D03*
X236555000Y-70070000D03*
X236555000Y-61430000D03*
%TD*%
D13*
%TO.C,TP14*%
X236000000Y-58250000D03*
%TD*%
D36*
%TO.C,D8*%
X225000000Y-50325000D03*
X225000000Y-48750000D03*
%TD*%
D37*
%TO.C,R18*%
X228225000Y-43150000D03*
X226575000Y-43150000D03*
%TD*%
D11*
%TO.C,R15*%
X191175000Y-78750000D03*
X192825000Y-78750000D03*
%TD*%
D37*
%TO.C,R30*%
X219925000Y-80500000D03*
X218275000Y-80500000D03*
%TD*%
D15*
%TO.C,U2*%
X188695010Y-75997000D03*
X189970010Y-75997000D03*
X191220010Y-75997000D03*
X192500000Y-76000000D03*
X188695010Y-70747000D03*
X189970010Y-70747000D03*
X191220010Y-70747000D03*
D16*
X190595942Y-71192625D03*
D15*
X192500000Y-70750000D03*
D17*
X190636260Y-73273500D03*
%TD*%
D21*
%TO.C,J1*%
X171750000Y-76250000D03*
%TD*%
D12*
%TO.C,R19*%
X227250000Y-52500000D03*
X227250000Y-50850000D03*
%TD*%
D13*
%TO.C,TP15*%
X236750000Y-50500000D03*
%TD*%
D25*
%TO.C,R31*%
X226925000Y-78675000D03*
X226925000Y-80325000D03*
%TD*%
D22*
%TO.C,C19*%
X229945000Y-43150000D03*
X231505000Y-43150000D03*
%TD*%
D11*
%TO.C,R38*%
X223350000Y-85500000D03*
X225000000Y-85500000D03*
%TD*%
D38*
%TO.C,T1*%
X190560000Y-45600000D03*
X190560000Y-49360000D03*
X190560000Y-53120000D03*
X190560000Y-56880000D03*
X190560000Y-60640000D03*
X190560000Y-64400000D03*
X220940000Y-64400000D03*
X220940000Y-60640000D03*
X220940000Y-56880000D03*
X220940000Y-53120000D03*
X220940000Y-49360000D03*
X220940000Y-45600000D03*
%TD*%
D39*
%TO.C,Q2*%
X228250000Y-46405000D03*
X228250000Y-45500000D03*
X229225000Y-46857000D03*
X229225000Y-45952000D03*
X229225000Y-45047000D03*
X230200000Y-46405000D03*
X230200000Y-45500000D03*
%TD*%
D40*
%TO.C,C18*%
X232250000Y-55530000D03*
X232250000Y-53970000D03*
%TD*%
D22*
%TO.C,C24*%
X205190000Y-70750000D03*
X206750000Y-70750000D03*
%TD*%
D27*
%TO.C,C4*%
X181447349Y-45750000D03*
D28*
X185247349Y-45750000D03*
%TD*%
D13*
%TO.C,TP12*%
X227750000Y-66500000D03*
%TD*%
D41*
%TO.C,C33*%
X216675000Y-80690000D03*
X216675000Y-82250000D03*
%TD*%
D22*
%TO.C,C32*%
X222895000Y-78500000D03*
X224455000Y-78500000D03*
%TD*%
D11*
%TO.C,R29*%
X222850000Y-80750000D03*
X224500000Y-80750000D03*
%TD*%
%TO.C,R22*%
X196737500Y-75250000D03*
X198387500Y-75250000D03*
%TD*%
D18*
%TO.C,C22*%
X225750000Y-63900000D03*
X225750000Y-66600000D03*
%TD*%
D42*
%TO.C,U5*%
X213170000Y-82020000D03*
X213170000Y-79480000D03*
X201830000Y-79480000D03*
X201830000Y-82020000D03*
%TD*%
D43*
%TO.C,Q3*%
X197125000Y-77800000D03*
X197125000Y-79700000D03*
X199000000Y-78750000D03*
%TD*%
D11*
%TO.C,R39*%
X223350000Y-87250000D03*
X225000000Y-87250000D03*
%TD*%
D44*
%TO.C,D3*%
X171830000Y-80215000D03*
X171830000Y-84785000D03*
D45*
X177750000Y-82500000D03*
%TD*%
D46*
%TO.C,DB1*%
X181910000Y-65550000D03*
X181910000Y-60450000D03*
X173090000Y-60450000D03*
X173090000Y-65550000D03*
%TD*%
D39*
%TO.C,Q4*%
X228275000Y-73745000D03*
X228275000Y-74650000D03*
X229250000Y-73293000D03*
X229250000Y-74198000D03*
X229250000Y-75103000D03*
X230225000Y-73745000D03*
X230225000Y-74650000D03*
%TD*%
D21*
%TO.C,TH1*%
X192475000Y-89000000D03*
D23*
X195015000Y-89000000D03*
%TD*%
M02*
