%TF.GenerationSoftware,KiCad,Pcbnew,9.0.5*%
%TF.CreationDate,2025-10-24T12:46:40+03:00*%
%TF.ProjectId,40W SMPS,34305720-534d-4505-932e-6b696361645f,rev?*%
%TF.SameCoordinates,Original*%
%TF.FileFunction,Copper,L2,Bot*%
%TF.FilePolarity,Positive*%
%FSLAX46Y46*%
G04 Gerber Fmt 4.6, Leading zero omitted, Abs format (unit mm)*
G04 Created by KiCad (PCBNEW 9.0.5) date 2025-10-24 12:46:40*
%MOMM*%
%LPD*%
G01*
G04 APERTURE LIST*
G04 Aperture macros list*
%AMRoundRect*
0 Rectangle with rounded corners*
0 $1 Rounding radius*
0 $2 $3 $4 $5 $6 $7 $8 $9 X,Y pos of 4 corners*
0 Add a 4 corners polygon primitive as box body*
4,1,4,$2,$3,$4,$5,$6,$7,$8,$9,$2,$3,0*
0 Add four circle primitives for the rounded corners*
1,1,$1+$1,$2,$3*
1,1,$1+$1,$4,$5*
1,1,$1+$1,$6,$7*
1,1,$1+$1,$8,$9*
0 Add four rect primitives between the rounded corners*
20,1,$1+$1,$2,$3,$4,$5,0*
20,1,$1+$1,$4,$5,$6,$7,0*
20,1,$1+$1,$6,$7,$8,$9,0*
20,1,$1+$1,$8,$9,$2,$3,0*%
%AMFreePoly0*
4,1,23,0.500000,-0.750000,0.000000,-0.750000,0.000000,-0.745722,-0.065263,-0.745722,-0.191342,-0.711940,-0.304381,-0.646677,-0.396677,-0.554381,-0.461940,-0.441342,-0.495722,-0.315263,-0.495722,-0.250000,-0.500000,-0.250000,-0.500000,0.250000,-0.495722,0.250000,-0.495722,0.315263,-0.461940,0.441342,-0.396677,0.554381,-0.304381,0.646677,-0.191342,0.711940,-0.065263,0.745722,0.000000,0.745722,
0.000000,0.750000,0.500000,0.750000,0.500000,-0.750000,0.500000,-0.750000,$1*%
%AMFreePoly1*
4,1,23,0.000000,0.745722,0.065263,0.745722,0.191342,0.711940,0.304381,0.646677,0.396677,0.554381,0.461940,0.441342,0.495722,0.315263,0.495722,0.250000,0.500000,0.250000,0.500000,-0.250000,0.495722,-0.250000,0.495722,-0.315263,0.461940,-0.441342,0.396677,-0.554381,0.304381,-0.646677,0.191342,-0.711940,0.065263,-0.745722,0.000000,-0.745722,0.000000,-0.750000,-0.500000,-0.750000,
-0.500000,0.750000,0.000000,0.750000,0.000000,0.745722,0.000000,0.745722,$1*%
G04 Aperture macros list end*
%TA.AperFunction,ComponentPad*%
%ADD10C,1.408000*%
%TD*%
%TA.AperFunction,ComponentPad*%
%ADD11R,1.700000X1.700000*%
%TD*%
%TA.AperFunction,ComponentPad*%
%ADD12O,1.700000X1.700000*%
%TD*%
%TA.AperFunction,ComponentPad*%
%ADD13R,1.600000X1.600000*%
%TD*%
%TA.AperFunction,ComponentPad*%
%ADD14C,1.600000*%
%TD*%
%TA.AperFunction,ComponentPad*%
%ADD15O,2.000000X1.000000*%
%TD*%
%TA.AperFunction,ComponentPad*%
%ADD16C,0.300000*%
%TD*%
%TA.AperFunction,SMDPad,CuDef*%
%ADD17RoundRect,0.225000X-0.225000X-0.250000X0.225000X-0.250000X0.225000X0.250000X-0.225000X0.250000X0*%
%TD*%
%TA.AperFunction,SMDPad,CuDef*%
%ADD18FreePoly0,0.000000*%
%TD*%
%TA.AperFunction,SMDPad,CuDef*%
%ADD19FreePoly1,0.000000*%
%TD*%
%TA.AperFunction,SMDPad,CuDef*%
%ADD20C,1.000000*%
%TD*%
%TA.AperFunction,SMDPad,CuDef*%
%ADD21RoundRect,0.225000X0.225000X0.250000X-0.225000X0.250000X-0.225000X-0.250000X0.225000X-0.250000X0*%
%TD*%
%TA.AperFunction,SMDPad,CuDef*%
%ADD22RoundRect,0.225000X-0.250000X0.225000X-0.250000X-0.225000X0.250000X-0.225000X0.250000X0.225000X0*%
%TD*%
%TA.AperFunction,SMDPad,CuDef*%
%ADD23RoundRect,0.200000X0.200000X0.275000X-0.200000X0.275000X-0.200000X-0.275000X0.200000X-0.275000X0*%
%TD*%
%TA.AperFunction,SMDPad,CuDef*%
%ADD24RoundRect,0.160000X-0.160000X0.197500X-0.160000X-0.197500X0.160000X-0.197500X0.160000X0.197500X0*%
%TD*%
%TA.AperFunction,SMDPad,CuDef*%
%ADD25RoundRect,0.200000X0.275000X-0.200000X0.275000X0.200000X-0.275000X0.200000X-0.275000X-0.200000X0*%
%TD*%
%TA.AperFunction,SMDPad,CuDef*%
%ADD26RoundRect,0.100000X-0.100000X0.250000X-0.100000X-0.250000X0.100000X-0.250000X0.100000X0.250000X0*%
%TD*%
%TA.AperFunction,SMDPad,CuDef*%
%ADD27RoundRect,0.062750X-1.212250X1.192250X-1.212250X-1.192250X1.212250X-1.192250X1.212250X1.192250X0*%
%TD*%
%TA.AperFunction,SMDPad,CuDef*%
%ADD28RoundRect,0.200000X-0.200000X-0.275000X0.200000X-0.275000X0.200000X0.275000X-0.200000X0.275000X0*%
%TD*%
%TA.AperFunction,SMDPad,CuDef*%
%ADD29RoundRect,0.250000X0.625000X-0.400000X0.625000X0.400000X-0.625000X0.400000X-0.625000X-0.400000X0*%
%TD*%
%TA.AperFunction,SMDPad,CuDef*%
%ADD30R,0.500000X1.075000*%
%TD*%
%TA.AperFunction,SMDPad,CuDef*%
%ADD31RoundRect,0.033750X0.396250X0.101250X-0.396250X0.101250X-0.396250X-0.101250X0.396250X-0.101250X0*%
%TD*%
%TA.AperFunction,SMDPad,CuDef*%
%ADD32RoundRect,0.033750X0.101250X0.396250X-0.101250X0.396250X-0.101250X-0.396250X0.101250X-0.396250X0*%
%TD*%
%TA.AperFunction,SMDPad,CuDef*%
%ADD33R,2.450000X2.450000*%
%TD*%
%TA.AperFunction,SMDPad,CuDef*%
%ADD34RoundRect,0.160000X0.160000X-0.197500X0.160000X0.197500X-0.160000X0.197500X-0.160000X-0.197500X0*%
%TD*%
%TA.AperFunction,SMDPad,CuDef*%
%ADD35RoundRect,0.160000X-0.197500X-0.160000X0.197500X-0.160000X0.197500X0.160000X-0.197500X0.160000X0*%
%TD*%
%TA.AperFunction,SMDPad,CuDef*%
%ADD36RoundRect,0.075000X0.910000X0.225000X-0.910000X0.225000X-0.910000X-0.225000X0.910000X-0.225000X0*%
%TD*%
%TA.AperFunction,SMDPad,CuDef*%
%ADD37RoundRect,0.225000X0.250000X-0.225000X0.250000X0.225000X-0.250000X0.225000X-0.250000X-0.225000X0*%
%TD*%
%TA.AperFunction,SMDPad,CuDef*%
%ADD38R,1.075000X0.500000*%
%TD*%
%TA.AperFunction,SMDPad,CuDef*%
%ADD39RoundRect,0.218750X-0.218750X-0.256250X0.218750X-0.256250X0.218750X0.256250X-0.218750X0.256250X0*%
%TD*%
%TA.AperFunction,SMDPad,CuDef*%
%ADD40RoundRect,0.160000X0.197500X0.160000X-0.197500X0.160000X-0.197500X-0.160000X0.197500X-0.160000X0*%
%TD*%
%TA.AperFunction,SMDPad,CuDef*%
%ADD41RoundRect,0.200000X-0.275000X0.200000X-0.275000X-0.200000X0.275000X-0.200000X0.275000X0.200000X0*%
%TD*%
%TA.AperFunction,SMDPad,CuDef*%
%ADD42RoundRect,0.100000X-0.100000X0.225000X-0.100000X-0.225000X0.100000X-0.225000X0.100000X0.225000X0*%
%TD*%
%TA.AperFunction,SMDPad,CuDef*%
%ADD43RoundRect,0.150000X-0.150000X0.587500X-0.150000X-0.587500X0.150000X-0.587500X0.150000X0.587500X0*%
%TD*%
%TA.AperFunction,ViaPad*%
%ADD44C,0.600000*%
%TD*%
%TA.AperFunction,Conductor*%
%ADD45C,1.000000*%
%TD*%
%TA.AperFunction,Conductor*%
%ADD46C,0.500000*%
%TD*%
%TA.AperFunction,Conductor*%
%ADD47C,0.200000*%
%TD*%
G04 APERTURE END LIST*
D10*
%TO.P,F1,1*%
%TO.N,Net-(J1-Pin_1)*%
X172710000Y-70000000D03*
%TO.P,F1,2*%
%TO.N,Net-(DB1-AC-Pad4)*%
X177790000Y-70000000D03*
%TD*%
D11*
%TO.P,J2,1,Pin_1*%
%TO.N,Net-(J2-Pin_1)*%
X171750000Y-56000000D03*
%TD*%
%TO.P,L2,1,1*%
%TO.N,Net-(JP3-A)*%
X226725000Y-69500000D03*
D12*
%TO.P,L2,2,2*%
%TO.N,/VBUS*%
X229265000Y-69500000D03*
%TD*%
D11*
%TO.P,L1,1,1*%
%TO.N,Net-(DB1-+)*%
X177725000Y-54000000D03*
D12*
%TO.P,L1,2,2*%
%TO.N,Net-(JP2-B)*%
X180265000Y-54000000D03*
%TD*%
D13*
%TO.P,C23,1*%
%TO.N,/VBUS*%
X229552651Y-58750000D03*
D14*
%TO.P,C23,2*%
%TO.N,GND2*%
X225752651Y-58750000D03*
%TD*%
D13*
%TO.P,C3,1*%
%TO.N,Net-(DB1-+)*%
X174500000Y-47550000D03*
D14*
%TO.P,C3,2*%
%TO.N,GND*%
X174500000Y-43750000D03*
%TD*%
D15*
%TO.P,J3,S1,SHIELD*%
%TO.N,GND2*%
X232755000Y-70070000D03*
%TO.P,J3,S2,SHIELD*%
X232755000Y-61430000D03*
%TO.P,J3,S3,SHIELD*%
X236555000Y-70070000D03*
%TO.P,J3,S4,SHIELD*%
X236555000Y-61430000D03*
%TD*%
D11*
%TO.P,J1,1,Pin_1*%
%TO.N,Net-(J1-Pin_1)*%
X171750000Y-76250000D03*
%TD*%
D16*
%TO.P,Q2,6*%
%TO.N,N/C*%
X228250000Y-46405000D03*
%TO.P,Q2,7*%
X228250000Y-45500000D03*
%TO.P,Q2,8*%
X229225000Y-46857000D03*
%TO.P,Q2,9*%
X229225000Y-45952000D03*
%TO.P,Q2,10*%
X229225000Y-45047000D03*
%TO.P,Q2,11*%
X230200000Y-46405000D03*
%TO.P,Q2,12*%
X230200000Y-45500000D03*
%TD*%
D13*
%TO.P,C4,1*%
%TO.N,Net-(JP2-B)*%
X181447349Y-45750000D03*
D14*
%TO.P,C4,2*%
%TO.N,GND*%
X185247349Y-45750000D03*
%TD*%
D17*
%TO.P,C37,1*%
%TO.N,Net-(U6-DVDD)*%
X235470000Y-83500000D03*
%TO.P,C37,2*%
%TO.N,GND2*%
X237030000Y-83500000D03*
%TD*%
D18*
%TO.P,JP1,1,A*%
%TO.N,Net-(JP1-A)*%
X187600000Y-88750000D03*
D19*
%TO.P,JP1,2,B*%
%TO.N,Net-(JP1-B)*%
X188900000Y-88750000D03*
%TD*%
D20*
%TO.P,TP18,1,1*%
%TO.N,/CC2*%
X235750000Y-73000000D03*
%TD*%
%TO.P,TP20,1,1*%
%TO.N,/UFP*%
X230500000Y-85250000D03*
%TD*%
D17*
%TO.P,C11,1*%
%TO.N,Net-(JP2-B)*%
X185470000Y-51250000D03*
%TO.P,C11,2*%
%TO.N,/VIN*%
X187030000Y-51250000D03*
%TD*%
D21*
%TO.P,C5,1*%
%TO.N,Net-(JP2-B)*%
X183294000Y-51250000D03*
%TO.P,C5,2*%
%TO.N,GND*%
X181734000Y-51250000D03*
%TD*%
D22*
%TO.P,C29,1*%
%TO.N,GND2*%
X233000000Y-75970000D03*
%TO.P,C29,2*%
%TO.N,/VBUS*%
X233000000Y-77530000D03*
%TD*%
D17*
%TO.P,C10,1*%
%TO.N,Net-(JP2-B)*%
X185484000Y-53000000D03*
%TO.P,C10,2*%
%TO.N,/VIN*%
X187044000Y-53000000D03*
%TD*%
D23*
%TO.P,R11,1*%
%TO.N,/VIN*%
X187075000Y-54750000D03*
%TO.P,R11,2*%
%TO.N,Net-(JP2-B)*%
X185425000Y-54750000D03*
%TD*%
D20*
%TO.P,TP22,1,1*%
%TO.N,/CTL2*%
X227000000Y-87500000D03*
%TD*%
D24*
%TO.P,R26,1*%
%TO.N,Net-(Q4-G)*%
X226500000Y-71902500D03*
%TO.P,R26,2*%
%TO.N,/GDNG*%
X226500000Y-73097500D03*
%TD*%
D25*
%TO.P,R4,1*%
%TO.N,Net-(JP1-A)*%
X185250000Y-89325000D03*
%TO.P,R4,2*%
%TO.N,/PRI_BIAS*%
X185250000Y-87675000D03*
%TD*%
D26*
%TO.P,Q4,1,D*%
%TO.N,/VBUS*%
X228275000Y-71950000D03*
%TO.P,Q4,2,G*%
%TO.N,Net-(Q4-G)*%
X228925000Y-71950000D03*
%TO.P,Q4,3,S*%
%TO.N,/GDNS*%
X229575000Y-71950000D03*
%TO.P,Q4,4*%
%TO.N,N/C*%
X230225000Y-71950000D03*
D27*
%TO.P,Q4,5*%
X229250000Y-74145000D03*
D16*
%TO.P,Q4,6*%
X228275000Y-73745000D03*
%TO.P,Q4,7*%
X228275000Y-74650000D03*
%TO.P,Q4,8*%
X229250000Y-73293000D03*
%TO.P,Q4,9*%
X229250000Y-74198000D03*
%TO.P,Q4,10*%
X229250000Y-75103000D03*
%TO.P,Q4,11*%
X230225000Y-73745000D03*
%TO.P,Q4,12*%
X230225000Y-74650000D03*
%TD*%
D28*
%TO.P,R13,1*%
%TO.N,GND*%
X184175000Y-67750000D03*
%TO.P,R13,2*%
%TO.N,/VS*%
X185825000Y-67750000D03*
%TD*%
D29*
%TO.P,R28,1*%
%TO.N,/GDNS*%
X227750000Y-66550000D03*
%TO.P,R28,2*%
%TO.N,/V-BUS*%
X227750000Y-63450000D03*
%TD*%
D30*
%TO.P,D2,1,K*%
%TO.N,/HVG*%
X212500000Y-86338000D03*
%TO.P,D2,2,A*%
%TO.N,GND*%
X212500000Y-88662000D03*
%TD*%
D20*
%TO.P,TP7,1,1*%
%TO.N,/PRI_BIAS*%
X203250000Y-72000000D03*
%TD*%
%TO.P,TP4,1,1*%
%TO.N,/PWMH*%
X199000000Y-87250000D03*
%TD*%
%TO.P,TP9,1,1*%
%TO.N,Net-(D5-K)*%
X188750000Y-80500000D03*
%TD*%
D31*
%TO.P,U6,1,VTX*%
%TO.N,Net-(U6-VTX)*%
X233151000Y-80000000D03*
%TO.P,U6,2,CC1*%
%TO.N,/CC1*%
X233151000Y-80500000D03*
%TO.P,U6,3,CC2*%
%TO.N,/CC2*%
X233151000Y-81000000D03*
%TO.P,U6,4,GND*%
%TO.N,GND2*%
X233151000Y-81500000D03*
%TO.P,U6,5,HIPWR*%
%TO.N,Net-(U6-DVDD)*%
X233151000Y-82000000D03*
%TO.P,U6,6,CTL1*%
%TO.N,/CTL1*%
X233151000Y-82500000D03*
D32*
%TO.P,U6,7,CTL2*%
%TO.N,/CTL2*%
X232466000Y-83185000D03*
%TO.P,U6,8,~{EN12V}/~{EN9V}*%
%TO.N,GND2*%
X231966000Y-83185000D03*
%TO.P,U6,9*%
%TO.N,N/C*%
X231466000Y-83185000D03*
%TO.P,U6,10*%
X230966000Y-83185000D03*
%TO.P,U6,11,~{UFP}*%
%TO.N,/UFP*%
X230466000Y-83185000D03*
%TO.P,U6,12,PSEL*%
%TO.N,Net-(U6-PSEL)*%
X229966000Y-83185000D03*
D31*
%TO.P,U6,13,DVDD*%
%TO.N,Net-(U6-DVDD)*%
X229281000Y-82500000D03*
%TO.P,U6,14,PCTRL*%
%TO.N,Net-(U6-PCTRL)*%
X229281000Y-82000000D03*
%TO.P,U6,15,~{GD}*%
%TO.N,Net-(U6-VAUX)*%
X229281000Y-81500000D03*
%TO.P,U6,16,VAUX*%
X229281000Y-81000000D03*
%TO.P,U6,17,VDD*%
%TO.N,GND2*%
X229281000Y-80500000D03*
%TO.P,U6,18,AGND*%
X229281000Y-80000000D03*
D32*
%TO.P,U6,19,ISNS*%
%TO.N,/ISNS*%
X229966000Y-79315000D03*
%TO.P,U6,20,VPWR*%
%TO.N,/VBUS*%
X230466000Y-79315000D03*
%TO.P,U6,21,VBUS*%
X230966000Y-79315000D03*
%TO.P,U6,22,GDNG*%
%TO.N,/GDNG*%
X231466000Y-79315000D03*
%TO.P,U6,23,GDNS*%
%TO.N,/GDNS*%
X231966000Y-79315000D03*
%TO.P,U6,24,DSCG*%
%TO.N,Net-(U6-DSCG)*%
X232466000Y-79315000D03*
D33*
%TO.P,U6,25,EXPAD*%
%TO.N,GND2*%
X231216000Y-81250000D03*
%TD*%
D34*
%TO.P,R37,1*%
%TO.N,Net-(U6-PCTRL)*%
X227000000Y-82097500D03*
%TO.P,R37,2*%
%TO.N,Net-(U6-VAUX)*%
X227000000Y-80902500D03*
%TD*%
D21*
%TO.P,C9,1*%
%TO.N,Net-(JP2-B)*%
X183294000Y-54750000D03*
%TO.P,C9,2*%
%TO.N,GND*%
X181734000Y-54750000D03*
%TD*%
D17*
%TO.P,C30,1*%
%TO.N,/CC2*%
X235470000Y-81750000D03*
%TO.P,C30,2*%
%TO.N,GND2*%
X237030000Y-81750000D03*
%TD*%
%TO.P,C36,1*%
%TO.N,Net-(U6-VAUX)*%
X230220000Y-87750000D03*
%TO.P,C36,2*%
%TO.N,GND2*%
X231780000Y-87750000D03*
%TD*%
D25*
%TO.P,R12,1*%
%TO.N,/VS*%
X186000000Y-65825000D03*
%TO.P,R12,2*%
%TO.N,Net-(D4-A)*%
X186000000Y-64175000D03*
%TD*%
D17*
%TO.P,C26,1*%
%TO.N,/CC1*%
X235470000Y-80000000D03*
%TO.P,C26,2*%
%TO.N,GND2*%
X237030000Y-80000000D03*
%TD*%
D35*
%TO.P,R2,1*%
%TO.N,GND*%
X196152500Y-77000000D03*
%TO.P,R2,2*%
%TO.N,Net-(U1-RDM)*%
X197347500Y-77000000D03*
%TD*%
D20*
%TO.P,TP17,1,1*%
%TO.N,/VBUS*%
X223250000Y-77500000D03*
%TD*%
D36*
%TO.P,U1,1,VDD*%
%TO.N,/PRI_BIAS*%
X204975000Y-74305000D03*
%TO.P,U1,2,GND*%
%TO.N,GND*%
X204975000Y-75575000D03*
%TO.P,U1,3,CS*%
%TO.N,Net-(U1-CS)*%
X204975000Y-76845000D03*
%TO.P,U1,4,PWML*%
%TO.N,/PWML*%
X204975000Y-78115000D03*
%TO.P,U1,5,PWMH*%
%TO.N,/PWMH*%
X204975000Y-79385000D03*
%TO.P,U1,6,RUN*%
%TO.N,/RUN EN*%
X204975000Y-80655000D03*
%TO.P,U1,7,SWS*%
%TO.N,/SWS*%
X204975000Y-81925000D03*
%TO.P,U1,8,HVG*%
%TO.N,/HVG*%
X204975000Y-83195000D03*
%TO.P,U1,9,VS*%
%TO.N,/VS*%
X200025000Y-83195000D03*
%TO.P,U1,10,SET*%
%TO.N,GND*%
X200025000Y-81925000D03*
%TO.P,U1,11,NTC*%
%TO.N,Net-(JP1-B)*%
X200025000Y-80655000D03*
%TO.P,U1,12,FB*%
%TO.N,/FB*%
X200025000Y-79385000D03*
%TO.P,U1,13,RTZ*%
%TO.N,Net-(U1-RTZ)*%
X200025000Y-78115000D03*
%TO.P,U1,14,RDM*%
%TO.N,Net-(U1-RDM)*%
X200025000Y-76845000D03*
%TO.P,U1,15,BUR*%
%TO.N,Net-(U1-BUR)*%
X200025000Y-75575000D03*
%TO.P,U1,16,REF*%
%TO.N,/REF*%
X200025000Y-74305000D03*
%TD*%
D22*
%TO.P,C8,1*%
%TO.N,/HVG*%
X214750000Y-86720000D03*
%TO.P,C8,2*%
%TO.N,GND*%
X214750000Y-88280000D03*
%TD*%
D37*
%TO.P,C15,1*%
%TO.N,/PRI_BIAS*%
X185250000Y-76530000D03*
%TO.P,C15,2*%
%TO.N,GND*%
X185250000Y-74970000D03*
%TD*%
D24*
%TO.P,R1,1*%
%TO.N,GND*%
X197750000Y-72902500D03*
%TO.P,R1,2*%
%TO.N,Net-(U1-BUR)*%
X197750000Y-74097500D03*
%TD*%
D38*
%TO.P,D1,1,K*%
%TO.N,/SWS*%
X204412000Y-88500000D03*
%TO.P,D1,2,A*%
%TO.N,GND*%
X202088000Y-88500000D03*
%TD*%
D28*
%TO.P,R25,1*%
%TO.N,Net-(C25-Pad1)*%
X222675000Y-72750000D03*
%TO.P,R25,2*%
%TO.N,/GDNG*%
X224325000Y-72750000D03*
%TD*%
D35*
%TO.P,R3,1*%
%TO.N,GND*%
X196152500Y-78250000D03*
%TO.P,R3,2*%
%TO.N,Net-(U1-RTZ)*%
X197347500Y-78250000D03*
%TD*%
D37*
%TO.P,C1,1*%
%TO.N,/REF*%
X196250000Y-74280000D03*
%TO.P,C1,2*%
%TO.N,GND*%
X196250000Y-72720000D03*
%TD*%
D39*
%TO.P,D4,1,K*%
%TO.N,Net-(D4-K)*%
X186212500Y-59381000D03*
%TO.P,D4,2,A*%
%TO.N,Net-(D4-A)*%
X187787500Y-59381000D03*
%TD*%
D17*
%TO.P,C2,1*%
%TO.N,Net-(U1-CS)*%
X207720000Y-76750000D03*
%TO.P,C2,2*%
%TO.N,GND*%
X209280000Y-76750000D03*
%TD*%
D20*
%TO.P,TP21,1,1*%
%TO.N,/CTL1*%
X234000000Y-85250000D03*
%TD*%
%TO.P,TP19,1,1*%
%TO.N,/GDNS*%
X230000000Y-66500000D03*
%TD*%
D40*
%TO.P,R32,1*%
%TO.N,/V-BUS*%
X236597500Y-76500000D03*
%TO.P,R32,2*%
%TO.N,Net-(U6-DSCG)*%
X235402500Y-76500000D03*
%TD*%
%TO.P,R21,1*%
%TO.N,Net-(U6-PSEL)*%
X228597500Y-84750000D03*
%TO.P,R21,2*%
%TO.N,GND2*%
X227402500Y-84750000D03*
%TD*%
D35*
%TO.P,R27,1*%
%TO.N,/GDNS*%
X228652500Y-77000000D03*
%TO.P,R27,2*%
%TO.N,/ISNS*%
X229847500Y-77000000D03*
%TD*%
D37*
%TO.P,C14,1*%
%TO.N,Net-(D5-K)*%
X190000000Y-76530000D03*
%TO.P,C14,2*%
%TO.N,/VSW_B*%
X190000000Y-74970000D03*
%TD*%
D17*
%TO.P,C25,1*%
%TO.N,Net-(C25-Pad1)*%
X222720000Y-74750000D03*
%TO.P,C25,2*%
%TO.N,GND2*%
X224280000Y-74750000D03*
%TD*%
D20*
%TO.P,TP16,1,1*%
%TO.N,/CC1*%
X233750000Y-73000000D03*
%TD*%
D23*
%TO.P,R9,1*%
%TO.N,/SWS*%
X206325000Y-86250000D03*
%TO.P,R9,2*%
%TO.N,Net-(Q1-S)*%
X204675000Y-86250000D03*
%TD*%
D40*
%TO.P,R7,1*%
%TO.N,GND*%
X209097500Y-75000000D03*
%TO.P,R7,2*%
%TO.N,Net-(U1-CS)*%
X207902500Y-75000000D03*
%TD*%
D20*
%TO.P,TP2,1,1*%
%TO.N,/HVG*%
X212000000Y-81250000D03*
%TD*%
%TO.P,TP5,1,1*%
%TO.N,/PWML*%
X197500000Y-85500000D03*
%TD*%
D37*
%TO.P,C16,1*%
%TO.N,Net-(C16-Pad1)*%
X191500000Y-76530000D03*
%TO.P,C16,2*%
%TO.N,/VSW_B*%
X191500000Y-74970000D03*
%TD*%
D20*
%TO.P,TP6,1,1*%
%TO.N,GND*%
X210750000Y-74000000D03*
%TD*%
D17*
%TO.P,C35,1*%
%TO.N,Net-(U6-VTX)*%
X235470000Y-78250000D03*
%TO.P,C35,2*%
%TO.N,GND2*%
X237030000Y-78250000D03*
%TD*%
D37*
%TO.P,C17,1*%
%TO.N,Net-(C17-Pad1)*%
X183500000Y-76530000D03*
%TO.P,C17,2*%
%TO.N,GND*%
X183500000Y-74970000D03*
%TD*%
D40*
%TO.P,R5,1*%
%TO.N,Net-(U1-BUR)*%
X197347500Y-75750000D03*
%TO.P,R5,2*%
%TO.N,/REF*%
X196152500Y-75750000D03*
%TD*%
D41*
%TO.P,R6,1*%
%TO.N,GND*%
X183250000Y-87675000D03*
%TO.P,R6,2*%
%TO.N,Net-(JP1-A)*%
X183250000Y-89325000D03*
%TD*%
D23*
%TO.P,R10,1*%
%TO.N,/HVG*%
X209825000Y-86250000D03*
%TO.P,R10,2*%
%TO.N,/SWS*%
X208175000Y-86250000D03*
%TD*%
D20*
%TO.P,TP1,1,1*%
%TO.N,/SWS*%
X206250000Y-88250000D03*
%TD*%
D25*
%TO.P,R14,1*%
%TO.N,/PRI_BIAS*%
X184160000Y-61456000D03*
%TO.P,R14,2*%
%TO.N,Net-(D4-K)*%
X184160000Y-59806000D03*
%TD*%
D17*
%TO.P,C6,1*%
%TO.N,/SWS*%
X208220000Y-88250000D03*
%TO.P,C6,2*%
%TO.N,GND*%
X209780000Y-88250000D03*
%TD*%
%TO.P,C13,1*%
%TO.N,/PRI_BIAS*%
X186220000Y-61750000D03*
%TO.P,C13,2*%
%TO.N,GND*%
X187780000Y-61750000D03*
%TD*%
D11*
%TO.P,TH1,1*%
%TO.N,Net-(JP1-B)*%
X192475000Y-89000000D03*
D12*
%TO.P,TH1,2*%
%TO.N,GND*%
X195015000Y-89000000D03*
%TD*%
D42*
%TO.P,D9,1,A*%
%TO.N,GND2*%
X215850000Y-77800000D03*
%TO.P,D9,2,K*%
%TO.N,Net-(D9-K)*%
X216500000Y-77800000D03*
%TO.P,D9,3*%
%TO.N,N/C*%
X217150000Y-77800000D03*
%TO.P,D9,4*%
X217150000Y-79700000D03*
%TO.P,D9,5*%
X216500000Y-79700000D03*
%TO.P,D9,6,common*%
%TO.N,Net-(D9-common)*%
X215850000Y-79700000D03*
%TD*%
D37*
%TO.P,C12,1*%
%TO.N,GND*%
X184000000Y-65780000D03*
%TO.P,C12,2*%
%TO.N,/PRI_BIAS*%
X184000000Y-64220000D03*
%TD*%
%TO.P,C31,1*%
%TO.N,/ISNS*%
X225250000Y-66280000D03*
%TO.P,C31,2*%
%TO.N,/V-BUS*%
X225250000Y-64720000D03*
%TD*%
D21*
%TO.P,C7,1*%
%TO.N,Net-(JP2-B)*%
X183294000Y-53000000D03*
%TO.P,C7,2*%
%TO.N,GND*%
X181734000Y-53000000D03*
%TD*%
D43*
%TO.P,Q1,1,D*%
%TO.N,/VSW_B*%
X208300000Y-81312500D03*
%TO.P,Q1,2,G*%
%TO.N,/HVG*%
X210200000Y-81312500D03*
%TO.P,Q1,3,S*%
%TO.N,Net-(Q1-S)*%
X209250000Y-83187500D03*
%TD*%
D20*
%TO.P,TP11,1,1*%
%TO.N,/PRI_BIAS*%
X186000000Y-80750000D03*
%TD*%
D44*
%TO.N,GND*%
X181750000Y-49750000D03*
X186500000Y-82500000D03*
X202500000Y-78750000D03*
X200000000Y-70350000D03*
X185000000Y-74000000D03*
X205750000Y-72000000D03*
X193500000Y-63500000D03*
X183250000Y-87750000D03*
X184000000Y-67750000D03*
X180500000Y-71000000D03*
%TO.N,/VIN*%
X187250000Y-57000000D03*
X187250000Y-54750000D03*
X188250000Y-51250000D03*
X187140000Y-51360000D03*
X188250000Y-53000000D03*
X187250000Y-53000000D03*
X188250000Y-56000000D03*
X188250000Y-54750000D03*
X187250000Y-53000000D03*
X187250000Y-56000000D03*
%TO.N,/PRI_BIAS*%
X182500000Y-77250000D03*
X186250000Y-79000000D03*
%TO.N,GND2*%
X211500000Y-70750000D03*
X237030000Y-81750000D03*
X238250000Y-75750000D03*
X222250000Y-66250000D03*
X225750000Y-74000000D03*
X237500000Y-47250000D03*
X235000000Y-47250000D03*
X218500000Y-77000000D03*
X232750000Y-47250000D03*
X230250000Y-49500000D03*
%TO.N,/VBUS*%
X228000000Y-72000000D03*
X228250000Y-71500000D03*
X221750000Y-78000000D03*
%TO.N,Net-(C16-Pad1)*%
X192500000Y-77500000D03*
%TO.N,Net-(D3-K)*%
X187250000Y-74250000D03*
X180000000Y-74000000D03*
%TO.N,/REF*%
X195720000Y-73750000D03*
X198500000Y-71750000D03*
%TO.N,/HVG*%
X210250000Y-84250000D03*
X206750000Y-83500000D03*
%TO.N,Net-(C17-Pad1)*%
X183530331Y-79219669D03*
%TO.N,Net-(D5-K)*%
X189500000Y-77750000D03*
X188000000Y-80000000D03*
%TO.N,/VSW_B*%
X208250000Y-79750000D03*
X191250000Y-80500000D03*
X190000000Y-73500000D03*
%TO.N,Net-(D9-common)*%
X214250000Y-76750000D03*
%TO.N,Net-(D9-K)*%
X216750000Y-78750000D03*
%TO.N,/CC1*%
X234250000Y-66250000D03*
X235470000Y-80000000D03*
X233750000Y-73000000D03*
%TO.N,/ISNS*%
X230500000Y-77250000D03*
X224500000Y-68250000D03*
%TO.N,/V-BUS*%
X231250000Y-64000000D03*
X237000000Y-66750000D03*
%TO.N,/CC2*%
X235470000Y-81750000D03*
X235750000Y-73000000D03*
X233750000Y-65250000D03*
%TO.N,Net-(U6-DVDD)*%
X235500000Y-83500000D03*
X228750000Y-82750000D03*
%TO.N,/RUN EN*%
X206500000Y-80750000D03*
%TO.N,Net-(D4-A)*%
X190500000Y-62250000D03*
X190250000Y-59750000D03*
%TO.N,/GDNS*%
X231000000Y-71000000D03*
X232230288Y-78401893D03*
X230250000Y-76000000D03*
X231000000Y-67250000D03*
%TO.N,/VS*%
X193750000Y-71750000D03*
X190250000Y-67750000D03*
%TO.N,/FB*%
X201750000Y-76250000D03*
%TO.N,Net-(U4-VD)*%
X235000000Y-56750000D03*
X228500000Y-54500000D03*
%TO.N,/GDNG*%
X231500000Y-78000000D03*
X226750000Y-73000000D03*
%TO.N,Net-(U4-VG)*%
X235250000Y-49500000D03*
X231250000Y-52250000D03*
%TO.N,/CTL2*%
X225750000Y-87250000D03*
%TO.N,/CTL1*%
X234000000Y-86500000D03*
%TO.N,/PWMH*%
X199000000Y-87250000D03*
%TO.N,/PWML*%
X196250000Y-86500000D03*
%TO.N,Net-(R29-Pad2)*%
X214750000Y-83000000D03*
X224250000Y-80000000D03*
%TD*%
D45*
%TO.N,GND*%
X185247349Y-45750000D02*
X185247349Y-44247349D01*
D46*
X207000000Y-72750000D02*
X206750000Y-72500000D01*
X187780000Y-61750000D02*
X188031000Y-61499000D01*
D45*
X177250000Y-43000000D02*
X176500000Y-43750000D01*
D46*
X183250000Y-82500000D02*
X178250000Y-77500000D01*
X212882000Y-88280000D02*
X212500000Y-88662000D01*
X196152500Y-77000000D02*
X196152500Y-78250000D01*
X213500000Y-76750000D02*
X210750000Y-74000000D01*
X186500000Y-82500000D02*
X183250000Y-85750000D01*
X179250000Y-71250000D02*
X180250000Y-71250000D01*
X209780000Y-88250000D02*
X208030000Y-90000000D01*
X210097500Y-74000000D02*
X209097500Y-75000000D01*
X196250000Y-72720000D02*
X198620000Y-70350000D01*
X183250000Y-85750000D02*
X183250000Y-87675000D01*
D45*
X193500000Y-61500000D02*
X193500000Y-46500000D01*
D46*
X184000000Y-67575000D02*
X184175000Y-67750000D01*
X201838000Y-88750000D02*
X202088000Y-88500000D01*
X203588000Y-90000000D02*
X202088000Y-88500000D01*
D45*
X176500000Y-43750000D02*
X174500000Y-43750000D01*
D46*
X184000000Y-65780000D02*
X184000000Y-67575000D01*
D45*
X181816000Y-49816000D02*
X181816000Y-54668000D01*
D46*
X210750000Y-74000000D02*
X210097500Y-74000000D01*
X207000000Y-73750000D02*
X207000000Y-72750000D01*
D45*
X184000000Y-43000000D02*
X177250000Y-43000000D01*
X181816000Y-54668000D02*
X181734000Y-54750000D01*
D46*
X186500000Y-82500000D02*
X183250000Y-82500000D01*
D45*
X193500000Y-46500000D02*
X192750000Y-45750000D01*
D46*
X216470000Y-88280000D02*
X217000000Y-87750000D01*
X204975000Y-75575000D02*
X205959999Y-75575000D01*
X204975000Y-75575000D02*
X203990001Y-75575000D01*
X207000000Y-74534999D02*
X207000000Y-73750000D01*
X196250000Y-72720000D02*
X195530000Y-72720000D01*
X214750000Y-88280000D02*
X212882000Y-88280000D01*
D45*
X193500000Y-63500000D02*
X193500000Y-61500000D01*
D46*
X217000000Y-87750000D02*
X217000000Y-85500000D01*
X195015000Y-88750000D02*
X201838000Y-88750000D01*
X178250000Y-77500000D02*
X177500000Y-76750000D01*
X214500000Y-84750000D02*
X213500000Y-83750000D01*
X207000000Y-73750000D02*
X208500000Y-73750000D01*
X208030000Y-90000000D02*
X203588000Y-90000000D01*
X180250000Y-71250000D02*
X180500000Y-71000000D01*
X197750000Y-72902500D02*
X196432500Y-72902500D01*
X198620000Y-70350000D02*
X200000000Y-70350000D01*
X196152500Y-79902500D02*
X196152500Y-78250000D01*
X209097500Y-75000000D02*
X209097500Y-76567500D01*
D45*
X185247349Y-44247349D02*
X184000000Y-43000000D01*
X181750000Y-49750000D02*
X181816000Y-49816000D01*
D46*
X213500000Y-83750000D02*
X213500000Y-76750000D01*
X209780000Y-88250000D02*
X212088000Y-88250000D01*
X177500000Y-76750000D02*
X177500000Y-73000000D01*
X212088000Y-88250000D02*
X212500000Y-88662000D01*
X198175000Y-81925000D02*
X196152500Y-79902500D01*
X203990001Y-75575000D02*
X202500000Y-77065001D01*
X185250000Y-74250000D02*
X185000000Y-74000000D01*
X194750000Y-73500000D02*
X194750000Y-75597500D01*
X209097500Y-74347500D02*
X209097500Y-75000000D01*
X177500000Y-73000000D02*
X179250000Y-71250000D01*
X194750000Y-75597500D02*
X196152500Y-77000000D01*
X209097500Y-76567500D02*
X209280000Y-76750000D01*
X196432500Y-72902500D02*
X196250000Y-72720000D01*
X193499000Y-61499000D02*
X193500000Y-61500000D01*
D45*
X192750000Y-45750000D02*
X185247349Y-45750000D01*
D46*
X183500000Y-74970000D02*
X185250000Y-74970000D01*
X202500000Y-77065001D02*
X202500000Y-78750000D01*
X216250000Y-84750000D02*
X214500000Y-84750000D01*
X195530000Y-72720000D02*
X194750000Y-73500000D01*
X188031000Y-61499000D02*
X193499000Y-61499000D01*
X185250000Y-74970000D02*
X185250000Y-74250000D01*
X208500000Y-73750000D02*
X209097500Y-74347500D01*
X206750000Y-72500000D02*
X206250000Y-72000000D01*
X200025000Y-81925000D02*
X198175000Y-81925000D01*
X205959999Y-75575000D02*
X207000000Y-74534999D01*
X214750000Y-88280000D02*
X216470000Y-88280000D01*
X206250000Y-72000000D02*
X205750000Y-72000000D01*
X217000000Y-85500000D02*
X216250000Y-84750000D01*
D45*
%TO.N,/VIN*%
X187250000Y-57000000D02*
X187250000Y-56000000D01*
X187140000Y-51360000D02*
X187030000Y-51250000D01*
X187250000Y-51470000D02*
X187140000Y-51360000D01*
X187250000Y-53000000D02*
X187250000Y-51470000D01*
X187250000Y-54750000D02*
X187250000Y-53000000D01*
X187250000Y-56000000D02*
X187250000Y-54750000D01*
D47*
%TO.N,/PRI_BIAS*%
X204975000Y-72975000D02*
X204000000Y-72000000D01*
D46*
X181750000Y-71000000D02*
X179000000Y-73750000D01*
D47*
X186970000Y-77530000D02*
X186250000Y-77530000D01*
D46*
X182500000Y-79250000D02*
X184000000Y-80750000D01*
D47*
X204000000Y-72000000D02*
X203250000Y-72000000D01*
D46*
X183280000Y-64220000D02*
X181750000Y-65750000D01*
X184000000Y-80750000D02*
X186000000Y-80750000D01*
X180500000Y-77250000D02*
X182500000Y-77250000D01*
D47*
X188000000Y-82750000D02*
X186000000Y-80750000D01*
D46*
X186250000Y-79000000D02*
X186250000Y-77530000D01*
D47*
X203250000Y-72000000D02*
X203250000Y-71000000D01*
X190500000Y-69250000D02*
X188250000Y-71500000D01*
D46*
X182500000Y-77250000D02*
X182500000Y-79250000D01*
X184160000Y-64060000D02*
X184000000Y-64220000D01*
D47*
X185250000Y-87675000D02*
X186325000Y-87675000D01*
D46*
X181750000Y-65750000D02*
X181750000Y-71000000D01*
D47*
X188250000Y-76250000D02*
X186970000Y-77530000D01*
D46*
X184000000Y-64220000D02*
X183280000Y-64220000D01*
X184160000Y-61456000D02*
X184160000Y-64060000D01*
X179000000Y-73750000D02*
X179000000Y-75750000D01*
D47*
X201500000Y-69250000D02*
X190500000Y-69250000D01*
D46*
X186220000Y-61750000D02*
X184454000Y-61750000D01*
X179000000Y-75750000D02*
X180500000Y-77250000D01*
X186000000Y-79250000D02*
X186250000Y-79000000D01*
D47*
X203250000Y-71000000D02*
X201500000Y-69250000D01*
D46*
X184454000Y-61750000D02*
X184160000Y-61456000D01*
D47*
X204975000Y-74305000D02*
X204975000Y-72975000D01*
X188250000Y-71500000D02*
X188250000Y-76250000D01*
D46*
X186000000Y-80750000D02*
X186000000Y-79250000D01*
D47*
X188000000Y-86000000D02*
X188000000Y-82750000D01*
X186325000Y-87675000D02*
X188000000Y-86000000D01*
D46*
X186250000Y-77530000D02*
X185250000Y-76530000D01*
D47*
%TO.N,GND2*%
X231966000Y-82000000D02*
X231216000Y-81250000D01*
X231466000Y-81500000D02*
X231216000Y-81250000D01*
X216000000Y-77000000D02*
X215250000Y-76250000D01*
X231966000Y-83185000D02*
X231966000Y-82000000D01*
X218500000Y-77000000D02*
X219500000Y-77000000D01*
X227402500Y-84835400D02*
X228067100Y-85500000D01*
X213250000Y-70750000D02*
X211500000Y-70750000D01*
D46*
X232755000Y-61430000D02*
X232755000Y-70070000D01*
D47*
X226281000Y-77000000D02*
X224750000Y-77000000D01*
X228067100Y-85500000D02*
X228750000Y-85500000D01*
X224750000Y-77000000D02*
X224250000Y-76500000D01*
X218500000Y-77000000D02*
X216000000Y-77000000D01*
X233151000Y-81500000D02*
X231466000Y-81500000D01*
X215850000Y-77800000D02*
X215850000Y-77150000D01*
X231966000Y-87564000D02*
X231780000Y-87750000D01*
X230466000Y-80500000D02*
X231216000Y-81250000D01*
X228750000Y-85500000D02*
X230000000Y-86750000D01*
X215850000Y-77150000D02*
X216000000Y-77000000D01*
X231966000Y-86750000D02*
X231966000Y-87564000D01*
X214500000Y-72000000D02*
X213250000Y-70750000D01*
X214500000Y-75500000D02*
X214500000Y-72000000D01*
X229281000Y-80000000D02*
X226281000Y-77000000D01*
X215250000Y-76250000D02*
X214500000Y-75500000D01*
X224280000Y-74750000D02*
X225000000Y-74750000D01*
X227402500Y-84750000D02*
X227402500Y-84835400D01*
X225000000Y-74750000D02*
X225750000Y-74000000D01*
X229281000Y-80500000D02*
X230466000Y-80500000D01*
X230000000Y-86750000D02*
X231966000Y-86750000D01*
X231966000Y-83185000D02*
X231966000Y-86750000D01*
X224250000Y-76500000D02*
X224280000Y-76470000D01*
X229281000Y-80500000D02*
X229281000Y-80000000D01*
D46*
X236555000Y-61430000D02*
X232755000Y-61430000D01*
D47*
X224280000Y-76470000D02*
X224280000Y-74750000D01*
D45*
%TO.N,Net-(JP2-B)*%
X183294000Y-54750000D02*
X183294000Y-51250000D01*
X185425000Y-54750000D02*
X183294000Y-54750000D01*
X183294000Y-49044000D02*
X181447349Y-47197349D01*
X185470000Y-54705000D02*
X185425000Y-54750000D01*
X183294000Y-51250000D02*
X183294000Y-49044000D01*
X185470000Y-51250000D02*
X185470000Y-54705000D01*
X181447349Y-47197349D02*
X181447349Y-45750000D01*
D47*
%TO.N,/VBUS*%
X221250000Y-77500000D02*
X221250000Y-69750000D01*
X228275000Y-71950000D02*
X228050000Y-71950000D01*
X229242081Y-68250000D02*
X229540000Y-68547919D01*
X221250000Y-69750000D02*
X221750000Y-69250000D01*
X228050000Y-71950000D02*
X228000000Y-72000000D01*
X230966000Y-79315000D02*
X230899000Y-79248000D01*
X229540000Y-69750000D02*
X230742081Y-69750000D01*
X231750000Y-76849943D02*
X231750000Y-76750000D01*
X230899000Y-79248000D02*
X230899000Y-77700943D01*
X221750000Y-78000000D02*
X222000000Y-78250000D01*
X230466000Y-79315000D02*
X230966000Y-79315000D01*
X221750000Y-69250000D02*
X224500000Y-69250000D01*
X231750000Y-70757919D02*
X231750000Y-76750000D01*
X230899000Y-77700943D02*
X231750000Y-76849943D01*
X222000000Y-78250000D02*
X222500000Y-78250000D01*
X230742081Y-69750000D02*
X231750000Y-70757919D01*
X221750000Y-78000000D02*
X221250000Y-77500000D01*
X232530000Y-77530000D02*
X231750000Y-76750000D01*
X228275000Y-71950000D02*
X228275000Y-71525000D01*
X225500000Y-68250000D02*
X229242081Y-68250000D01*
X229540000Y-68547919D02*
X229540000Y-69750000D01*
X224500000Y-69250000D02*
X225500000Y-68250000D01*
X233000000Y-77530000D02*
X232530000Y-77530000D01*
X222500000Y-78250000D02*
X223250000Y-77500000D01*
X228275000Y-71525000D02*
X228250000Y-71500000D01*
D46*
%TO.N,Net-(C16-Pad1)*%
X191530000Y-76530000D02*
X192500000Y-77500000D01*
X191500000Y-76530000D02*
X191530000Y-76530000D01*
%TO.N,Net-(D3-K)*%
X186250000Y-73000000D02*
X187250000Y-74000000D01*
X187250000Y-74000000D02*
X187250000Y-74250000D01*
X181000000Y-73000000D02*
X186250000Y-73000000D01*
X180000000Y-74000000D02*
X181000000Y-73000000D01*
D47*
%TO.N,/REF*%
X195720000Y-73750000D02*
X196250000Y-74280000D01*
X199750000Y-72250000D02*
X199250000Y-71750000D01*
X196152500Y-74377500D02*
X196250000Y-74280000D01*
X196152500Y-75750000D02*
X196152500Y-74377500D01*
X200025000Y-74305000D02*
X200025000Y-72525000D01*
X200025000Y-72525000D02*
X199750000Y-72250000D01*
X199250000Y-71750000D02*
X198500000Y-71750000D01*
%TO.N,Net-(U1-CS)*%
X207720000Y-75182500D02*
X207902500Y-75000000D01*
X207720000Y-76750000D02*
X207720000Y-75182500D01*
X207625000Y-76845000D02*
X207720000Y-76750000D01*
X204975000Y-76845000D02*
X207625000Y-76845000D01*
%TO.N,/SWS*%
X206325000Y-86250000D02*
X208175000Y-86250000D01*
X208220000Y-88250000D02*
X208220000Y-88030000D01*
X203689000Y-82812176D02*
X203689000Y-87777000D01*
X208175000Y-87985000D02*
X208175000Y-86250000D01*
X204975000Y-81925000D02*
X204576176Y-81925000D01*
X204576176Y-81925000D02*
X203689000Y-82812176D01*
X204412000Y-88500000D02*
X204500000Y-88500000D01*
X204500000Y-88500000D02*
X204750000Y-88250000D01*
X204750000Y-88250000D02*
X208220000Y-88250000D01*
X203689000Y-87777000D02*
X204412000Y-88500000D01*
X208220000Y-88030000D02*
X208175000Y-87985000D01*
%TO.N,/HVG*%
X212882000Y-86720000D02*
X212500000Y-86338000D01*
X210200000Y-81312500D02*
X210200000Y-85875000D01*
X204975000Y-83195000D02*
X206445000Y-83195000D01*
X206445000Y-83195000D02*
X206750000Y-83500000D01*
X210200000Y-85875000D02*
X209825000Y-86250000D01*
X209825000Y-86250000D02*
X212412000Y-86250000D01*
X214750000Y-86720000D02*
X212882000Y-86720000D01*
X210262500Y-81250000D02*
X210200000Y-81312500D01*
X212000000Y-81250000D02*
X210262500Y-81250000D01*
X212412000Y-86250000D02*
X212500000Y-86338000D01*
D46*
%TO.N,Net-(C17-Pad1)*%
X183530331Y-79219669D02*
X183530331Y-77969671D01*
X183500000Y-77939340D02*
X183500000Y-76530000D01*
X183530331Y-77969671D02*
X183500000Y-77939340D01*
%TO.N,Net-(D5-K)*%
X190000000Y-76530000D02*
X190000000Y-77250000D01*
X188000000Y-80000000D02*
X188250000Y-80000000D01*
X190000000Y-77250000D02*
X189500000Y-77750000D01*
X188250000Y-80000000D02*
X188750000Y-80500000D01*
D47*
%TO.N,Net-(C25-Pad1)*%
X222675000Y-74705000D02*
X222720000Y-74750000D01*
X222675000Y-72750000D02*
X222675000Y-74705000D01*
%TO.N,/VSW_B*%
X208300000Y-81312500D02*
X208300000Y-79800000D01*
D46*
X193250000Y-79000000D02*
X192750000Y-79500000D01*
X191500000Y-74970000D02*
X192220000Y-74970000D01*
X190000000Y-74970000D02*
X190000000Y-73500000D01*
X192220000Y-74970000D02*
X193250000Y-76000000D01*
X191500000Y-74970000D02*
X190000000Y-74970000D01*
X193250000Y-76000000D02*
X193250000Y-79000000D01*
X192750000Y-79500000D02*
X191750000Y-80500000D01*
X191750000Y-80500000D02*
X191250000Y-80500000D01*
D47*
X208300000Y-79800000D02*
X208250000Y-79750000D01*
%TO.N,Net-(D9-common)*%
X214750000Y-78000000D02*
X214250000Y-77500000D01*
X214250000Y-77500000D02*
X214250000Y-76750000D01*
X215850000Y-79700000D02*
X215850000Y-79100000D01*
X215850000Y-79100000D02*
X214750000Y-78000000D01*
%TO.N,Net-(D9-K)*%
X216500000Y-78500000D02*
X216500000Y-77800000D01*
X216750000Y-78750000D02*
X216500000Y-78500000D01*
%TO.N,/CC1*%
X233750000Y-71750000D02*
X233750000Y-73000000D01*
X234970000Y-80500000D02*
X235470000Y-80000000D01*
X234250000Y-66250000D02*
X234250000Y-71250000D01*
X233151000Y-80500000D02*
X234970000Y-80500000D01*
X234250000Y-71250000D02*
X233750000Y-71750000D01*
%TO.N,/ISNS*%
X229847500Y-78013000D02*
X229847500Y-77000000D01*
X229966000Y-79315000D02*
X229966000Y-78131500D01*
X229966000Y-78131500D02*
X229847500Y-78013000D01*
X229847500Y-77000000D02*
X230250000Y-77000000D01*
X224500000Y-68250000D02*
X224500000Y-67030000D01*
X224500000Y-67030000D02*
X225250000Y-66280000D01*
X230250000Y-77000000D02*
X230500000Y-77250000D01*
D45*
%TO.N,/V-BUS*%
X230750000Y-63500000D02*
X227800000Y-63500000D01*
X231250000Y-64000000D02*
X230750000Y-63500000D01*
D47*
X238250000Y-68000000D02*
X237000000Y-66750000D01*
X225250000Y-64720000D02*
X225250000Y-64250000D01*
X236597500Y-76500000D02*
X238250000Y-74847500D01*
D46*
X227800000Y-63500000D02*
X227750000Y-63450000D01*
D47*
X226050000Y-63450000D02*
X227750000Y-63450000D01*
X238250000Y-74847500D02*
X238250000Y-68000000D01*
X225250000Y-64250000D02*
X226050000Y-63450000D01*
%TO.N,Net-(U6-VTX)*%
X233720000Y-80000000D02*
X235470000Y-78250000D01*
X233151000Y-80000000D02*
X233720000Y-80000000D01*
%TO.N,/CC2*%
X235750000Y-72000000D02*
X235750000Y-73000000D01*
X233151000Y-81000000D02*
X234720000Y-81000000D01*
X234250000Y-65250000D02*
X235000000Y-66000000D01*
X235000000Y-71250000D02*
X235750000Y-72000000D01*
X235000000Y-66000000D02*
X235000000Y-71250000D01*
X233750000Y-65250000D02*
X234250000Y-65250000D01*
X234720000Y-81000000D02*
X235470000Y-81750000D01*
%TO.N,Net-(U6-VAUX)*%
X225250000Y-85000000D02*
X225250000Y-81750000D01*
X227000000Y-80902500D02*
X227097500Y-81000000D01*
X225250000Y-81750000D02*
X226097500Y-80902500D01*
X229750000Y-87750000D02*
X228000000Y-86000000D01*
X226250000Y-86000000D02*
X225250000Y-85000000D01*
X227097500Y-81000000D02*
X229281000Y-81000000D01*
X226097500Y-80902500D02*
X227000000Y-80902500D01*
X229281000Y-81000000D02*
X229281000Y-81500000D01*
X228000000Y-86000000D02*
X226250000Y-86000000D01*
X230220000Y-87750000D02*
X229750000Y-87750000D01*
%TO.N,Net-(U6-DVDD)*%
X233151000Y-82000000D02*
X233970000Y-82000000D01*
X233970000Y-82000000D02*
X235470000Y-83500000D01*
X229000000Y-82500000D02*
X228750000Y-82750000D01*
X229281000Y-82500000D02*
X229000000Y-82500000D01*
D46*
%TO.N,Net-(D4-K)*%
X185787500Y-59806000D02*
X186212500Y-59381000D01*
X184160000Y-59806000D02*
X185787500Y-59806000D01*
D47*
%TO.N,/RUN EN*%
X204975000Y-80655000D02*
X206405000Y-80655000D01*
X206405000Y-80655000D02*
X206500000Y-80750000D01*
D46*
%TO.N,Net-(D4-A)*%
X190500000Y-62500000D02*
X190500000Y-62250000D01*
X186000000Y-64175000D02*
X188825000Y-64175000D01*
X189881000Y-59381000D02*
X190250000Y-59750000D01*
X188825000Y-64175000D02*
X190250000Y-62750000D01*
X190250000Y-62750000D02*
X190500000Y-62500000D01*
X187787500Y-59381000D02*
X189881000Y-59381000D01*
D47*
%TO.N,Net-(JP1-A)*%
X187025000Y-89325000D02*
X185250000Y-89325000D01*
X187600000Y-88750000D02*
X187025000Y-89325000D01*
X185250000Y-89325000D02*
X183250000Y-89325000D01*
%TO.N,Net-(JP1-B)*%
X200025000Y-80655000D02*
X201655000Y-80655000D01*
X201655000Y-80655000D02*
X202000000Y-81000000D01*
X192475000Y-88025000D02*
X192475000Y-88750000D01*
X192475000Y-88750000D02*
X188900000Y-88750000D01*
X196250000Y-84250000D02*
X192475000Y-88025000D01*
X202000000Y-83500000D02*
X201250000Y-84250000D01*
X202000000Y-81000000D02*
X202000000Y-83500000D01*
X201250000Y-84250000D02*
X196250000Y-84250000D01*
%TO.N,Net-(Q1-S)*%
X205250000Y-84750000D02*
X208500000Y-84750000D01*
X208500000Y-84750000D02*
X209250000Y-84000000D01*
X204675000Y-85325000D02*
X205250000Y-84750000D01*
X204675000Y-86250000D02*
X204675000Y-85325000D01*
X209250000Y-84000000D02*
X209250000Y-83187500D01*
%TO.N,Net-(Q4-G)*%
X226500000Y-71902500D02*
X227152500Y-71250000D01*
X228498943Y-70899000D02*
X228001057Y-70899000D01*
X228001057Y-70899000D02*
X227650057Y-71250000D01*
X228925000Y-71950000D02*
X228925000Y-71325057D01*
X228925000Y-71325057D02*
X228498943Y-70899000D01*
X227650057Y-71250000D02*
X227152500Y-71250000D01*
%TO.N,/GDNS*%
X228652500Y-77000000D02*
X228652500Y-76597500D01*
D46*
X229716476Y-71000000D02*
X231000000Y-71000000D01*
D47*
X231966000Y-78666181D02*
X232230288Y-78401893D01*
D45*
X230750000Y-66500000D02*
X230000000Y-66500000D01*
D47*
X228652500Y-76597500D02*
X229250000Y-76000000D01*
D46*
X229575000Y-71950000D02*
X229575000Y-71141476D01*
D47*
X229250000Y-76000000D02*
X230250000Y-76000000D01*
X231966000Y-79315000D02*
X231966000Y-78666181D01*
X227800000Y-66500000D02*
X227750000Y-66550000D01*
D45*
X231000000Y-67250000D02*
X231000000Y-66750000D01*
X231000000Y-66750000D02*
X230750000Y-66500000D01*
D46*
X229575000Y-71141476D02*
X229716476Y-71000000D01*
D45*
X230000000Y-66500000D02*
X227800000Y-66500000D01*
D46*
%TO.N,/VS*%
X196695000Y-83195000D02*
X200025000Y-83195000D01*
X194000000Y-72000000D02*
X194000000Y-80500000D01*
X194000000Y-80500000D02*
X196695000Y-83195000D01*
X186000000Y-67575000D02*
X185825000Y-67750000D01*
X186000000Y-65825000D02*
X186000000Y-67575000D01*
X193750000Y-71750000D02*
X194000000Y-72000000D01*
X185825000Y-67750000D02*
X190250000Y-67750000D01*
D47*
%TO.N,Net-(U1-RTZ)*%
X200025000Y-78115000D02*
X197482500Y-78115000D01*
X197482500Y-78115000D02*
X197347500Y-78250000D01*
%TO.N,Net-(U1-RDM)*%
X197347500Y-77000000D02*
X199870000Y-77000000D01*
X199870000Y-77000000D02*
X200025000Y-76845000D01*
%TO.N,Net-(U1-BUR)*%
X197750000Y-75347500D02*
X197347500Y-75750000D01*
X197347500Y-75750000D02*
X199850000Y-75750000D01*
X199850000Y-75750000D02*
X200025000Y-75575000D01*
X197750000Y-74097500D02*
X197750000Y-75347500D01*
%TO.N,/FB*%
X201009999Y-79385000D02*
X201750000Y-78644999D01*
X201750000Y-78644999D02*
X201750000Y-76250000D01*
X200025000Y-79385000D02*
X201009999Y-79385000D01*
D46*
%TO.N,Net-(U4-VD)*%
X228500000Y-54500000D02*
X230750000Y-54500000D01*
X233000000Y-56750000D02*
X235000000Y-56750000D01*
X230750000Y-54500000D02*
X233000000Y-56750000D01*
D47*
%TO.N,/GDNG*%
X226097500Y-73097500D02*
X225750000Y-72750000D01*
X231466000Y-78034000D02*
X231500000Y-78000000D01*
X226500000Y-73097500D02*
X226097500Y-73097500D01*
X231466000Y-79315000D02*
X231466000Y-78034000D01*
X226652500Y-73097500D02*
X226500000Y-73097500D01*
X225750000Y-72750000D02*
X224325000Y-72750000D01*
X226750000Y-73000000D02*
X226652500Y-73097500D01*
D46*
%TO.N,Net-(U4-VG)*%
X234000000Y-49500000D02*
X235250000Y-49500000D01*
X231250000Y-52250000D02*
X234000000Y-49500000D01*
D47*
%TO.N,Net-(U6-PSEL)*%
X229250000Y-84750000D02*
X229966000Y-84034000D01*
X228597500Y-84750000D02*
X229250000Y-84750000D01*
X229966000Y-84034000D02*
X229966000Y-83185000D01*
%TO.N,/CTL2*%
X226000000Y-87500000D02*
X225750000Y-87250000D01*
X232466000Y-85966000D02*
X233250000Y-86750000D01*
X227000000Y-88250000D02*
X227000000Y-87500000D01*
X233250000Y-88500000D02*
X232250000Y-89500000D01*
X233250000Y-86750000D02*
X233250000Y-88500000D01*
X228250000Y-89500000D02*
X227000000Y-88250000D01*
X232466000Y-83185000D02*
X232466000Y-85966000D01*
X227000000Y-87500000D02*
X226000000Y-87500000D01*
X232250000Y-89500000D02*
X228250000Y-89500000D01*
%TO.N,/CTL1*%
X233151000Y-82500000D02*
X234000000Y-83349000D01*
X234000000Y-83349000D02*
X234000000Y-85250000D01*
X234000000Y-86500000D02*
X234000000Y-85250000D01*
%TO.N,/PWMH*%
X203615000Y-79385000D02*
X203000000Y-80000000D01*
X200500000Y-87250000D02*
X199000000Y-87250000D01*
X203000000Y-80000000D02*
X203000000Y-84750000D01*
X203000000Y-84750000D02*
X200500000Y-87250000D01*
X204975000Y-79385000D02*
X203615000Y-79385000D01*
%TO.N,/PWML*%
X202500000Y-79605001D02*
X202500000Y-84000000D01*
X204975000Y-78115000D02*
X203990001Y-78115000D01*
D46*
X196500000Y-86500000D02*
X197500000Y-85500000D01*
X196250000Y-86500000D02*
X196500000Y-86500000D01*
D47*
X203990001Y-78115000D02*
X202500000Y-79605001D01*
X202500000Y-84000000D02*
X201000000Y-85500000D01*
X201000000Y-85500000D02*
X197500000Y-85500000D01*
%TO.N,/UFP*%
X230466000Y-83185000D02*
X230466000Y-85216000D01*
X230466000Y-85216000D02*
X230500000Y-85250000D01*
%TO.N,Net-(R29-Pad2)*%
X220250000Y-83000000D02*
X214750000Y-83000000D01*
X224250000Y-80000000D02*
X223250000Y-80000000D01*
X222000000Y-81250000D02*
X220250000Y-83000000D01*
X223250000Y-80000000D02*
X222000000Y-81250000D01*
%TO.N,Net-(U6-DSCG)*%
X234250000Y-77652500D02*
X235402500Y-76500000D01*
X233250000Y-79000000D02*
X234250000Y-78000000D01*
X232466000Y-79315000D02*
X232781000Y-79000000D01*
X234250000Y-78000000D02*
X234250000Y-77652500D01*
X232781000Y-79000000D02*
X233250000Y-79000000D01*
%TO.N,Net-(U6-PCTRL)*%
X227097500Y-82000000D02*
X229281000Y-82000000D01*
X227000000Y-82097500D02*
X227097500Y-82000000D01*
%TD*%
%TA.AperFunction,Conductor*%
%TO.N,/VIN*%
G36*
X189443039Y-50269685D02*
G01*
X189488794Y-50322489D01*
X189500000Y-50374000D01*
X189500000Y-57876000D01*
X189480315Y-57943039D01*
X189427511Y-57988794D01*
X189376000Y-58000000D01*
X186124000Y-58000000D01*
X186056961Y-57980315D01*
X186011206Y-57927511D01*
X186000000Y-57876000D01*
X186000000Y-55686791D01*
X186019685Y-55619752D01*
X186038190Y-55597278D01*
X186048100Y-55587777D01*
X186060185Y-55580472D01*
X186163624Y-55477032D01*
X186164543Y-55476152D01*
X186194429Y-55460642D01*
X186223994Y-55444499D01*
X186225350Y-55444596D01*
X186226559Y-55443969D01*
X186260103Y-55447081D01*
X186293686Y-55449483D01*
X186294984Y-55450317D01*
X186296130Y-55450424D01*
X186300646Y-55453956D01*
X186338034Y-55477984D01*
X186440122Y-55580072D01*
X186585604Y-55668019D01*
X186585603Y-55668019D01*
X186747894Y-55718590D01*
X186747893Y-55718590D01*
X186818408Y-55724998D01*
X186818426Y-55724999D01*
X187325000Y-55724999D01*
X187331581Y-55724999D01*
X187402102Y-55718591D01*
X187402107Y-55718590D01*
X187564396Y-55668018D01*
X187709877Y-55580072D01*
X187830072Y-55459877D01*
X187918019Y-55314395D01*
X187968590Y-55152106D01*
X187975000Y-55081572D01*
X187975000Y-55000000D01*
X187325000Y-55000000D01*
X187325000Y-55724999D01*
X186818426Y-55724999D01*
X186824999Y-55724998D01*
X186825000Y-55724998D01*
X186825000Y-54100578D01*
X186796834Y-54048996D01*
X186794000Y-54022638D01*
X186794000Y-53649421D01*
X187294000Y-53649421D01*
X187322166Y-53701004D01*
X187325000Y-53727362D01*
X187325000Y-54500000D01*
X187974999Y-54500000D01*
X187974999Y-54418417D01*
X187968591Y-54347897D01*
X187968590Y-54347892D01*
X187918018Y-54185603D01*
X187830072Y-54040122D01*
X187754808Y-53964858D01*
X187721323Y-53903535D01*
X187726307Y-53833843D01*
X187754808Y-53789495D01*
X187841576Y-53702727D01*
X187930542Y-53558492D01*
X187930547Y-53558481D01*
X187983855Y-53397606D01*
X187993999Y-53298322D01*
X187994000Y-53298309D01*
X187994000Y-53250000D01*
X187294000Y-53250000D01*
X187294000Y-53649421D01*
X186794000Y-53649421D01*
X186794000Y-52336444D01*
X186782834Y-52315996D01*
X186780000Y-52289638D01*
X186780000Y-51913555D01*
X187280000Y-51913555D01*
X187291166Y-51934004D01*
X187294000Y-51960362D01*
X187294000Y-52750000D01*
X187993999Y-52750000D01*
X187993999Y-52701692D01*
X187993998Y-52701677D01*
X187983855Y-52602392D01*
X187930547Y-52441518D01*
X187930542Y-52441507D01*
X187841575Y-52297271D01*
X187841572Y-52297267D01*
X187749986Y-52205681D01*
X187716501Y-52144358D01*
X187721485Y-52074666D01*
X187749986Y-52030319D01*
X187827572Y-51952732D01*
X187827575Y-51952728D01*
X187916542Y-51808492D01*
X187916547Y-51808481D01*
X187969855Y-51647606D01*
X187979999Y-51548322D01*
X187980000Y-51548309D01*
X187980000Y-51500000D01*
X187280000Y-51500000D01*
X187280000Y-51913555D01*
X186780000Y-51913555D01*
X186780000Y-51374000D01*
X186799685Y-51306961D01*
X186852489Y-51261206D01*
X186904000Y-51250000D01*
X187030000Y-51250000D01*
X187030000Y-51124000D01*
X187049685Y-51056961D01*
X187102489Y-51011206D01*
X187154000Y-51000000D01*
X187979999Y-51000000D01*
X187979999Y-50951692D01*
X187979998Y-50951677D01*
X187969855Y-50852392D01*
X187916547Y-50691518D01*
X187916542Y-50691507D01*
X187827575Y-50547271D01*
X187827572Y-50547267D01*
X187741986Y-50461681D01*
X187708501Y-50400358D01*
X187713485Y-50330666D01*
X187755357Y-50274733D01*
X187820821Y-50250316D01*
X187829667Y-50250000D01*
X189376000Y-50250000D01*
X189443039Y-50269685D01*
G37*
%TD.AperFunction*%
%TD*%
%TA.AperFunction,Conductor*%
%TO.N,GND2*%
G36*
X234252702Y-41250617D02*
G01*
X234636771Y-41267386D01*
X234647506Y-41268326D01*
X235025971Y-41318152D01*
X235036597Y-41320025D01*
X235409284Y-41402648D01*
X235419710Y-41405442D01*
X235783765Y-41520227D01*
X235793911Y-41523920D01*
X236146578Y-41670000D01*
X236156369Y-41674566D01*
X236494942Y-41850816D01*
X236504310Y-41856224D01*
X236826244Y-42061318D01*
X236835105Y-42067523D01*
X237137930Y-42299889D01*
X237146217Y-42306843D01*
X237427635Y-42564715D01*
X237435284Y-42572364D01*
X237693156Y-42853782D01*
X237700110Y-42862069D01*
X237932476Y-43164894D01*
X237938681Y-43173755D01*
X238143775Y-43495689D01*
X238149183Y-43505057D01*
X238325430Y-43843623D01*
X238330002Y-43853427D01*
X238476075Y-44206078D01*
X238479775Y-44216244D01*
X238594554Y-44580278D01*
X238597354Y-44590727D01*
X238679971Y-44963389D01*
X238681849Y-44974042D01*
X238731671Y-45352473D01*
X238732614Y-45363249D01*
X238749382Y-45747297D01*
X238749500Y-45752706D01*
X238749500Y-67350903D01*
X238729815Y-67417942D01*
X238677011Y-67463697D01*
X238607853Y-67473641D01*
X238544297Y-67444616D01*
X238537819Y-67438584D01*
X237834574Y-66735339D01*
X237801089Y-66674016D01*
X237800638Y-66671849D01*
X237782595Y-66581147D01*
X237769737Y-66516503D01*
X237756062Y-66483489D01*
X237709397Y-66370827D01*
X237709390Y-66370814D01*
X237621789Y-66239711D01*
X237621786Y-66239707D01*
X237510292Y-66128213D01*
X237510288Y-66128210D01*
X237379185Y-66040609D01*
X237379172Y-66040602D01*
X237233501Y-65980264D01*
X237233489Y-65980261D01*
X237078845Y-65949500D01*
X237078842Y-65949500D01*
X236921158Y-65949500D01*
X236921155Y-65949500D01*
X236766510Y-65980261D01*
X236766498Y-65980264D01*
X236620827Y-66040602D01*
X236620814Y-66040609D01*
X236489711Y-66128210D01*
X236489707Y-66128213D01*
X236378213Y-66239707D01*
X236378210Y-66239711D01*
X236290609Y-66370814D01*
X236290602Y-66370827D01*
X236230264Y-66516498D01*
X236230261Y-66516510D01*
X236199500Y-66671153D01*
X236199500Y-66828846D01*
X236230261Y-66983489D01*
X236230264Y-66983501D01*
X236290602Y-67129172D01*
X236290609Y-67129185D01*
X236378210Y-67260288D01*
X236378213Y-67260292D01*
X236489707Y-67371786D01*
X236489711Y-67371789D01*
X236620814Y-67459390D01*
X236620827Y-67459397D01*
X236766498Y-67519735D01*
X236766503Y-67519737D01*
X236831147Y-67532595D01*
X236921849Y-67550638D01*
X236983760Y-67583023D01*
X236985339Y-67584574D01*
X237613181Y-68212416D01*
X237646666Y-68273739D01*
X237649500Y-68300097D01*
X237649500Y-69048277D01*
X237629815Y-69115316D01*
X237577011Y-69161071D01*
X237507853Y-69171015D01*
X237478048Y-69162838D01*
X237346693Y-69108430D01*
X237346681Y-69108427D01*
X237153495Y-69070000D01*
X236805000Y-69070000D01*
X236805000Y-69820000D01*
X236305000Y-69820000D01*
X236305000Y-69070000D01*
X235956504Y-69070000D01*
X235763309Y-69108428D01*
X235760490Y-69109284D01*
X235758940Y-69109297D01*
X235757336Y-69109617D01*
X235757275Y-69109312D01*
X235690623Y-69109905D01*
X235631512Y-69072654D01*
X235601924Y-69009358D01*
X235600500Y-68990622D01*
X235600500Y-65920945D01*
X235600500Y-65920943D01*
X235581625Y-65850500D01*
X235559577Y-65768215D01*
X235555002Y-65760292D01*
X235530639Y-65718095D01*
X235530637Y-65718092D01*
X235509420Y-65681342D01*
X235480520Y-65631284D01*
X235368716Y-65519480D01*
X235368715Y-65519479D01*
X235364385Y-65515149D01*
X235364374Y-65515139D01*
X234737590Y-64888355D01*
X234737588Y-64888352D01*
X234618717Y-64769481D01*
X234618716Y-64769480D01*
X234514643Y-64709394D01*
X234514642Y-64709393D01*
X234481783Y-64690422D01*
X234329054Y-64649498D01*
X234320997Y-64648438D01*
X234321188Y-64646981D01*
X234262725Y-64629814D01*
X234260873Y-64628601D01*
X234129185Y-64540609D01*
X234129172Y-64540602D01*
X233983501Y-64480264D01*
X233983489Y-64480261D01*
X233828845Y-64449500D01*
X233828842Y-64449500D01*
X233671158Y-64449500D01*
X233671155Y-64449500D01*
X233516510Y-64480261D01*
X233516498Y-64480264D01*
X233370827Y-64540602D01*
X233370814Y-64540609D01*
X233239711Y-64628210D01*
X233239707Y-64628213D01*
X233128213Y-64739707D01*
X233128210Y-64739711D01*
X233040609Y-64870814D01*
X233040602Y-64870827D01*
X232980264Y-65016498D01*
X232980261Y-65016510D01*
X232949500Y-65171153D01*
X232949500Y-65328846D01*
X232980261Y-65483489D01*
X232980264Y-65483501D01*
X233040602Y-65629172D01*
X233040609Y-65629185D01*
X233128210Y-65760288D01*
X233128213Y-65760292D01*
X233239707Y-65871786D01*
X233239711Y-65871789D01*
X233370817Y-65959392D01*
X233370819Y-65959393D01*
X233370821Y-65959394D01*
X233386270Y-65965793D01*
X233388409Y-65966679D01*
X233442812Y-66010520D01*
X233464877Y-66076814D01*
X233462573Y-66105431D01*
X233449500Y-66171153D01*
X233449500Y-66328846D01*
X233480261Y-66483489D01*
X233480264Y-66483501D01*
X233540602Y-66629172D01*
X233540609Y-66629185D01*
X233628602Y-66760874D01*
X233649480Y-66827551D01*
X233649500Y-66829765D01*
X233649500Y-68977785D01*
X233629815Y-69044824D01*
X233577011Y-69090579D01*
X233507853Y-69100523D01*
X233501309Y-69099402D01*
X233353495Y-69070000D01*
X233005000Y-69070000D01*
X233005000Y-69820000D01*
X232505000Y-69820000D01*
X232505000Y-69070000D01*
X232156504Y-69070000D01*
X231963318Y-69108427D01*
X231963306Y-69108430D01*
X231781328Y-69183807D01*
X231781315Y-69183814D01*
X231617537Y-69293248D01*
X231617533Y-69293251D01*
X231478251Y-69432533D01*
X231474385Y-69437245D01*
X231472668Y-69435836D01*
X231464147Y-69442954D01*
X231451530Y-69459809D01*
X231437871Y-69464903D01*
X231426682Y-69474250D01*
X231405792Y-69476868D01*
X231386066Y-69484226D01*
X231371819Y-69481126D01*
X231357355Y-69482940D01*
X231338366Y-69473849D01*
X231317793Y-69469374D01*
X231297880Y-69454467D01*
X231294335Y-69452770D01*
X231289539Y-69448223D01*
X231229671Y-69388355D01*
X231229669Y-69388352D01*
X231110798Y-69269481D01*
X231110797Y-69269480D01*
X231023985Y-69219360D01*
X231023985Y-69219359D01*
X231023981Y-69219358D01*
X230973866Y-69190423D01*
X230821138Y-69149499D01*
X230663024Y-69149499D01*
X230661206Y-69149499D01*
X230594167Y-69129814D01*
X230548412Y-69077010D01*
X230543275Y-69063818D01*
X230516557Y-68981588D01*
X230516555Y-68981585D01*
X230516555Y-68981583D01*
X230420048Y-68792179D01*
X230295109Y-68620213D01*
X230162801Y-68487905D01*
X230157748Y-68480243D01*
X230153001Y-68476862D01*
X230145079Y-68461034D01*
X230135358Y-68446294D01*
X230132619Y-68439450D01*
X230099577Y-68316134D01*
X230050878Y-68231785D01*
X230020520Y-68179203D01*
X229908716Y-68067399D01*
X229908715Y-68067398D01*
X229904385Y-68063068D01*
X229904374Y-68063058D01*
X229729671Y-67888355D01*
X229729669Y-67888352D01*
X229610798Y-67769481D01*
X229610793Y-67769477D01*
X229545684Y-67731887D01*
X229497469Y-67681321D01*
X229484245Y-67612714D01*
X229510213Y-67547849D01*
X229567127Y-67507320D01*
X229607684Y-67500500D01*
X229901459Y-67500500D01*
X229937974Y-67500500D01*
X230005013Y-67520185D01*
X230050768Y-67572989D01*
X230052526Y-67577028D01*
X230055652Y-67584574D01*
X230113364Y-67723908D01*
X230113371Y-67723920D01*
X230222860Y-67887781D01*
X230222863Y-67887785D01*
X230362214Y-68027136D01*
X230362218Y-68027139D01*
X230526079Y-68136628D01*
X230526092Y-68136635D01*
X230708160Y-68212049D01*
X230708165Y-68212051D01*
X230708169Y-68212051D01*
X230708170Y-68212052D01*
X230901456Y-68250500D01*
X230901459Y-68250500D01*
X231098543Y-68250500D01*
X231231271Y-68224098D01*
X231291835Y-68212051D01*
X231473914Y-68136632D01*
X231637782Y-68027139D01*
X231777139Y-67887782D01*
X231886632Y-67723914D01*
X231962051Y-67541835D01*
X231995876Y-67371789D01*
X232000500Y-67348543D01*
X232000500Y-66651458D01*
X232000499Y-66651457D01*
X231980984Y-66553345D01*
X231962051Y-66458164D01*
X231902365Y-66314069D01*
X231902365Y-66314068D01*
X231886635Y-66276092D01*
X231886628Y-66276079D01*
X231777140Y-66112219D01*
X231705523Y-66040602D01*
X231637782Y-65972861D01*
X231637780Y-65972860D01*
X231630714Y-65965793D01*
X231527139Y-65862218D01*
X231387782Y-65722861D01*
X231387781Y-65722860D01*
X231387780Y-65722859D01*
X231223920Y-65613371D01*
X231223907Y-65613364D01*
X231057918Y-65544610D01*
X231057914Y-65544609D01*
X231048250Y-65540606D01*
X231041836Y-65537949D01*
X230941385Y-65517968D01*
X230914211Y-65512562D01*
X230848543Y-65499500D01*
X230848541Y-65499500D01*
X230098541Y-65499500D01*
X228785132Y-65499500D01*
X228720036Y-65481039D01*
X228694334Y-65465186D01*
X228527797Y-65410001D01*
X228527795Y-65410000D01*
X228425010Y-65399500D01*
X227074998Y-65399500D01*
X227074981Y-65399501D01*
X226972203Y-65410000D01*
X226972200Y-65410001D01*
X226805668Y-65465185D01*
X226805663Y-65465187D01*
X226656342Y-65557289D01*
X226532289Y-65681342D01*
X226440187Y-65830663D01*
X226440182Y-65830674D01*
X226432777Y-65853023D01*
X226393004Y-65910468D01*
X226328488Y-65937290D01*
X226259712Y-65924974D01*
X226208513Y-65877431D01*
X226197366Y-65853022D01*
X226189957Y-65830663D01*
X226162003Y-65746303D01*
X226161999Y-65746297D01*
X226161998Y-65746294D01*
X226072970Y-65601959D01*
X226072967Y-65601955D01*
X226058693Y-65587681D01*
X226025208Y-65526358D01*
X226030192Y-65456666D01*
X226058693Y-65412319D01*
X226061012Y-65410000D01*
X226072968Y-65398044D01*
X226162003Y-65253697D01*
X226215349Y-65092708D01*
X226225500Y-64993345D01*
X226225499Y-64446656D01*
X226215349Y-64347292D01*
X226186291Y-64259602D01*
X226185756Y-64244036D01*
X226180314Y-64229445D01*
X226184580Y-64209834D01*
X226183890Y-64189775D01*
X226192060Y-64175449D01*
X226195166Y-64161172D01*
X226216317Y-64132918D01*
X226233251Y-64115984D01*
X226294574Y-64082499D01*
X226364266Y-64087483D01*
X226420199Y-64129355D01*
X226438638Y-64164661D01*
X226440185Y-64169331D01*
X226440187Y-64169336D01*
X226450654Y-64186305D01*
X226532288Y-64318656D01*
X226656344Y-64442712D01*
X226805666Y-64534814D01*
X226972203Y-64589999D01*
X227074991Y-64600500D01*
X228425008Y-64600499D01*
X228527797Y-64589999D01*
X228694334Y-64534814D01*
X228720036Y-64518960D01*
X228785132Y-64500500D01*
X230284218Y-64500500D01*
X230351257Y-64520185D01*
X230371899Y-64536819D01*
X230612215Y-64777136D01*
X230612219Y-64777139D01*
X230776079Y-64886627D01*
X230776083Y-64886629D01*
X230776086Y-64886631D01*
X230958164Y-64962051D01*
X231115525Y-64993352D01*
X231151455Y-65000499D01*
X231151458Y-65000500D01*
X231151460Y-65000500D01*
X231348542Y-65000500D01*
X231348543Y-65000499D01*
X231541836Y-64962051D01*
X231723914Y-64886631D01*
X231887781Y-64777139D01*
X232027139Y-64637781D01*
X232136631Y-64473914D01*
X232212051Y-64291836D01*
X232250500Y-64098540D01*
X232250500Y-63901460D01*
X232250500Y-63901457D01*
X232250499Y-63901455D01*
X232236882Y-63832996D01*
X232212051Y-63708164D01*
X232136631Y-63526086D01*
X232136629Y-63526083D01*
X232136627Y-63526079D01*
X232027139Y-63362219D01*
X232027136Y-63362215D01*
X231531479Y-62866559D01*
X231531459Y-62866537D01*
X231387785Y-62722863D01*
X231387781Y-62722860D01*
X231223920Y-62613371D01*
X231223911Y-62613366D01*
X231146597Y-62581342D01*
X231095165Y-62560038D01*
X231041836Y-62537949D01*
X231041832Y-62537948D01*
X231041828Y-62537946D01*
X230945188Y-62518724D01*
X230848544Y-62499500D01*
X230848541Y-62499500D01*
X228937230Y-62499500D01*
X228870191Y-62479815D01*
X228849549Y-62463181D01*
X228843657Y-62457289D01*
X228843656Y-62457288D01*
X228694334Y-62365186D01*
X228527797Y-62310001D01*
X228527795Y-62310000D01*
X228425010Y-62299500D01*
X227074998Y-62299500D01*
X227074981Y-62299501D01*
X226972203Y-62310000D01*
X226972200Y-62310001D01*
X226805668Y-62365185D01*
X226805663Y-62365187D01*
X226656342Y-62457289D01*
X226532289Y-62581342D01*
X226440187Y-62730663D01*
X226440184Y-62730671D01*
X226428972Y-62764506D01*
X226415102Y-62784537D01*
X226404980Y-62806703D01*
X226395567Y-62812751D01*
X226389199Y-62821950D01*
X226366700Y-62831303D01*
X226346202Y-62844477D01*
X226329098Y-62846936D01*
X226324683Y-62848772D01*
X226311267Y-62849500D01*
X226136669Y-62849500D01*
X226136653Y-62849499D01*
X226129057Y-62849499D01*
X225970943Y-62849499D01*
X225863587Y-62878265D01*
X225818210Y-62890424D01*
X225818209Y-62890425D01*
X225768096Y-62919359D01*
X225768095Y-62919360D01*
X225724689Y-62944420D01*
X225681285Y-62969479D01*
X225681282Y-62969481D01*
X225569478Y-63081286D01*
X224901221Y-63749542D01*
X224852544Y-63779567D01*
X224691305Y-63832996D01*
X224691294Y-63833001D01*
X224546959Y-63922029D01*
X224546955Y-63922032D01*
X224427032Y-64041955D01*
X224427029Y-64041959D01*
X224338001Y-64186294D01*
X224337996Y-64186305D01*
X224284651Y-64347290D01*
X224274500Y-64446647D01*
X224274500Y-64993337D01*
X224274501Y-64993355D01*
X224284650Y-65092707D01*
X224284651Y-65092710D01*
X224337996Y-65253694D01*
X224338001Y-65253705D01*
X224427029Y-65398040D01*
X224427032Y-65398044D01*
X224441307Y-65412319D01*
X224474792Y-65473642D01*
X224469808Y-65543334D01*
X224441307Y-65587681D01*
X224427032Y-65601955D01*
X224427029Y-65601959D01*
X224338001Y-65746294D01*
X224337996Y-65746305D01*
X224284651Y-65907290D01*
X224274500Y-66006647D01*
X224274500Y-66354902D01*
X224254815Y-66421941D01*
X224238181Y-66442583D01*
X224019481Y-66661282D01*
X224019480Y-66661284D01*
X223978777Y-66731784D01*
X223940423Y-66798215D01*
X223899499Y-66950943D01*
X223899499Y-66950945D01*
X223899499Y-67119046D01*
X223899500Y-67119059D01*
X223899500Y-67670234D01*
X223879815Y-67737273D01*
X223878602Y-67739125D01*
X223790609Y-67870814D01*
X223790602Y-67870827D01*
X223730264Y-68016498D01*
X223730261Y-68016510D01*
X223699500Y-68171153D01*
X223699500Y-68328846D01*
X223730261Y-68483489D01*
X223732031Y-68489324D01*
X223729279Y-68490158D01*
X223735503Y-68547359D01*
X223704309Y-68609878D01*
X223644266Y-68645608D01*
X223613445Y-68649500D01*
X221836670Y-68649500D01*
X221836654Y-68649499D01*
X221829058Y-68649499D01*
X221670943Y-68649499D01*
X221594579Y-68669961D01*
X221518214Y-68690423D01*
X221518209Y-68690426D01*
X221381290Y-68769475D01*
X221381282Y-68769481D01*
X220874217Y-69276546D01*
X220874214Y-69276548D01*
X220874215Y-69276549D01*
X220769478Y-69381286D01*
X220719361Y-69468094D01*
X220719359Y-69468096D01*
X220690425Y-69518209D01*
X220690424Y-69518210D01*
X220690423Y-69518215D01*
X220649499Y-69670943D01*
X220649499Y-69670945D01*
X220649499Y-69839046D01*
X220649500Y-69839059D01*
X220649500Y-77413330D01*
X220649499Y-77413348D01*
X220649499Y-77579054D01*
X220649498Y-77579054D01*
X220690424Y-77731789D01*
X220690425Y-77731790D01*
X220716176Y-77776391D01*
X220716177Y-77776393D01*
X220769475Y-77868709D01*
X220769479Y-77868714D01*
X220769480Y-77868716D01*
X220881284Y-77980520D01*
X220881285Y-77980521D01*
X220911970Y-78011206D01*
X220915425Y-78014660D01*
X220948911Y-78075983D01*
X220949362Y-78078151D01*
X220980261Y-78233491D01*
X220980264Y-78233501D01*
X221040602Y-78379172D01*
X221040609Y-78379185D01*
X221128210Y-78510288D01*
X221128213Y-78510292D01*
X221239707Y-78621786D01*
X221239711Y-78621789D01*
X221370814Y-78709390D01*
X221370827Y-78709397D01*
X221469768Y-78750379D01*
X221516503Y-78769737D01*
X221671153Y-78800499D01*
X221671156Y-78800500D01*
X221671158Y-78800500D01*
X221721638Y-78800500D01*
X221754587Y-78804958D01*
X221765357Y-78807926D01*
X221768216Y-78809577D01*
X221880019Y-78839534D01*
X221920942Y-78850500D01*
X221920943Y-78850500D01*
X222413331Y-78850500D01*
X222413347Y-78850501D01*
X222420943Y-78850501D01*
X222579054Y-78850501D01*
X222579057Y-78850501D01*
X222731785Y-78809577D01*
X222799279Y-78770609D01*
X222868716Y-78730520D01*
X222980520Y-78618716D01*
X222980520Y-78618714D01*
X222990720Y-78608515D01*
X222990724Y-78608510D01*
X223062417Y-78536816D01*
X223123739Y-78503334D01*
X223150096Y-78500500D01*
X223348543Y-78500500D01*
X223478582Y-78474632D01*
X223541835Y-78462051D01*
X223723914Y-78386632D01*
X223887782Y-78277139D01*
X224027139Y-78137782D01*
X224136632Y-77973914D01*
X224145852Y-77951656D01*
X224183112Y-77861700D01*
X224212051Y-77791835D01*
X224250500Y-77598541D01*
X224250500Y-77401459D01*
X224250500Y-77401456D01*
X224212052Y-77208170D01*
X224212051Y-77208169D01*
X224212051Y-77208165D01*
X224208836Y-77200404D01*
X224136635Y-77026092D01*
X224136628Y-77026079D01*
X224027139Y-76862218D01*
X224027136Y-76862214D01*
X223887785Y-76722863D01*
X223887781Y-76722860D01*
X223723920Y-76613371D01*
X223723907Y-76613364D01*
X223541839Y-76537950D01*
X223541829Y-76537947D01*
X223348543Y-76499500D01*
X223348541Y-76499500D01*
X223151459Y-76499500D01*
X223151457Y-76499500D01*
X222958170Y-76537947D01*
X222958160Y-76537950D01*
X222776092Y-76613364D01*
X222776079Y-76613371D01*
X222612218Y-76722860D01*
X222612214Y-76722863D01*
X222472863Y-76862214D01*
X222472860Y-76862218D01*
X222363371Y-77026079D01*
X222363364Y-77026092D01*
X222287948Y-77208165D01*
X222287719Y-77208922D01*
X222287491Y-77209269D01*
X222285618Y-77213792D01*
X222284759Y-77213436D01*
X222280899Y-77219323D01*
X222278350Y-77231497D01*
X222262105Y-77247992D01*
X222249413Y-77267355D01*
X222238052Y-77272419D01*
X222229326Y-77281281D01*
X222206743Y-77286376D01*
X222185597Y-77295803D01*
X222171651Y-77294294D01*
X222161170Y-77296659D01*
X222132963Y-77290107D01*
X222126626Y-77289422D01*
X222124094Y-77288499D01*
X221983497Y-77230263D01*
X221940991Y-77221808D01*
X221932063Y-77218556D01*
X221911273Y-77203242D01*
X221888398Y-77191276D01*
X221883606Y-77182861D01*
X221875808Y-77177117D01*
X221866598Y-77152994D01*
X221853824Y-77130561D01*
X221851973Y-77114685D01*
X221850888Y-77111842D01*
X221851372Y-77109529D01*
X221850500Y-77102044D01*
X221850500Y-75677051D01*
X221870185Y-75610012D01*
X221922989Y-75564257D01*
X221992147Y-75554313D01*
X222039598Y-75571513D01*
X222041954Y-75572966D01*
X222041956Y-75572968D01*
X222112128Y-75616251D01*
X222185555Y-75661542D01*
X222186303Y-75662003D01*
X222347292Y-75715349D01*
X222446655Y-75725500D01*
X222993344Y-75725499D01*
X222993352Y-75725498D01*
X222993355Y-75725498D01*
X223047760Y-75719940D01*
X223092708Y-75715349D01*
X223253697Y-75662003D01*
X223398044Y-75572968D01*
X223412671Y-75558340D01*
X223473989Y-75524855D01*
X223543681Y-75529836D01*
X223588034Y-75558339D01*
X223602267Y-75572572D01*
X223602271Y-75572575D01*
X223746507Y-75661542D01*
X223746518Y-75661547D01*
X223907393Y-75714855D01*
X224006683Y-75724999D01*
X224530000Y-75724999D01*
X224553308Y-75724999D01*
X224553322Y-75724998D01*
X224652607Y-75714855D01*
X224813481Y-75661547D01*
X224813492Y-75661542D01*
X224957728Y-75572575D01*
X224957732Y-75572572D01*
X225077572Y-75452732D01*
X225077575Y-75452728D01*
X225166542Y-75308492D01*
X225166547Y-75308481D01*
X225219855Y-75147606D01*
X225229999Y-75048322D01*
X225230000Y-75048309D01*
X225230000Y-75000000D01*
X224530000Y-75000000D01*
X224530000Y-75724999D01*
X224006683Y-75724999D01*
X224030000Y-75724998D01*
X224030000Y-74874000D01*
X224049685Y-74806961D01*
X224102489Y-74761206D01*
X224154000Y-74750000D01*
X224280000Y-74750000D01*
X224280000Y-74624000D01*
X224299685Y-74556961D01*
X224352489Y-74511206D01*
X224404000Y-74500000D01*
X225229999Y-74500000D01*
X225229999Y-74451692D01*
X225229998Y-74451677D01*
X225219855Y-74352392D01*
X225166547Y-74191518D01*
X225166542Y-74191507D01*
X225077575Y-74047271D01*
X225077572Y-74047267D01*
X224957731Y-73927426D01*
X224847696Y-73859555D01*
X224800972Y-73807607D01*
X224789751Y-73738644D01*
X224817594Y-73674562D01*
X224848639Y-73647904D01*
X224960185Y-73580472D01*
X225080472Y-73460185D01*
X225110598Y-73410349D01*
X225118532Y-73403083D01*
X225123002Y-73393297D01*
X225143849Y-73379899D01*
X225162126Y-73363162D01*
X225174280Y-73360342D01*
X225181780Y-73355523D01*
X225216715Y-73350500D01*
X225449903Y-73350500D01*
X225516942Y-73370185D01*
X225537584Y-73386819D01*
X225612639Y-73461874D01*
X225612649Y-73461885D01*
X225616979Y-73466215D01*
X225616980Y-73466216D01*
X225728784Y-73578020D01*
X225728789Y-73578023D01*
X225729825Y-73578818D01*
X225731886Y-73581121D01*
X225734532Y-73583767D01*
X225734385Y-73583913D01*
X225760455Y-73613044D01*
X225816245Y-73705333D01*
X225929665Y-73818753D01*
X225929670Y-73818757D01*
X226066929Y-73901732D01*
X226066933Y-73901734D01*
X226121100Y-73918612D01*
X226220067Y-73949452D01*
X226286619Y-73955500D01*
X226713380Y-73955499D01*
X226713388Y-73955499D01*
X226779926Y-73949453D01*
X226779927Y-73949452D01*
X226779933Y-73949452D01*
X226933069Y-73901733D01*
X227044020Y-73834661D01*
X227070329Y-73818757D01*
X227070330Y-73818755D01*
X227070335Y-73818753D01*
X227183753Y-73705335D01*
X227202339Y-73674588D01*
X227207287Y-73669097D01*
X227208824Y-73664916D01*
X227224585Y-73649904D01*
X227233658Y-73639837D01*
X227236543Y-73637654D01*
X227260289Y-73621789D01*
X227268877Y-73613200D01*
X227275702Y-73608039D01*
X227300686Y-73598579D01*
X227324133Y-73585775D01*
X227332860Y-73586398D01*
X227341045Y-73583300D01*
X227367179Y-73588850D01*
X227393825Y-73590754D01*
X227400830Y-73595997D01*
X227409390Y-73597815D01*
X227428372Y-73616611D01*
X227449762Y-73632621D01*
X227452820Y-73640820D01*
X227459038Y-73646977D01*
X227464845Y-73673052D01*
X227474183Y-73698084D01*
X227474500Y-73706939D01*
X227474500Y-75374166D01*
X227488996Y-75484280D01*
X227488999Y-75484291D01*
X227545750Y-75621302D01*
X227545751Y-75621304D01*
X227545752Y-75621305D01*
X227636036Y-75738964D01*
X227753695Y-75829248D01*
X227890712Y-75886002D01*
X228000835Y-75900500D01*
X228200902Y-75900499D01*
X228222143Y-75906736D01*
X228244230Y-75908315D01*
X228255015Y-75916388D01*
X228267940Y-75920183D01*
X228282438Y-75936915D01*
X228300165Y-75950184D01*
X228304873Y-75962806D01*
X228313695Y-75972987D01*
X228316846Y-75994901D01*
X228324585Y-76015648D01*
X228321721Y-76028812D01*
X228323639Y-76042145D01*
X228314442Y-76062283D01*
X228309736Y-76083921D01*
X228296461Y-76101655D01*
X228294614Y-76105701D01*
X228288586Y-76112177D01*
X228276721Y-76124043D01*
X228276717Y-76124046D01*
X228276714Y-76124048D01*
X228276715Y-76124049D01*
X228171975Y-76228789D01*
X228171173Y-76229835D01*
X228168861Y-76231903D01*
X228166234Y-76234531D01*
X228166088Y-76234385D01*
X228136956Y-76260454D01*
X228044664Y-76316247D01*
X227931243Y-76429669D01*
X227931242Y-76429670D01*
X227848267Y-76566929D01*
X227848265Y-76566933D01*
X227800548Y-76720065D01*
X227794500Y-76786621D01*
X227794500Y-77213388D01*
X227800546Y-77279926D01*
X227800548Y-77279933D01*
X227848265Y-77433066D01*
X227848267Y-77433070D01*
X227931242Y-77570329D01*
X227931246Y-77570334D01*
X228044665Y-77683753D01*
X228044670Y-77683757D01*
X228181929Y-77766732D01*
X228181933Y-77766734D01*
X228218890Y-77778250D01*
X228335067Y-77814452D01*
X228401619Y-77820500D01*
X228903380Y-77820499D01*
X228903388Y-77820499D01*
X228969926Y-77814453D01*
X228969927Y-77814452D01*
X228969933Y-77814452D01*
X229086110Y-77778250D01*
X229113516Y-77777798D01*
X229140647Y-77773897D01*
X229147945Y-77777230D01*
X229155970Y-77777098D01*
X229179270Y-77791535D01*
X229204203Y-77802922D01*
X229208541Y-77809672D01*
X229215362Y-77813899D01*
X229227156Y-77838639D01*
X229241977Y-77861700D01*
X229243629Y-77873190D01*
X229245430Y-77876968D01*
X229247000Y-77896635D01*
X229247000Y-77926330D01*
X229246999Y-77926348D01*
X229246999Y-78092054D01*
X229246998Y-78092054D01*
X229287922Y-78244783D01*
X229306602Y-78277138D01*
X229306603Y-78277139D01*
X229348887Y-78350377D01*
X229365500Y-78412377D01*
X229365500Y-78704891D01*
X229356855Y-78750379D01*
X229340810Y-78791067D01*
X229339677Y-78800500D01*
X229330500Y-78876922D01*
X229330500Y-78876928D01*
X229330500Y-79250137D01*
X229310815Y-79317176D01*
X229258011Y-79362931D01*
X229188853Y-79372875D01*
X229171609Y-79365000D01*
X228842972Y-79365000D01*
X228757190Y-79375300D01*
X228620693Y-79429127D01*
X228620691Y-79429128D01*
X228503782Y-79517782D01*
X228415128Y-79634691D01*
X228415127Y-79634693D01*
X228361301Y-79771188D01*
X228361300Y-79771190D01*
X228351000Y-79856964D01*
X228351000Y-79865000D01*
X229157000Y-79865000D01*
X229165685Y-79867550D01*
X229174647Y-79866262D01*
X229198687Y-79877240D01*
X229224039Y-79884685D01*
X229229966Y-79891525D01*
X229238203Y-79895287D01*
X229252492Y-79917521D01*
X229269794Y-79937489D01*
X229272081Y-79948003D01*
X229275977Y-79954065D01*
X229281000Y-79989000D01*
X229281000Y-80011000D01*
X229261315Y-80078039D01*
X229208511Y-80123794D01*
X229157000Y-80135000D01*
X228351001Y-80135000D01*
X228351001Y-80143027D01*
X228362070Y-80235215D01*
X228362070Y-80264780D01*
X228359008Y-80290282D01*
X228331472Y-80354497D01*
X228273590Y-80393631D01*
X228235892Y-80399500D01*
X227817065Y-80399500D01*
X227750026Y-80379815D01*
X227710948Y-80339650D01*
X227683754Y-80294666D01*
X227634588Y-80245500D01*
X227570335Y-80181247D01*
X227570332Y-80181245D01*
X227570330Y-80181243D01*
X227570329Y-80181242D01*
X227433070Y-80098267D01*
X227433066Y-80098265D01*
X227279933Y-80050548D01*
X227279935Y-80050548D01*
X227253312Y-80048128D01*
X227213381Y-80044500D01*
X227213378Y-80044500D01*
X226786611Y-80044500D01*
X226720073Y-80050546D01*
X226720066Y-80050548D01*
X226566933Y-80098265D01*
X226566929Y-80098267D01*
X226429670Y-80181242D01*
X226429665Y-80181246D01*
X226345231Y-80265681D01*
X226318303Y-80280384D01*
X226292485Y-80296977D01*
X226286284Y-80297868D01*
X226283908Y-80299166D01*
X226257550Y-80302000D01*
X226184169Y-80302000D01*
X226184153Y-80301999D01*
X226176557Y-80301999D01*
X226018443Y-80301999D01*
X225903897Y-80332692D01*
X225865714Y-80342923D01*
X225828343Y-80364500D01*
X225828342Y-80364500D01*
X225728787Y-80421977D01*
X225728782Y-80421981D01*
X224769481Y-81381282D01*
X224769475Y-81381290D01*
X224728852Y-81451653D01*
X224728852Y-81451655D01*
X224690423Y-81518214D01*
X224690423Y-81518215D01*
X224649499Y-81670943D01*
X224649499Y-81670945D01*
X224649499Y-81839046D01*
X224649500Y-81839059D01*
X224649500Y-84913330D01*
X224649499Y-84913348D01*
X224649499Y-85079054D01*
X224649498Y-85079054D01*
X224671861Y-85162510D01*
X224690423Y-85231785D01*
X224690761Y-85232370D01*
X224700651Y-85249500D01*
X224769477Y-85368712D01*
X224769481Y-85368717D01*
X224888349Y-85487585D01*
X224888355Y-85487590D01*
X225656508Y-86255744D01*
X225689993Y-86317067D01*
X225685009Y-86386759D01*
X225643137Y-86442692D01*
X225593019Y-86465042D01*
X225516508Y-86480261D01*
X225516498Y-86480264D01*
X225370827Y-86540602D01*
X225370814Y-86540609D01*
X225239711Y-86628210D01*
X225239707Y-86628213D01*
X225128213Y-86739707D01*
X225128210Y-86739711D01*
X225040609Y-86870814D01*
X225040602Y-86870827D01*
X224980264Y-87016498D01*
X224980261Y-87016510D01*
X224949500Y-87171153D01*
X224949500Y-87328846D01*
X224980261Y-87483489D01*
X224980264Y-87483501D01*
X225040602Y-87629172D01*
X225040609Y-87629185D01*
X225128210Y-87760288D01*
X225128213Y-87760292D01*
X225239707Y-87871786D01*
X225239711Y-87871789D01*
X225370814Y-87959390D01*
X225370827Y-87959397D01*
X225516498Y-88019735D01*
X225516503Y-88019737D01*
X225660324Y-88048345D01*
X225671153Y-88050499D01*
X225671156Y-88050500D01*
X225671158Y-88050500D01*
X225721638Y-88050500D01*
X225754587Y-88054958D01*
X225765357Y-88057926D01*
X225768216Y-88059577D01*
X225880019Y-88089534D01*
X225920942Y-88100500D01*
X225920943Y-88100500D01*
X226134216Y-88100500D01*
X226163522Y-88109105D01*
X226193388Y-88115529D01*
X226198565Y-88119395D01*
X226201255Y-88120185D01*
X226221692Y-88136614D01*
X226222852Y-88137768D01*
X226222861Y-88137782D01*
X226362218Y-88277139D01*
X226364222Y-88278478D01*
X226370188Y-88284416D01*
X226384253Y-88310032D01*
X226400709Y-88334187D01*
X226402486Y-88340206D01*
X226440423Y-88481785D01*
X226467078Y-88527952D01*
X226469358Y-88531900D01*
X226469359Y-88531904D01*
X226469360Y-88531904D01*
X226482117Y-88554001D01*
X226519479Y-88618714D01*
X226519481Y-88618717D01*
X226638349Y-88737585D01*
X226638355Y-88737590D01*
X227765139Y-89864374D01*
X227765149Y-89864385D01*
X227881285Y-89980521D01*
X227946397Y-90018112D01*
X227994613Y-90068679D01*
X228007837Y-90137286D01*
X227981869Y-90202151D01*
X227924956Y-90242680D01*
X227884398Y-90249500D01*
X219124000Y-90249500D01*
X219056961Y-90229815D01*
X219011206Y-90177011D01*
X219000000Y-90125500D01*
X219000000Y-83724500D01*
X219019685Y-83657461D01*
X219072489Y-83611706D01*
X219124000Y-83600500D01*
X220163331Y-83600500D01*
X220163347Y-83600501D01*
X220170943Y-83600501D01*
X220329054Y-83600501D01*
X220329057Y-83600501D01*
X220481785Y-83559577D01*
X220531904Y-83530639D01*
X220618716Y-83480520D01*
X220730520Y-83368716D01*
X220730520Y-83368714D01*
X220740728Y-83358507D01*
X220740729Y-83358504D01*
X222480520Y-81618716D01*
X222480520Y-81618714D01*
X222490724Y-81608511D01*
X222490727Y-81608506D01*
X223462416Y-80636819D01*
X223489343Y-80622115D01*
X223515162Y-80605523D01*
X223521362Y-80604631D01*
X223523739Y-80603334D01*
X223550097Y-80600500D01*
X223670234Y-80600500D01*
X223737273Y-80620185D01*
X223739125Y-80621398D01*
X223870814Y-80709390D01*
X223870827Y-80709397D01*
X224016498Y-80769735D01*
X224016503Y-80769737D01*
X224171153Y-80800499D01*
X224171156Y-80800500D01*
X224171158Y-80800500D01*
X224328844Y-80800500D01*
X224328845Y-80800499D01*
X224483497Y-80769737D01*
X224629179Y-80709394D01*
X224760289Y-80621789D01*
X224871789Y-80510289D01*
X224959394Y-80379179D01*
X225019737Y-80233497D01*
X225050500Y-80078842D01*
X225050500Y-79921158D01*
X225050500Y-79921155D01*
X225050499Y-79921153D01*
X225041764Y-79877240D01*
X225019737Y-79766503D01*
X224992892Y-79701692D01*
X224959397Y-79620827D01*
X224959390Y-79620814D01*
X224871789Y-79489711D01*
X224871786Y-79489707D01*
X224760292Y-79378213D01*
X224760288Y-79378210D01*
X224629185Y-79290609D01*
X224629172Y-79290602D01*
X224483501Y-79230264D01*
X224483489Y-79230261D01*
X224328845Y-79199500D01*
X224328842Y-79199500D01*
X224171158Y-79199500D01*
X224171155Y-79199500D01*
X224016510Y-79230261D01*
X224016498Y-79230264D01*
X223870827Y-79290602D01*
X223870814Y-79290609D01*
X223739125Y-79378602D01*
X223672447Y-79399480D01*
X223670234Y-79399500D01*
X223336669Y-79399500D01*
X223336653Y-79399499D01*
X223329057Y-79399499D01*
X223170943Y-79399499D01*
X223063587Y-79428265D01*
X223018210Y-79440424D01*
X223018209Y-79440425D01*
X222968096Y-79469359D01*
X222968095Y-79469360D01*
X222932853Y-79489707D01*
X222881285Y-79519479D01*
X222881282Y-79519481D01*
X221631284Y-80769480D01*
X220037584Y-82363181D01*
X219976261Y-82396666D01*
X219949903Y-82399500D01*
X219124000Y-82399500D01*
X219056961Y-82379815D01*
X219011206Y-82327011D01*
X219000000Y-82275500D01*
X219000000Y-61180000D01*
X231285138Y-61180000D01*
X232355272Y-61180000D01*
X232263386Y-61218060D01*
X232193060Y-61288386D01*
X232155000Y-61380272D01*
X232155000Y-61479728D01*
X232193060Y-61571614D01*
X232263386Y-61641940D01*
X232355272Y-61680000D01*
X231285138Y-61680000D01*
X231293430Y-61721690D01*
X231293430Y-61721692D01*
X231368807Y-61903671D01*
X231368814Y-61903684D01*
X231478248Y-62067462D01*
X231478251Y-62067466D01*
X231617533Y-62206748D01*
X231617537Y-62206751D01*
X231781315Y-62316185D01*
X231781328Y-62316192D01*
X231963306Y-62391569D01*
X231963318Y-62391572D01*
X232156504Y-62429999D01*
X232156508Y-62430000D01*
X232505000Y-62430000D01*
X232505000Y-61680000D01*
X233005000Y-61680000D01*
X233005000Y-62430000D01*
X233353492Y-62430000D01*
X233353495Y-62429999D01*
X233546681Y-62391572D01*
X233546693Y-62391569D01*
X233728671Y-62316192D01*
X233728684Y-62316185D01*
X233892462Y-62206751D01*
X233892466Y-62206748D01*
X234031748Y-62067466D01*
X234031751Y-62067462D01*
X234141185Y-61903684D01*
X234141192Y-61903671D01*
X234216569Y-61721692D01*
X234216569Y-61721690D01*
X234224862Y-61680000D01*
X233154728Y-61680000D01*
X233246614Y-61641940D01*
X233316940Y-61571614D01*
X233355000Y-61479728D01*
X233355000Y-61380272D01*
X233316940Y-61288386D01*
X233246614Y-61218060D01*
X233154728Y-61180000D01*
X234224862Y-61180000D01*
X235085138Y-61180000D01*
X236155272Y-61180000D01*
X236063386Y-61218060D01*
X235993060Y-61288386D01*
X235955000Y-61380272D01*
X235955000Y-61479728D01*
X235993060Y-61571614D01*
X236063386Y-61641940D01*
X236155272Y-61680000D01*
X235085138Y-61680000D01*
X235093430Y-61721690D01*
X235093430Y-61721692D01*
X235168807Y-61903671D01*
X235168814Y-61903684D01*
X235278248Y-62067462D01*
X235278251Y-62067466D01*
X235417533Y-62206748D01*
X235417537Y-62206751D01*
X235581315Y-62316185D01*
X235581328Y-62316192D01*
X235763306Y-62391569D01*
X235763318Y-62391572D01*
X235956504Y-62429999D01*
X235956508Y-62430000D01*
X236305000Y-62430000D01*
X236305000Y-61680000D01*
X236805000Y-61680000D01*
X236805000Y-62430000D01*
X237153492Y-62430000D01*
X237153495Y-62429999D01*
X237346681Y-62391572D01*
X237346693Y-62391569D01*
X237528671Y-62316192D01*
X237528684Y-62316185D01*
X237692462Y-62206751D01*
X237692466Y-62206748D01*
X237831748Y-62067466D01*
X237831751Y-62067462D01*
X237941185Y-61903684D01*
X237941192Y-61903671D01*
X238016569Y-61721692D01*
X238016569Y-61721690D01*
X238024862Y-61680000D01*
X236954728Y-61680000D01*
X237046614Y-61641940D01*
X237116940Y-61571614D01*
X237155000Y-61479728D01*
X237155000Y-61380272D01*
X237116940Y-61288386D01*
X237046614Y-61218060D01*
X236954728Y-61180000D01*
X238024862Y-61180000D01*
X238016569Y-61138309D01*
X238016569Y-61138307D01*
X237941192Y-60956328D01*
X237941185Y-60956315D01*
X237831751Y-60792537D01*
X237831748Y-60792533D01*
X237692466Y-60653251D01*
X237692462Y-60653248D01*
X237528684Y-60543814D01*
X237528671Y-60543807D01*
X237346693Y-60468430D01*
X237346681Y-60468427D01*
X237153495Y-60430000D01*
X236805000Y-60430000D01*
X236805000Y-61180000D01*
X236305000Y-61180000D01*
X236305000Y-60430000D01*
X235956504Y-60430000D01*
X235763318Y-60468427D01*
X235763306Y-60468430D01*
X235581328Y-60543807D01*
X235581315Y-60543814D01*
X235417537Y-60653248D01*
X235417533Y-60653251D01*
X235278251Y-60792533D01*
X235278248Y-60792537D01*
X235168814Y-60956315D01*
X235168807Y-60956328D01*
X235093430Y-61138307D01*
X235093430Y-61138309D01*
X235085138Y-61180000D01*
X234224862Y-61180000D01*
X234216569Y-61138309D01*
X234216569Y-61138307D01*
X234141192Y-60956328D01*
X234141185Y-60956315D01*
X234031751Y-60792537D01*
X234031748Y-60792533D01*
X233892466Y-60653251D01*
X233892462Y-60653248D01*
X233728684Y-60543814D01*
X233728671Y-60543807D01*
X233546693Y-60468430D01*
X233546681Y-60468427D01*
X233353495Y-60430000D01*
X233005000Y-60430000D01*
X233005000Y-61180000D01*
X232505000Y-61180000D01*
X232505000Y-60430000D01*
X232156504Y-60430000D01*
X231963318Y-60468427D01*
X231963306Y-60468430D01*
X231781328Y-60543807D01*
X231781315Y-60543814D01*
X231617537Y-60653248D01*
X231617533Y-60653251D01*
X231478251Y-60792533D01*
X231478248Y-60792537D01*
X231368814Y-60956315D01*
X231368807Y-60956328D01*
X231293430Y-61138307D01*
X231293430Y-61138309D01*
X231285138Y-61180000D01*
X219000000Y-61180000D01*
X219000000Y-58647682D01*
X224452651Y-58647682D01*
X224452651Y-58852317D01*
X224484660Y-59054417D01*
X224547895Y-59249031D01*
X224640792Y-59431350D01*
X224640798Y-59431359D01*
X224673174Y-59475921D01*
X224673175Y-59475922D01*
X225352651Y-58796446D01*
X225352651Y-58802661D01*
X225379910Y-58904394D01*
X225432571Y-58995606D01*
X225507045Y-59070080D01*
X225598257Y-59122741D01*
X225699990Y-59150000D01*
X225706204Y-59150000D01*
X225026727Y-59829474D01*
X225071301Y-59861859D01*
X225253619Y-59954755D01*
X225448233Y-60017990D01*
X225650334Y-60050000D01*
X225854968Y-60050000D01*
X226057068Y-60017990D01*
X226251682Y-59954755D01*
X226434000Y-59861859D01*
X226478572Y-59829474D01*
X225799098Y-59150000D01*
X225805312Y-59150000D01*
X225907045Y-59122741D01*
X225998257Y-59070080D01*
X226072731Y-58995606D01*
X226125392Y-58904394D01*
X226152651Y-58802661D01*
X226152651Y-58796447D01*
X226832125Y-59475921D01*
X226864510Y-59431349D01*
X226957406Y-59249031D01*
X227020641Y-59054417D01*
X227052651Y-58852317D01*
X227052651Y-58647682D01*
X227020641Y-58445582D01*
X226957406Y-58250968D01*
X226864510Y-58068650D01*
X226832125Y-58024077D01*
X226832125Y-58024076D01*
X226152651Y-58703551D01*
X226152651Y-58697339D01*
X226125392Y-58595606D01*
X226072731Y-58504394D01*
X225998257Y-58429920D01*
X225907045Y-58377259D01*
X225805312Y-58350000D01*
X225799097Y-58350000D01*
X226246962Y-57902135D01*
X228252151Y-57902135D01*
X228252151Y-59597870D01*
X228252152Y-59597876D01*
X228258559Y-59657483D01*
X228308853Y-59792328D01*
X228308857Y-59792335D01*
X228395103Y-59907544D01*
X228395106Y-59907547D01*
X228510315Y-59993793D01*
X228510322Y-59993797D01*
X228645168Y-60044091D01*
X228645167Y-60044091D01*
X228652095Y-60044835D01*
X228704778Y-60050500D01*
X230400523Y-60050499D01*
X230460134Y-60044091D01*
X230594982Y-59993796D01*
X230710197Y-59907546D01*
X230796447Y-59792331D01*
X230846742Y-59657483D01*
X230853151Y-59597873D01*
X230853150Y-57902128D01*
X230846742Y-57842517D01*
X230796447Y-57707669D01*
X230796446Y-57707668D01*
X230796444Y-57707664D01*
X230710198Y-57592455D01*
X230710195Y-57592452D01*
X230594986Y-57506206D01*
X230594979Y-57506202D01*
X230460133Y-57455908D01*
X230460134Y-57455908D01*
X230400534Y-57449501D01*
X230400532Y-57449500D01*
X230400524Y-57449500D01*
X230400515Y-57449500D01*
X228704780Y-57449500D01*
X228704774Y-57449501D01*
X228645167Y-57455908D01*
X228510322Y-57506202D01*
X228510315Y-57506206D01*
X228395106Y-57592452D01*
X228395103Y-57592455D01*
X228308857Y-57707664D01*
X228308853Y-57707671D01*
X228258559Y-57842517D01*
X228252152Y-57902116D01*
X228252152Y-57902123D01*
X228252151Y-57902135D01*
X226246962Y-57902135D01*
X226478573Y-57670524D01*
X226478572Y-57670523D01*
X226434010Y-57638147D01*
X226434001Y-57638141D01*
X226251682Y-57545244D01*
X226057068Y-57482009D01*
X225854968Y-57450000D01*
X225650334Y-57450000D01*
X225448233Y-57482009D01*
X225253619Y-57545244D01*
X225071295Y-57638143D01*
X225026728Y-57670523D01*
X225026728Y-57670524D01*
X225706205Y-58350000D01*
X225699990Y-58350000D01*
X225598257Y-58377259D01*
X225507045Y-58429920D01*
X225432571Y-58504394D01*
X225379910Y-58595606D01*
X225352651Y-58697339D01*
X225352651Y-58703553D01*
X224673175Y-58024077D01*
X224673174Y-58024077D01*
X224640794Y-58068644D01*
X224547895Y-58250968D01*
X224484660Y-58445582D01*
X224452651Y-58647682D01*
X219000000Y-58647682D01*
X219000000Y-54421153D01*
X227699500Y-54421153D01*
X227699500Y-54578846D01*
X227730261Y-54733489D01*
X227730264Y-54733501D01*
X227790602Y-54879172D01*
X227790609Y-54879185D01*
X227878210Y-55010288D01*
X227878213Y-55010292D01*
X227989707Y-55121786D01*
X227989711Y-55121789D01*
X228120814Y-55209390D01*
X228120827Y-55209397D01*
X228220060Y-55250500D01*
X228266503Y-55269737D01*
X228421153Y-55300499D01*
X228421156Y-55300500D01*
X228421158Y-55300500D01*
X228578844Y-55300500D01*
X228578845Y-55300499D01*
X228655152Y-55285320D01*
X228733488Y-55269739D01*
X228733489Y-55269738D01*
X228733497Y-55269737D01*
X228757155Y-55259937D01*
X228804604Y-55250500D01*
X230387770Y-55250500D01*
X230454809Y-55270185D01*
X230475451Y-55286819D01*
X231559447Y-56370814D01*
X232417049Y-57228416D01*
X232521584Y-57332951D01*
X232521587Y-57332953D01*
X232521588Y-57332954D01*
X232644503Y-57415083D01*
X232644506Y-57415085D01*
X232694665Y-57435861D01*
X232701080Y-57438518D01*
X232781088Y-57471659D01*
X232897241Y-57494763D01*
X232920380Y-57499365D01*
X232926081Y-57500500D01*
X232926082Y-57500500D01*
X232926083Y-57500500D01*
X233073918Y-57500500D01*
X234695396Y-57500500D01*
X234742844Y-57509937D01*
X234766503Y-57519737D01*
X234766508Y-57519738D01*
X234766511Y-57519739D01*
X234921153Y-57550499D01*
X234921156Y-57550500D01*
X234921158Y-57550500D01*
X235078844Y-57550500D01*
X235078845Y-57550499D01*
X235233497Y-57519737D01*
X235379179Y-57459394D01*
X235510289Y-57371789D01*
X235621789Y-57260289D01*
X235709394Y-57129179D01*
X235769737Y-56983497D01*
X235800500Y-56828842D01*
X235800500Y-56671158D01*
X235800500Y-56671155D01*
X235800499Y-56671153D01*
X235769738Y-56516510D01*
X235769737Y-56516503D01*
X235769735Y-56516498D01*
X235709397Y-56370827D01*
X235709390Y-56370814D01*
X235621789Y-56239711D01*
X235621786Y-56239707D01*
X235510292Y-56128213D01*
X235510288Y-56128210D01*
X235379185Y-56040609D01*
X235379172Y-56040602D01*
X235233501Y-55980264D01*
X235233489Y-55980261D01*
X235078845Y-55949500D01*
X235078842Y-55949500D01*
X234921158Y-55949500D01*
X234921155Y-55949500D01*
X234766511Y-55980260D01*
X234766506Y-55980262D01*
X234766504Y-55980262D01*
X234766503Y-55980263D01*
X234742844Y-55990062D01*
X234695396Y-55999500D01*
X233362229Y-55999500D01*
X233295190Y-55979815D01*
X233274548Y-55963181D01*
X231228421Y-53917052D01*
X231228414Y-53917046D01*
X231154729Y-53867812D01*
X231154729Y-53867813D01*
X231105491Y-53834913D01*
X230968917Y-53778343D01*
X230968907Y-53778340D01*
X230823920Y-53749500D01*
X230823918Y-53749500D01*
X228804604Y-53749500D01*
X228757155Y-53740062D01*
X228733497Y-53730263D01*
X228733493Y-53730262D01*
X228733488Y-53730260D01*
X228578845Y-53699500D01*
X228578842Y-53699500D01*
X228421158Y-53699500D01*
X228421155Y-53699500D01*
X228266510Y-53730261D01*
X228266498Y-53730264D01*
X228120827Y-53790602D01*
X228120814Y-53790609D01*
X227989711Y-53878210D01*
X227989707Y-53878213D01*
X227878213Y-53989707D01*
X227878210Y-53989711D01*
X227790609Y-54120814D01*
X227790602Y-54120827D01*
X227730264Y-54266498D01*
X227730261Y-54266510D01*
X227699500Y-54421153D01*
X219000000Y-54421153D01*
X219000000Y-52171153D01*
X230449500Y-52171153D01*
X230449500Y-52328846D01*
X230480261Y-52483489D01*
X230480264Y-52483501D01*
X230540602Y-52629172D01*
X230540609Y-52629185D01*
X230628210Y-52760288D01*
X230628213Y-52760292D01*
X230739707Y-52871786D01*
X230739711Y-52871789D01*
X230870814Y-52959390D01*
X230870827Y-52959397D01*
X231016498Y-53019735D01*
X231016503Y-53019737D01*
X231171153Y-53050499D01*
X231171156Y-53050500D01*
X231171158Y-53050500D01*
X231328844Y-53050500D01*
X231328845Y-53050499D01*
X231483497Y-53019737D01*
X231629179Y-52959394D01*
X231760289Y-52871789D01*
X231871789Y-52760289D01*
X231959394Y-52629179D01*
X231969191Y-52605524D01*
X231996069Y-52565297D01*
X234274548Y-50286819D01*
X234335871Y-50253334D01*
X234362229Y-50250500D01*
X234945396Y-50250500D01*
X234992844Y-50259937D01*
X235016503Y-50269737D01*
X235016508Y-50269738D01*
X235016511Y-50269739D01*
X235171153Y-50300499D01*
X235171156Y-50300500D01*
X235171158Y-50300500D01*
X235328844Y-50300500D01*
X235328845Y-50300499D01*
X235483497Y-50269737D01*
X235629179Y-50209394D01*
X235760289Y-50121789D01*
X235871789Y-50010289D01*
X235959394Y-49879179D01*
X236019737Y-49733497D01*
X236050500Y-49578842D01*
X236050500Y-49421158D01*
X236050500Y-49421155D01*
X236050499Y-49421153D01*
X236019738Y-49266510D01*
X236019737Y-49266503D01*
X236019735Y-49266498D01*
X235959397Y-49120827D01*
X235959390Y-49120814D01*
X235871789Y-48989711D01*
X235871786Y-48989707D01*
X235760292Y-48878213D01*
X235760288Y-48878210D01*
X235629185Y-48790609D01*
X235629172Y-48790602D01*
X235483501Y-48730264D01*
X235483489Y-48730261D01*
X235328845Y-48699500D01*
X235328842Y-48699500D01*
X235171158Y-48699500D01*
X235171155Y-48699500D01*
X235016511Y-48730260D01*
X235016506Y-48730262D01*
X235016504Y-48730262D01*
X235016503Y-48730263D01*
X234992844Y-48740062D01*
X234945396Y-48749500D01*
X233926080Y-48749500D01*
X233781092Y-48778340D01*
X233781082Y-48778343D01*
X233644511Y-48834912D01*
X233644498Y-48834919D01*
X233521584Y-48917048D01*
X233521580Y-48917051D01*
X230934703Y-51503927D01*
X230894480Y-51530805D01*
X230870819Y-51540606D01*
X230870818Y-51540607D01*
X230739715Y-51628207D01*
X230739707Y-51628213D01*
X230628213Y-51739707D01*
X230628210Y-51739711D01*
X230540609Y-51870814D01*
X230540602Y-51870827D01*
X230480264Y-52016498D01*
X230480261Y-52016510D01*
X230449500Y-52171153D01*
X219000000Y-52171153D01*
X219000000Y-45564071D01*
X227599499Y-45564071D01*
X227624497Y-45689738D01*
X227624499Y-45689744D01*
X227673533Y-45808124D01*
X227673537Y-45808131D01*
X227723970Y-45883610D01*
X227744847Y-45950288D01*
X227726362Y-46017668D01*
X227723970Y-46021390D01*
X227673537Y-46096868D01*
X227673533Y-46096875D01*
X227624499Y-46215255D01*
X227624497Y-46215261D01*
X227599500Y-46340928D01*
X227599500Y-46340931D01*
X227599500Y-46469069D01*
X227599500Y-46469071D01*
X227599499Y-46469071D01*
X227624497Y-46594738D01*
X227624499Y-46594744D01*
X227673533Y-46713124D01*
X227673538Y-46713133D01*
X227744723Y-46819668D01*
X227744726Y-46819672D01*
X227835327Y-46910273D01*
X227835331Y-46910276D01*
X227941866Y-46981461D01*
X227941872Y-46981464D01*
X227941873Y-46981465D01*
X228060256Y-47030501D01*
X228060260Y-47030501D01*
X228060261Y-47030502D01*
X228185928Y-47055500D01*
X228185931Y-47055500D01*
X228314071Y-47055500D01*
X228409304Y-47036556D01*
X228439744Y-47030501D01*
X228455798Y-47023850D01*
X228525266Y-47016381D01*
X228587746Y-47047654D01*
X228617813Y-47090958D01*
X228648533Y-47165124D01*
X228648538Y-47165133D01*
X228719723Y-47271668D01*
X228719726Y-47271672D01*
X228810327Y-47362273D01*
X228810331Y-47362276D01*
X228916866Y-47433461D01*
X228916872Y-47433464D01*
X228916873Y-47433465D01*
X229035256Y-47482501D01*
X229035260Y-47482501D01*
X229035261Y-47482502D01*
X229160928Y-47507500D01*
X229160931Y-47507500D01*
X229289071Y-47507500D01*
X229373615Y-47490682D01*
X229414744Y-47482501D01*
X229533127Y-47433465D01*
X229639669Y-47362276D01*
X229730276Y-47271669D01*
X229801465Y-47165127D01*
X229832188Y-47090955D01*
X229876026Y-47036556D01*
X229942320Y-47014490D01*
X229994197Y-47023849D01*
X230010256Y-47030501D01*
X230010260Y-47030501D01*
X230010261Y-47030502D01*
X230135928Y-47055500D01*
X230135931Y-47055500D01*
X230264071Y-47055500D01*
X230359304Y-47036556D01*
X230389744Y-47030501D01*
X230508127Y-46981465D01*
X230614669Y-46910276D01*
X230705276Y-46819669D01*
X230776465Y-46713127D01*
X230825501Y-46594744D01*
X230850500Y-46469069D01*
X230850500Y-46340931D01*
X230850500Y-46340928D01*
X230825502Y-46215261D01*
X230825501Y-46215260D01*
X230825501Y-46215256D01*
X230776465Y-46096873D01*
X230776462Y-46096868D01*
X230776461Y-46096866D01*
X230726030Y-46021391D01*
X230705152Y-45954714D01*
X230723636Y-45887333D01*
X230726030Y-45883609D01*
X230776461Y-45808133D01*
X230776462Y-45808131D01*
X230776465Y-45808127D01*
X230825501Y-45689744D01*
X230850500Y-45564069D01*
X230850500Y-45435931D01*
X230850500Y-45435928D01*
X230825502Y-45310261D01*
X230825501Y-45310260D01*
X230825501Y-45310256D01*
X230776465Y-45191873D01*
X230776464Y-45191872D01*
X230776461Y-45191866D01*
X230705276Y-45085331D01*
X230705273Y-45085327D01*
X230614672Y-44994726D01*
X230614668Y-44994723D01*
X230508133Y-44923538D01*
X230508124Y-44923533D01*
X230389744Y-44874499D01*
X230389738Y-44874497D01*
X230264071Y-44849500D01*
X230264069Y-44849500D01*
X230135931Y-44849500D01*
X230135929Y-44849500D01*
X230010261Y-44874497D01*
X230010251Y-44874500D01*
X229994553Y-44881003D01*
X229925084Y-44888472D01*
X229862605Y-44857196D01*
X229832540Y-44813894D01*
X229801468Y-44738879D01*
X229801461Y-44738866D01*
X229730276Y-44632331D01*
X229730273Y-44632327D01*
X229639672Y-44541726D01*
X229639668Y-44541723D01*
X229533133Y-44470538D01*
X229533124Y-44470533D01*
X229414744Y-44421499D01*
X229414738Y-44421497D01*
X229289071Y-44396500D01*
X229289069Y-44396500D01*
X229160931Y-44396500D01*
X229160929Y-44396500D01*
X229035261Y-44421497D01*
X229035255Y-44421499D01*
X228916875Y-44470533D01*
X228916866Y-44470538D01*
X228810331Y-44541723D01*
X228810327Y-44541726D01*
X228719726Y-44632327D01*
X228719723Y-44632331D01*
X228648538Y-44738866D01*
X228648535Y-44738872D01*
X228617459Y-44813896D01*
X228573617Y-44868299D01*
X228507323Y-44890363D01*
X228455447Y-44881003D01*
X228439744Y-44874499D01*
X228439740Y-44874498D01*
X228439738Y-44874497D01*
X228314071Y-44849500D01*
X228314069Y-44849500D01*
X228185931Y-44849500D01*
X228185929Y-44849500D01*
X228060261Y-44874497D01*
X228060255Y-44874499D01*
X227941875Y-44923533D01*
X227941866Y-44923538D01*
X227835331Y-44994723D01*
X227835327Y-44994726D01*
X227744726Y-45085327D01*
X227744723Y-45085331D01*
X227673538Y-45191866D01*
X227673533Y-45191875D01*
X227624499Y-45310255D01*
X227624497Y-45310261D01*
X227599500Y-45435928D01*
X227599500Y-45435931D01*
X227599500Y-45564069D01*
X227599500Y-45564071D01*
X227599499Y-45564071D01*
X219000000Y-45564071D01*
X219000000Y-41374500D01*
X219019685Y-41307461D01*
X219072489Y-41261706D01*
X219124000Y-41250500D01*
X234184108Y-41250500D01*
X234247294Y-41250500D01*
X234252702Y-41250617D01*
G37*
%TD.AperFunction*%
%TA.AperFunction,Conductor*%
G36*
X238668834Y-75380414D02*
G01*
X238724767Y-75422286D01*
X238749184Y-75487750D01*
X238749500Y-75496596D01*
X238749500Y-85747293D01*
X238749382Y-85752702D01*
X238732614Y-86136750D01*
X238731671Y-86147526D01*
X238681849Y-86525957D01*
X238679971Y-86536610D01*
X238597354Y-86909272D01*
X238594554Y-86919721D01*
X238479775Y-87283755D01*
X238476075Y-87293921D01*
X238330002Y-87646572D01*
X238325430Y-87656376D01*
X238149183Y-87994942D01*
X238143775Y-88004310D01*
X237938681Y-88326244D01*
X237932476Y-88335105D01*
X237700110Y-88637930D01*
X237693156Y-88646217D01*
X237435284Y-88927635D01*
X237427635Y-88935284D01*
X237146217Y-89193156D01*
X237137930Y-89200110D01*
X236835105Y-89432476D01*
X236826244Y-89438681D01*
X236504310Y-89643775D01*
X236494942Y-89649183D01*
X236156376Y-89825430D01*
X236146572Y-89830002D01*
X235793921Y-89976075D01*
X235783755Y-89979775D01*
X235419721Y-90094554D01*
X235409272Y-90097354D01*
X235036610Y-90179971D01*
X235025957Y-90181849D01*
X234647526Y-90231671D01*
X234636750Y-90232614D01*
X234252703Y-90249382D01*
X234247294Y-90249500D01*
X232615600Y-90249500D01*
X232548561Y-90229815D01*
X232502806Y-90177011D01*
X232492862Y-90107853D01*
X232521887Y-90044297D01*
X232553602Y-90018112D01*
X232618716Y-89980520D01*
X232730520Y-89868716D01*
X232730520Y-89868714D01*
X232740728Y-89858507D01*
X232740729Y-89858504D01*
X233730520Y-88868716D01*
X233809577Y-88731784D01*
X233850501Y-88579057D01*
X233850501Y-88420942D01*
X233850501Y-88413347D01*
X233850500Y-88413329D01*
X233850500Y-87424500D01*
X233870185Y-87357461D01*
X233922989Y-87311706D01*
X233974500Y-87300500D01*
X234078844Y-87300500D01*
X234078845Y-87300499D01*
X234233497Y-87269737D01*
X234379179Y-87209394D01*
X234510289Y-87121789D01*
X234621789Y-87010289D01*
X234709394Y-86879179D01*
X234712854Y-86870827D01*
X234749665Y-86781955D01*
X234769737Y-86733497D01*
X234800500Y-86578842D01*
X234800500Y-86421158D01*
X234800500Y-86421155D01*
X234800499Y-86421153D01*
X234769737Y-86266503D01*
X234765281Y-86255744D01*
X234709397Y-86120827D01*
X234709390Y-86120814D01*
X234699724Y-86106348D01*
X234678846Y-86039671D01*
X234697330Y-85972291D01*
X234715142Y-85949777D01*
X234777139Y-85887782D01*
X234886632Y-85723914D01*
X234962051Y-85541835D01*
X234996488Y-85368712D01*
X235000500Y-85348543D01*
X235000500Y-85151456D01*
X234962052Y-84958170D01*
X234962051Y-84958169D01*
X234962051Y-84958165D01*
X234946632Y-84920939D01*
X234886635Y-84776092D01*
X234886628Y-84776079D01*
X234777139Y-84612218D01*
X234777136Y-84612214D01*
X234748605Y-84583683D01*
X234715120Y-84522360D01*
X234720104Y-84452668D01*
X234761976Y-84396735D01*
X234827440Y-84372318D01*
X234895713Y-84387170D01*
X234901369Y-84390455D01*
X234930522Y-84408437D01*
X234935555Y-84411542D01*
X234936303Y-84412003D01*
X235097292Y-84465349D01*
X235196655Y-84475500D01*
X235743344Y-84475499D01*
X235743352Y-84475498D01*
X235743355Y-84475498D01*
X235804852Y-84469216D01*
X235842708Y-84465349D01*
X236003697Y-84412003D01*
X236148044Y-84322968D01*
X236162671Y-84308340D01*
X236223989Y-84274855D01*
X236293681Y-84279836D01*
X236338034Y-84308339D01*
X236352267Y-84322572D01*
X236352271Y-84322575D01*
X236496507Y-84411542D01*
X236496518Y-84411547D01*
X236657393Y-84464855D01*
X236756683Y-84474999D01*
X237280000Y-84474999D01*
X237303308Y-84474999D01*
X237303322Y-84474998D01*
X237402607Y-84464855D01*
X237563481Y-84411547D01*
X237563492Y-84411542D01*
X237707728Y-84322575D01*
X237707732Y-84322572D01*
X237827572Y-84202732D01*
X237827575Y-84202728D01*
X237916542Y-84058492D01*
X237916547Y-84058481D01*
X237969855Y-83897606D01*
X237979999Y-83798322D01*
X237980000Y-83798309D01*
X237980000Y-83750000D01*
X237280000Y-83750000D01*
X237280000Y-84474999D01*
X236756683Y-84474999D01*
X236780000Y-84474998D01*
X236780000Y-83250000D01*
X237280000Y-83250000D01*
X237979999Y-83250000D01*
X237979999Y-83201692D01*
X237979998Y-83201677D01*
X237969855Y-83102392D01*
X237916547Y-82941518D01*
X237916542Y-82941507D01*
X237827575Y-82797271D01*
X237827572Y-82797267D01*
X237742986Y-82712681D01*
X237709501Y-82651358D01*
X237714485Y-82581666D01*
X237742986Y-82537319D01*
X237827572Y-82452732D01*
X237827575Y-82452728D01*
X237916542Y-82308492D01*
X237916547Y-82308481D01*
X237969855Y-82147606D01*
X237979999Y-82048322D01*
X237980000Y-82048309D01*
X237980000Y-82000000D01*
X237280000Y-82000000D01*
X237280000Y-83250000D01*
X236780000Y-83250000D01*
X236780000Y-81500000D01*
X237280000Y-81500000D01*
X237979999Y-81500000D01*
X237979999Y-81451692D01*
X237979998Y-81451677D01*
X237969855Y-81352392D01*
X237916547Y-81191518D01*
X237916542Y-81191507D01*
X237827575Y-81047271D01*
X237827572Y-81047267D01*
X237742986Y-80962681D01*
X237709501Y-80901358D01*
X237714485Y-80831666D01*
X237742986Y-80787319D01*
X237827572Y-80702732D01*
X237827575Y-80702728D01*
X237916542Y-80558492D01*
X237916547Y-80558481D01*
X237969855Y-80397606D01*
X237979999Y-80298322D01*
X237980000Y-80298309D01*
X237980000Y-80250000D01*
X237280000Y-80250000D01*
X237280000Y-81500000D01*
X236780000Y-81500000D01*
X236780000Y-79750000D01*
X237280000Y-79750000D01*
X237979999Y-79750000D01*
X237979999Y-79701692D01*
X237979998Y-79701677D01*
X237969855Y-79602392D01*
X237916547Y-79441518D01*
X237916542Y-79441507D01*
X237827575Y-79297271D01*
X237827572Y-79297267D01*
X237742986Y-79212681D01*
X237709501Y-79151358D01*
X237714485Y-79081666D01*
X237742986Y-79037319D01*
X237827572Y-78952732D01*
X237827575Y-78952728D01*
X237916542Y-78808492D01*
X237916547Y-78808481D01*
X237969855Y-78647606D01*
X237979999Y-78548322D01*
X237980000Y-78548309D01*
X237980000Y-78500000D01*
X237280000Y-78500000D01*
X237280000Y-79750000D01*
X236780000Y-79750000D01*
X236780000Y-78374000D01*
X236799685Y-78306961D01*
X236852489Y-78261206D01*
X236904000Y-78250000D01*
X237030000Y-78250000D01*
X237030000Y-78124000D01*
X237049685Y-78056961D01*
X237102489Y-78011206D01*
X237154000Y-78000000D01*
X237979999Y-78000000D01*
X237979999Y-77951692D01*
X237979998Y-77951677D01*
X237969855Y-77852392D01*
X237916547Y-77691518D01*
X237916542Y-77691507D01*
X237827575Y-77547271D01*
X237827572Y-77547267D01*
X237707732Y-77427427D01*
X237707728Y-77427424D01*
X237563492Y-77338457D01*
X237563481Y-77338452D01*
X237402606Y-77285144D01*
X237391223Y-77283981D01*
X237326532Y-77257585D01*
X237286380Y-77200404D01*
X237283517Y-77130593D01*
X237314236Y-77076316D01*
X237314131Y-77076234D01*
X237314679Y-77075533D01*
X237316147Y-77072940D01*
X237318753Y-77070335D01*
X237318756Y-77070329D01*
X237318758Y-77070328D01*
X237401732Y-76933070D01*
X237401733Y-76933069D01*
X237449452Y-76779933D01*
X237455500Y-76713381D01*
X237455499Y-76542596D01*
X237475183Y-76475557D01*
X237491813Y-76454920D01*
X238537819Y-75408915D01*
X238599142Y-75375430D01*
X238668834Y-75380414D01*
G37*
%TD.AperFunction*%
%TA.AperFunction,Conductor*%
G36*
X231756286Y-84106992D02*
G01*
X231820500Y-84134530D01*
X231859632Y-84192413D01*
X231865500Y-84230107D01*
X231865500Y-85879330D01*
X231865499Y-85879348D01*
X231865499Y-86045054D01*
X231865498Y-86045054D01*
X231906423Y-86197786D01*
X231910396Y-86204666D01*
X231914656Y-86212044D01*
X231914658Y-86212053D01*
X231914661Y-86212052D01*
X231985479Y-86334714D01*
X231985481Y-86334717D01*
X232104349Y-86453585D01*
X232104355Y-86453590D01*
X232221681Y-86570916D01*
X232255166Y-86632239D01*
X232250182Y-86701931D01*
X232208310Y-86757864D01*
X232142846Y-86782281D01*
X232121398Y-86781955D01*
X232053324Y-86775000D01*
X232030000Y-86775000D01*
X232030000Y-87626000D01*
X232010315Y-87693039D01*
X231957511Y-87738794D01*
X231906000Y-87750000D01*
X231654000Y-87750000D01*
X231586961Y-87730315D01*
X231541206Y-87677511D01*
X231530000Y-87626000D01*
X231530000Y-86774999D01*
X231506693Y-86775000D01*
X231506674Y-86775001D01*
X231407392Y-86785144D01*
X231246518Y-86838452D01*
X231246507Y-86838457D01*
X231102271Y-86927424D01*
X231088032Y-86941663D01*
X231026708Y-86975146D01*
X230957016Y-86970160D01*
X230912672Y-86941660D01*
X230898044Y-86927032D01*
X230898040Y-86927029D01*
X230753705Y-86838001D01*
X230753699Y-86837998D01*
X230753697Y-86837997D01*
X230680394Y-86813707D01*
X230592709Y-86784651D01*
X230493346Y-86774500D01*
X229946662Y-86774500D01*
X229946644Y-86774501D01*
X229847292Y-86784650D01*
X229847285Y-86784652D01*
X229759602Y-86813707D01*
X229689773Y-86816108D01*
X229632918Y-86783682D01*
X229166303Y-86317067D01*
X228631414Y-85782179D01*
X228597930Y-85720857D01*
X228602914Y-85651165D01*
X228644786Y-85595232D01*
X228710250Y-85570815D01*
X228719096Y-85570499D01*
X228848388Y-85570499D01*
X228914926Y-85564453D01*
X228914927Y-85564452D01*
X228914933Y-85564452D01*
X229068069Y-85516733D01*
X229138717Y-85474024D01*
X229205329Y-85433757D01*
X229205330Y-85433755D01*
X229205335Y-85433753D01*
X229252688Y-85386399D01*
X229267749Y-85378003D01*
X229279044Y-85366306D01*
X229303422Y-85358116D01*
X229311892Y-85353395D01*
X229324157Y-85350501D01*
X229329057Y-85350501D01*
X229365180Y-85340821D01*
X229366980Y-85340397D01*
X229400077Y-85342182D01*
X229433211Y-85342971D01*
X229434813Y-85344055D01*
X229436748Y-85344160D01*
X229463636Y-85363563D01*
X229491074Y-85382133D01*
X229491961Y-85384003D01*
X229493407Y-85385046D01*
X229497974Y-85396667D01*
X229517073Y-85436891D01*
X229537947Y-85541829D01*
X229537950Y-85541839D01*
X229613364Y-85723907D01*
X229613371Y-85723920D01*
X229722860Y-85887781D01*
X229722863Y-85887785D01*
X229862214Y-86027136D01*
X229862218Y-86027139D01*
X230026079Y-86136628D01*
X230026092Y-86136635D01*
X230173726Y-86197786D01*
X230208165Y-86212051D01*
X230208169Y-86212051D01*
X230208170Y-86212052D01*
X230401456Y-86250500D01*
X230401459Y-86250500D01*
X230598543Y-86250500D01*
X230728582Y-86224632D01*
X230791835Y-86212051D01*
X230947613Y-86147526D01*
X230973907Y-86136635D01*
X230973907Y-86136634D01*
X230973914Y-86136632D01*
X231137782Y-86027139D01*
X231277139Y-85887782D01*
X231386632Y-85723914D01*
X231462051Y-85541835D01*
X231496488Y-85368712D01*
X231500500Y-85348543D01*
X231500500Y-85151456D01*
X231462052Y-84958170D01*
X231462051Y-84958169D01*
X231462051Y-84958165D01*
X231446632Y-84920939D01*
X231386635Y-84776092D01*
X231386628Y-84776079D01*
X231277139Y-84612218D01*
X231277136Y-84612214D01*
X231137789Y-84472867D01*
X231137784Y-84472863D01*
X231137782Y-84472861D01*
X231126540Y-84465349D01*
X231121605Y-84462051D01*
X231116516Y-84455962D01*
X231109297Y-84452665D01*
X231094431Y-84429533D01*
X231076802Y-84408437D01*
X231074851Y-84399065D01*
X231071523Y-84393887D01*
X231066500Y-84358952D01*
X231066500Y-84230612D01*
X231086185Y-84163573D01*
X231138989Y-84117818D01*
X231175706Y-84107498D01*
X231194931Y-84105190D01*
X231194935Y-84105188D01*
X231201216Y-84104434D01*
X231230785Y-84104435D01*
X231237067Y-84105189D01*
X231237069Y-84105190D01*
X231322922Y-84115500D01*
X231609079Y-84115500D01*
X231702825Y-84104242D01*
X231703046Y-84106090D01*
X231732714Y-84104161D01*
X231756286Y-84106992D01*
G37*
%TD.AperFunction*%
%TA.AperFunction,Conductor*%
G36*
X226098834Y-81852914D02*
G01*
X226154767Y-81894786D01*
X226179184Y-81960250D01*
X226179500Y-81969096D01*
X226179500Y-82348388D01*
X226185546Y-82414926D01*
X226185548Y-82414933D01*
X226233265Y-82568066D01*
X226233267Y-82568070D01*
X226316242Y-82705329D01*
X226316246Y-82705334D01*
X226429665Y-82818753D01*
X226429670Y-82818757D01*
X226566929Y-82901732D01*
X226566933Y-82901734D01*
X226621100Y-82918612D01*
X226720067Y-82949452D01*
X226786619Y-82955500D01*
X227213380Y-82955499D01*
X227213388Y-82955499D01*
X227279926Y-82949453D01*
X227279927Y-82949452D01*
X227279933Y-82949452D01*
X227433069Y-82901733D01*
X227503717Y-82859024D01*
X227570329Y-82818757D01*
X227570330Y-82818756D01*
X227570329Y-82818756D01*
X227570335Y-82818753D01*
X227683753Y-82705335D01*
X227704414Y-82671158D01*
X227710948Y-82660350D01*
X227718882Y-82653083D01*
X227723352Y-82643297D01*
X227744199Y-82629899D01*
X227762476Y-82613162D01*
X227774630Y-82610342D01*
X227782130Y-82605523D01*
X227817065Y-82600500D01*
X227825500Y-82600500D01*
X227892539Y-82620185D01*
X227938294Y-82672989D01*
X227949500Y-82724500D01*
X227949500Y-82828846D01*
X227980261Y-82983489D01*
X227980264Y-82983501D01*
X228040602Y-83129172D01*
X228040609Y-83129185D01*
X228128210Y-83260288D01*
X228128213Y-83260292D01*
X228239707Y-83371786D01*
X228239711Y-83371789D01*
X228370814Y-83459390D01*
X228370827Y-83459397D01*
X228496414Y-83511416D01*
X228516503Y-83519737D01*
X228646640Y-83545623D01*
X228671153Y-83550499D01*
X228671156Y-83550500D01*
X228671158Y-83550500D01*
X228828844Y-83550500D01*
X228828845Y-83550499D01*
X228983497Y-83519737D01*
X229129179Y-83459394D01*
X229137605Y-83453763D01*
X229141873Y-83452426D01*
X229144976Y-83449202D01*
X229174915Y-83442079D01*
X229204281Y-83432883D01*
X229208596Y-83434066D01*
X229212949Y-83433031D01*
X229241981Y-83443223D01*
X229271662Y-83451364D01*
X229274652Y-83454692D01*
X229278874Y-83456175D01*
X229297791Y-83480451D01*
X229318354Y-83503341D01*
X229319841Y-83508747D01*
X229321821Y-83511287D01*
X229324696Y-83526389D01*
X229329990Y-83545623D01*
X229330500Y-83551226D01*
X229330500Y-83623078D01*
X229340810Y-83708931D01*
X229346068Y-83722264D01*
X229347680Y-83739972D01*
X229344218Y-83757511D01*
X229345825Y-83775312D01*
X229337595Y-83791072D01*
X229334153Y-83808520D01*
X229321760Y-83821402D01*
X229313487Y-83837248D01*
X229311871Y-83838894D01*
X229196880Y-83953884D01*
X229135557Y-83987368D01*
X229072309Y-83984588D01*
X228973775Y-83953884D01*
X228914933Y-83935548D01*
X228914931Y-83935547D01*
X228914929Y-83935547D01*
X228868335Y-83931313D01*
X228848381Y-83929500D01*
X228848378Y-83929500D01*
X228346611Y-83929500D01*
X228280073Y-83935546D01*
X228280066Y-83935548D01*
X228126937Y-83983264D01*
X228126931Y-83983267D01*
X228063664Y-84021512D01*
X227996109Y-84039347D01*
X227935367Y-84021511D01*
X227872863Y-83983726D01*
X227872859Y-83983724D01*
X227719842Y-83936043D01*
X227719843Y-83936043D01*
X227653337Y-83930000D01*
X227652500Y-83930000D01*
X227652500Y-84626000D01*
X227632815Y-84693039D01*
X227580011Y-84738794D01*
X227528500Y-84750000D01*
X227402500Y-84750000D01*
X227402500Y-84876000D01*
X227382815Y-84943039D01*
X227330011Y-84988794D01*
X227278500Y-85000000D01*
X226548331Y-85000000D01*
X226551042Y-85029839D01*
X226592384Y-85162510D01*
X226593534Y-85232370D01*
X226556733Y-85291763D01*
X226493664Y-85321831D01*
X226424351Y-85313028D01*
X226386317Y-85287081D01*
X225886819Y-84787583D01*
X225872115Y-84760655D01*
X225855523Y-84734837D01*
X225854631Y-84728636D01*
X225853334Y-84726260D01*
X225850500Y-84699902D01*
X225850500Y-84500000D01*
X226548331Y-84500000D01*
X227152500Y-84500000D01*
X227152500Y-83930000D01*
X227151663Y-83930000D01*
X227085156Y-83936043D01*
X226932140Y-83983724D01*
X226932136Y-83983726D01*
X226794980Y-84066639D01*
X226794976Y-84066642D01*
X226681642Y-84179976D01*
X226681639Y-84179980D01*
X226598726Y-84317136D01*
X226598724Y-84317140D01*
X226551043Y-84470155D01*
X226548331Y-84500000D01*
X225850500Y-84500000D01*
X225850500Y-82050096D01*
X225870185Y-81983057D01*
X225886815Y-81962419D01*
X225967820Y-81881414D01*
X226029142Y-81847930D01*
X226098834Y-81852914D01*
G37*
%TD.AperFunction*%
%TA.AperFunction,Conductor*%
G36*
X233005000Y-71070000D02*
G01*
X233281402Y-71070000D01*
X233348441Y-71089685D01*
X233394196Y-71142489D01*
X233404140Y-71211647D01*
X233375115Y-71275203D01*
X233369083Y-71281681D01*
X233269481Y-71381282D01*
X233269475Y-71381290D01*
X233224855Y-71458576D01*
X233224855Y-71458577D01*
X233190423Y-71518215D01*
X233149499Y-71670943D01*
X233149499Y-71670945D01*
X233149499Y-71839046D01*
X233149500Y-71839059D01*
X233149500Y-72134216D01*
X233129815Y-72201255D01*
X233113181Y-72221897D01*
X232972863Y-72362214D01*
X232972860Y-72362218D01*
X232863371Y-72526079D01*
X232863364Y-72526092D01*
X232787950Y-72708160D01*
X232787947Y-72708170D01*
X232749500Y-72901456D01*
X232749500Y-72901459D01*
X232749500Y-73098541D01*
X232749500Y-73098543D01*
X232749499Y-73098543D01*
X232787947Y-73291829D01*
X232787950Y-73291839D01*
X232863364Y-73473907D01*
X232863371Y-73473920D01*
X232972860Y-73637781D01*
X232972863Y-73637785D01*
X233112214Y-73777136D01*
X233112218Y-73777139D01*
X233276079Y-73886628D01*
X233276092Y-73886635D01*
X233427748Y-73949452D01*
X233458165Y-73962051D01*
X233458169Y-73962051D01*
X233458170Y-73962052D01*
X233651456Y-74000500D01*
X233651459Y-74000500D01*
X233848543Y-74000500D01*
X233978582Y-73974632D01*
X234041835Y-73962051D01*
X234223914Y-73886632D01*
X234387782Y-73777139D01*
X234527139Y-73637782D01*
X234636632Y-73473914D01*
X234636634Y-73473907D01*
X234639502Y-73468544D01*
X234641310Y-73469510D01*
X234679272Y-73422397D01*
X234745564Y-73400326D01*
X234813265Y-73417600D01*
X234860879Y-73468734D01*
X234862522Y-73472331D01*
X234863371Y-73473920D01*
X234972860Y-73637781D01*
X234972863Y-73637785D01*
X235112214Y-73777136D01*
X235112218Y-73777139D01*
X235276079Y-73886628D01*
X235276092Y-73886635D01*
X235427748Y-73949452D01*
X235458165Y-73962051D01*
X235458169Y-73962051D01*
X235458170Y-73962052D01*
X235651456Y-74000500D01*
X235651459Y-74000500D01*
X235848543Y-74000500D01*
X235978582Y-73974632D01*
X236041835Y-73962051D01*
X236223914Y-73886632D01*
X236387782Y-73777139D01*
X236527139Y-73637782D01*
X236636632Y-73473914D01*
X236642318Y-73460188D01*
X236675872Y-73379179D01*
X236712051Y-73291835D01*
X236724632Y-73228582D01*
X236750500Y-73098543D01*
X236750500Y-72901456D01*
X236712052Y-72708170D01*
X236712051Y-72708169D01*
X236712051Y-72708165D01*
X236675872Y-72620821D01*
X236636635Y-72526092D01*
X236636628Y-72526079D01*
X236527139Y-72362218D01*
X236527136Y-72362214D01*
X236386819Y-72221897D01*
X236353334Y-72160574D01*
X236350500Y-72134216D01*
X236350500Y-71920945D01*
X236350500Y-71920943D01*
X236319588Y-71805577D01*
X236309577Y-71768215D01*
X236275616Y-71709394D01*
X236230520Y-71631284D01*
X236118716Y-71519480D01*
X236118715Y-71519479D01*
X236114385Y-71515149D01*
X236114374Y-71515139D01*
X235880916Y-71281681D01*
X235847431Y-71220358D01*
X235852415Y-71150666D01*
X235894287Y-71094733D01*
X235959751Y-71070316D01*
X235968597Y-71070000D01*
X236305000Y-71070000D01*
X236305000Y-70320000D01*
X236805000Y-70320000D01*
X236805000Y-71070000D01*
X237153492Y-71070000D01*
X237153495Y-71069999D01*
X237346681Y-71031572D01*
X237346693Y-71031569D01*
X237478048Y-70977161D01*
X237547517Y-70969692D01*
X237609996Y-71000967D01*
X237645648Y-71061056D01*
X237649500Y-71091722D01*
X237649500Y-74547402D01*
X237629815Y-74614441D01*
X237613181Y-74635083D01*
X236605082Y-75643181D01*
X236543759Y-75676666D01*
X236517402Y-75679500D01*
X236346611Y-75679500D01*
X236280073Y-75685546D01*
X236280066Y-75685548D01*
X236126933Y-75733265D01*
X236126929Y-75733267D01*
X236064149Y-75771219D01*
X235996594Y-75789055D01*
X235935851Y-75771219D01*
X235873070Y-75733267D01*
X235873066Y-75733265D01*
X235719933Y-75685548D01*
X235719935Y-75685548D01*
X235693312Y-75683128D01*
X235653381Y-75679500D01*
X235653378Y-75679500D01*
X235151611Y-75679500D01*
X235085073Y-75685546D01*
X235085066Y-75685548D01*
X234931933Y-75733265D01*
X234931929Y-75733267D01*
X234794670Y-75816242D01*
X234794665Y-75816246D01*
X234681246Y-75929665D01*
X234681242Y-75929670D01*
X234598267Y-76066929D01*
X234598265Y-76066933D01*
X234550548Y-76220065D01*
X234544500Y-76286621D01*
X234544500Y-76457402D01*
X234524815Y-76524441D01*
X234508181Y-76545083D01*
X234078195Y-76975068D01*
X234060353Y-76984810D01*
X234045395Y-76998581D01*
X234030310Y-77001215D01*
X234016872Y-77008553D01*
X233996593Y-77007102D01*
X233976567Y-77010600D01*
X233962454Y-77004661D01*
X233947180Y-77003569D01*
X233930904Y-76991384D01*
X233912167Y-76983500D01*
X233896499Y-76965629D01*
X233891247Y-76961697D01*
X233888263Y-76957534D01*
X233886546Y-76955031D01*
X233822968Y-76851956D01*
X233800245Y-76829233D01*
X233793769Y-76819793D01*
X233786332Y-76797025D01*
X233774854Y-76776004D01*
X233775682Y-76764418D01*
X233772076Y-76753376D01*
X233778129Y-76730202D01*
X233779838Y-76706312D01*
X233787473Y-76694431D01*
X233789735Y-76685775D01*
X233797821Y-76678330D01*
X233808343Y-76661960D01*
X233822575Y-76647729D01*
X233911542Y-76503492D01*
X233911547Y-76503481D01*
X233964855Y-76342606D01*
X233974999Y-76243322D01*
X233975000Y-76243309D01*
X233975000Y-76220000D01*
X233124000Y-76220000D01*
X233056961Y-76200315D01*
X233011206Y-76147511D01*
X233000000Y-76096000D01*
X233000000Y-75970000D01*
X232874000Y-75970000D01*
X232806961Y-75950315D01*
X232761206Y-75897511D01*
X232750000Y-75846000D01*
X232750000Y-75720000D01*
X233250000Y-75720000D01*
X233974999Y-75720000D01*
X233974999Y-75696692D01*
X233974998Y-75696677D01*
X233964855Y-75597392D01*
X233911547Y-75436518D01*
X233911542Y-75436507D01*
X233822575Y-75292271D01*
X233822572Y-75292267D01*
X233702732Y-75172427D01*
X233702728Y-75172424D01*
X233558492Y-75083457D01*
X233558481Y-75083452D01*
X233397606Y-75030144D01*
X233298322Y-75020000D01*
X233250000Y-75020000D01*
X233250000Y-75720000D01*
X232750000Y-75720000D01*
X232750000Y-75020000D01*
X232749999Y-75019999D01*
X232701693Y-75020000D01*
X232701675Y-75020001D01*
X232602391Y-75030144D01*
X232513503Y-75059598D01*
X232443674Y-75061999D01*
X232383633Y-75026267D01*
X232352441Y-74963747D01*
X232350500Y-74941892D01*
X232350500Y-71194000D01*
X232370185Y-71126961D01*
X232422989Y-71081206D01*
X232474500Y-71070000D01*
X232505000Y-71070000D01*
X232505000Y-70320000D01*
X233005000Y-70320000D01*
X233005000Y-71070000D01*
G37*
%TD.AperFunction*%
%TD*%
M02*
